<mxfile host="app.diagrams.net" modified="2023-03-02T12:47:07.457Z" agent="5.0 (Macintosh; Intel Mac OS X 10_15_7) AppleWebKit/537.36 (KHTML, like Gecko) Chrome/109.0.0.0 Safari/537.36" etag="-r1InaWcPdmfW7in2CfX" version="20.8.23" type="github">
  <diagram name="第 1 页" id="iNW5PtKsfVoUmID_3B51">
    <mxGraphModel dx="3530" dy="2949" grid="1" gridSize="10" guides="1" tooltips="1" connect="1" arrows="1" fold="1" page="1" pageScale="1" pageWidth="827" pageHeight="1169" math="0" shadow="0">
      <root>
        <mxCell id="0" />
        <mxCell id="1" parent="0" />
        <mxCell id="bD2k2-0QSDSNVL_4Vgss-1" value="" style="shape=image;verticalLabelPosition=bottom;labelBackgroundColor=default;verticalAlign=top;aspect=fixed;imageAspect=0;image=data:image/png,iVBORw0KGgoAAAANSUhEUgAAA6UAAAMZCAIAAAB3SwUfAAAAAXNSR0IArs4c6QAAAKZlWElmTU0AKgAAAAgABgESAAMAAAABAAEAAAEaAAUAAAABAAAAVgEbAAUAAAABAAAAXgEoAAMAAAABAAIAAAExAAIAAAAVAAAAZodpAAQAAAABAAAAfAAAAAAAAABIAAAAAQAAAEgAAAABUGl4ZWxtYXRvciBQcm8gMi4zLjUAAAADoAEAAwAAAAEAAQAAoAIABAAAAAEAAAOloAMABAAAAAEAAAMZAAAAABloQYMAAAAJcEhZcwAACxMAAAsTAQCanBgAAANuaVRYdFhNTDpjb20uYWRvYmUueG1wAAAAAAA8eDp4bXBtZXRhIHhtbG5zOng9ImFkb2JlOm5zOm1ldGEvIiB4OnhtcHRrPSJYTVAgQ29yZSA2LjAuMCI+CiAgIDxyZGY6UkRGIHhtbG5zOnJkZj0iaHR0cDovL3d3dy53My5vcmcvMTk5OS8wMi8yMi1yZGYtc3ludGF4LW5zIyI+CiAgICAgIDxyZGY6RGVzY3JpcHRpb24gcmRmOmFib3V0PSIiCiAgICAgICAgICAgIHhtbG5zOmV4aWY9Imh0dHA6Ly9ucy5hZG9iZS5jb20vZXhpZi8xLjAvIgogICAgICAgICAgICB4bWxuczp4bXA9Imh0dHA6Ly9ucy5hZG9iZS5jb20veGFwLzEuMC8iCiAgICAgICAgICAgIHhtbG5zOnRpZmY9Imh0dHA6Ly9ucy5hZG9iZS5jb20vdGlmZi8xLjAvIj4KICAgICAgICAgPGV4aWY6UGl4ZWxZRGltZW5zaW9uPjc5MzwvZXhpZjpQaXhlbFlEaW1lbnNpb24+CiAgICAgICAgIDxleGlmOlBpeGVsWERpbWVuc2lvbj45MzM8L2V4aWY6UGl4ZWxYRGltZW5zaW9uPgogICAgICAgICA8eG1wOkNyZWF0b3JUb29sPlBpeGVsbWF0b3IgUHJvIDIuMy41PC94bXA6Q3JlYXRvclRvb2w+CiAgICAgICAgIDx4bXA6TWV0YWRhdGFEYXRlPjIwMjMtMDMtMDJUMjA6MzI6MTQrMDg6MDA8L3htcDpNZXRhZGF0YURhdGU+CiAgICAgICAgIDx0aWZmOlhSZXNvbHV0aW9uPjcyMDAwMC8xMDAwMDwvdGlmZjpYUmVzb2x1dGlvbj4KICAgICAgICAgPHRpZmY6UmVzb2x1dGlvblVuaXQ+MjwvdGlmZjpSZXNvbHV0aW9uVW5pdD4KICAgICAgICAgPHRpZmY6WVJlc29sdXRpb24+NzIwMDAwLzEwMDAwPC90aWZmOllSZXNvbHV0aW9uPgogICAgICAgICA8dGlmZjpPcmllbnRhdGlvbj4xPC90aWZmOk9yaWVudGF0aW9uPgogICAgICA8L3JkZjpEZXNjcmlwdGlvbj4KICAgPC9yZGY6UkRGPgo8L3g6eG1wbWV0YT4KwSOjEwAAQABJREFUeAHsnQe4FNX5xs+W2xtNujQp0kRNVBASDfZQBAuoIZZoYoxijOWfQmKLxBJNTNQI2LChRAOEoqAG1EAAUQFpopRLv5dygdvLlv87O7Mzs7szs3Pv3d27u7zz3GfvmXO+c+ac3/A8vPfsd77P4ff7BS8SIAESIAESIAESIAESSFMCzjRdF5dFAiRAAiRAAiRAAiRAAhIB6l3+OyABEiABEiABEiABEkhnAtS76fx2uTYSIAESIAESIAESIAHqXf4bIAESIAESIAESIAESSGcC1Lvp/Ha5NhIgARIgARIgARIgAepd/hsgARIgARIgARIgARJIZwLUu+n8drk2EiABEiABEiABEiAB6l3+GyABEiABEiABEiABEkhnAtS76fx2uTYSIAESIAESIAESIAF3bBFUVVXNnDnz888/37RpU11d3ZDAddFFF5122mmxfRBHIwESIAESIAESIAESIAE7BBwxzCf8zjvv3HHHHQcPHox88N///nc0ORyOyCbWkAAJkAAJkAAJkAAJkED8CMRM70LsTpgwwWKi0LvPPPOMhQGbSIAESIAESIAESIAESCDmBGKjdz/77LNzzjkHkysoKLjhhhu6deu2Z8+euXPn7t27Vz/jFStWnHvuufoalkmABEiABEiABEiABEggrgRioHfhEQEVu2rVqp/97GdPPvkkJK8848rKyvvuu2/atGnqAm6++eYXX3xRvWWBBEiABEiABEiABEiABOJNIAbxGebPnw+x++tf/3r69Omq2MW88/Pzn3322eHDh6trWLt2rVpmgQRIgARIgARIgARIgAQSQCAGere6uvq666575JFHIqfrcrkefPBBtR47vmqZBRIgARIgARIgARIgARJIAIEY+DNYz3L37t3du3eXbejPYM2KrSRAAiRAAiRAAiRAAjEnEIP9Xes5HTp0SDWYPHmyWmaBBEiABEiABEiABEiABBJAIO56d/ny5fIykHUC2ScSsCQ+ggRIgARIgARIgARIgARUAnHXu4sWLcLDevXq9dprr6lPZYEESIAESIAESIAESIAEEkMgvnp3xowZH374Yfv27ZcuXdqxY8fELIlPIQESIAESIAESIAESIAGVQLz0rsfjeeihh2699VY8qVWrVlVVVeojY1JAamI7V0yexUFIgARIgARIgARIgARSl0Ds4zMgyO7bb789c+bMgwcP6rlA/t5///36muaUIXbtdEcuDDtmtCEBEiABEiABEiABEkhXAu7YLmzOnDlXXnml4ZgPPPAA6mMoeQ2fwkoSIAESIAESIAESIAES0BOI8f4uck+sW7cOW7yrV69esmRJ2BYvHrxmzZrvfve7+hk0razu73IHt2kA2YsESIAESIAESIAEThACMda7emq1tbV//vOfwzZ0x48fjz1gvVnTytS7TePGXiRAAiRAAiRAAiRwohGIo96VUW7duvWss86qqKhQyTY0NLjdzfWjoN5VebJAAiRAAiRAAiRAAiRgQSBe8RnUR/br1w9RydRbFPbs2aO/ZZkESIAESIAESIAESIAE4kcg7noXU7/mmmu6du2qrqG0tFQts0ACJEACJEACJEACJEACcSWQCL2LBVxwwQXqMjp37qyWWSABEiABEiABEiABEiCBuBJIkN4dOnSouoyTTz5ZLbNAAiRAAiRAAiRAAiRAAnElkCC9m52dLS9j+PDh6lGzuC6Mg5MACZAACZAACZAACZAACCRI73711Vcy7quuuorcSYAESIAESIAESIAESCBhBOIejwwr2b17d/fu3VHo27fvhg0bMjMzm788dZOY+SaaD5MjkAAJkAAJkAAJkEAaE2huHFygwd7tCy+84PV6R44cOW7cuLDYusi4dsstt8gEn3/++ZiI3TR+H1waCZAACZAACZAACZBAbAk0d38XMrdHjx579+6Vp4Ud3ClTpkycODErK8vj8Xz++ec33HDDN998g9ZnnnnmjjvuiNXsub8bK5IchwRIgARIgARIgATSm0CM9a4Kq1evXjt27JBvCwoKXnnllSuvvFJtbX6Berf5DDkCCZAACZAACZAACZwIBJqrd8FowYIFY8eONYQ1YMCASZMmYVsXktfQoMmV1LtNRseOJEACJEACJEACJHBCEYiB3gWvysrKL7744uDBg8idBg+HtoFr8ODB+rRqscVKvRtbnhyNBEiABEiABEiABNKVQGz0buLpUO8mnjmfSAIkQAIkQAIkQAKpSCBB8XdTEQ3nTAIkQAIkQAIkQAIkkAYEqHfT4CVyCSRAAiRAAiRAAiRAAqYEqHdN0bCBBEiABEiABEiABEggDQhQ76bBS+QSSIAESIAESIAESIAETAlQ75qiYQMJkAAJkAAJkAAJkEAaEKDeTYOXyCWQAAmQAAmQAAmQAAmYEqDeNUXDBhIgARIgARIgARIggTQgQL2bBi+RSyABEiABEiABEiABEjAlQL1rioYNJEACJEACJEACJEACaUCAejcNXiKXQAIkQAIkQAIkQAIkYEqAetcUDRtIgARIgARIgARIgATSgAD1bhq8RC6BBEiABEiABEiABEjAlAD1rikaNpAACZAACZAACZAACaQBAerdNHiJXAIJkAAJkAAJkAAJkIApAepdUzRsIAESIAESIAESIAESSAMC1Ltp8BK5BBIgARIgARIgARIgAVMC1LumaNhAAiRAAiRAAiRAAiSQBgSod9PgJXIJJEACJEACJEACJEACpgSod03RsIEESIAESIAESIAESCANCFDvpsFL5BJIgARIgARIgARIgARMCVDvmqJhAwmQAAmQAAmQAAmQQBoQoN5Ng5fIJZAACZAACZAACZAACZgSoN41RcMGEiABEiABEiABEiCBNCBAvZsGL5FLIAESIAESIAESIAESMCVAvWuKhg0kQAIkQAIkQAIkQAJpQIB6Nw1eIpdAAiRAAiRAAiRAAiRgSoB61xQNG0iABEiABEiABEiABNKAAPVuGrxELoEESIAESIAESIAESMCUAPWuKRo2kAAJkAAJkAAJkAAJpAEB6t00eIlcAgmQAAmQAAmQAAmQgCkB6l1TNGwgARIgARIgARIgARJIAwLUu2nwErkEEiABEiABEiABEiABUwLUu6Zo2EACJEACJEACJEACJJAGBKh30+AlcgkkQAIkQAIkQAIkQAKmBKh3TdGwgQRIgARIgARIgARIIA0IUO+mwUvkEkiABEiABEiABEiABEwJUO+aomEDCZAACZAACZAACZBAGhCg3k2Dl8glkAAJkAAJkAAJkAAJmBKg3jVFwwYSIAESIAESIAESIIE0IEC9mwYvkUsgARIgARIgARIgARIwJUC9a4qGDSRAAiRAAiRAAiRAAmlAgHo3DV4il0ACJEACJEACJEACJGBKgHrXFA0bSIAESIAESIAESIAE0oAA9W4avEQugQRIgARIgARIgARIwJQA9a4pGjaQAAmQAAmQAAmQAAmkAQHq3TR4iVwCCZAACZAACZAACZCAKQHqXVM0bCABEiABEiABEiABEkgDAtS7afASuQQSIAESIAESIAESIAFTAtS7pmjYQAIkQAIkQAIkQAIkkAYEqHfT4CVyCSRAAiRAAiRAAiRAAqYEqHdN0bCBBEiABEiABEiABEggDQhQ76bBS+QSSIAESIAESIAESIAETAlQ75qiYQMJkAAJkAAJkAAJkEAaEKDeTYOXyCWQAAmQAAmQAAmQAAmYEqDeNUXDBhIgARIgARIgARIggTQgQL2bBi+RSyABEiABEiABEiABEjAlQL1rioYNJEACJEACJEACJEACaUCAejcNXiKXQAIkQAIkQAIkQAIkYEqAetcUDRtIgARIgARIgARIgATSgAD1bhq8RC6BBEiABEiABEiABEjAlAD1rikaNpAACZAACZAACZAACaQBAerdNHiJXAIJkAAJkAAJkAAJkIApAepdUzRsIAESIAESIAESIAESSAMC1Ltp8BK5BBIgARIgARIgARIgAVMC1LumaNhAAiRAAiRAAiRAAiSQBgSod9PgJXIJJEACJEACJEACJEACpgSod03RsIEESIAESIAESIAESCANCFDvpsFL5BJIgARIgARIgARIgARMCVDvmqJhAwmQAAmQAAmQAAmQQBoQoN5Ng5fIJZAACZAACZAACZAACZgSoN41RcMGEiABEiABEiABEiCBNCBAvZsGL5FLIAESIAESIAESIAESMCVAvWuKhg0kQAIkQAIkQAIkQAJpQIB6Nw1eIpdAAiRAAiRAAiRAAiRgSoB61xQNG0iABEiABEiABEiABNKAAPVuGrxELoEESIAESIAESIAESMCUAPWuKRo2kAAJkAAJkAAJkAAJpAEB6t00eIlcAgmQAAmQAAmQAAmQgCkB6l1TNGwgARIgARIgARIgARJIAwLUu2nwErkEEiABEiABEiABEiABUwLUu6Zo2EACJEACJEACJEACJJAGBKh30+AlcgkkQAIkQAIkQAIkQAKmBKh3TdGwgQRIgARIgARIgARIIA0IUO+mwUvkEkiABEiABEiABEiABEwJUO+aomEDCZAACZAACZAACZBAGhCg3k2Dl8glkAAJkAAJkAAJkAAJmBKg3jVFwwYSIAESIAESIAESIIE0IEC9mwYvkUsgARIgARIgARIgARIwJUC9a4qGDSRAAiRAAiRAAiRAAmlAwB3bNRw4cGDOnDkbN25ct25ddXX1aaedNnjw4HPPPXfEiBGxfRBHIwESIAESIAESIAESIAE7BBx+v9+OXVQbn883c+bMu+66q6KiItL4uuuu++tf/9q+ffvIpqbVOBwOuWOs5t+0abAXCZAACZAACZAACZBAkhOImd697bbbpk2bZrHagoKCFStWYLvXwsZ+E/WufVa0JAESIAESIAESIIETmUBs9O78+fMvv/xylWOvXr0qKysPHjyo1siFAQMGrFmzJjc3N6y+CbfUu02Axi4kQAIkQAIkQAIkcAISiMF5taNHj06aNAnssIP7xBNPlJeXb9++vTRwTZ48Wc908+bNDz74oL6GZRIgARIgARIgARIgARKIK4EY7O++8847EyZMgG/up59+2q9fv7Dpyq1qJcyghNXbJhe4v9tkdOxIAiRAAiRAAiRAAicUgRjs73700UdAtnjx4kixi/qrr776hhtuUJnCyaGkpES9ZYEESIAESIAESIAESIAE4kqgufu7CI/QsWPHCy+88M033zSb6P79+7t06aK2Llu27Pzzz1dvm1bg/m7TuLEXCZAACZAACZAACZxoBJobfxe685FHHrngggsswHXu3BluDOrxtby8PAtjNpEACZAACZAACZAACZBADAnEwJ/hpz/9KQIyWM9Jb6Df67XuxVYSIAESIAESIAESSDYCixYtuvXWW4cMGZKfn4+NP3yijBrUJ9tUOR+ZQHP9GWxyLCwslPNQQPhu27ZN9Uaw2T3STB2B+SYi4bCGBEiABEiABEggHgT++c9/Tp069auvvjIbHJllp0yZgnP8ZgasbxECMdjfjTrvXbt2qUnXrr/+elWqRu1IAxIgARIgARIgARJIEgI///nPJ06caCF2MU+0wgaWSTJnTkMm0Fz/XTsc161bp5rddNNNajkmBWv1zN3fmEDmICRAAiRAAiRwghMYP378vHnzFAgZhaLHDaLDpaJooMgoEg3HxfFNonSxKH5VNJTDZvr06Yi+Onfu3BMcWvIsPxH7uy+88IK84Icffrhbt27Js3jOhARIgARIgARIgASiEsB+rSZ2oXQv/koMfFi0O1cSu7jwiTJqUI/WwAV77vLKKJLhM+7+u4g+NnLkSCy1a9euW7dujUkyYYxmva2rkuX+roqCBRIgARIgARIggSYQgM8uXBSUjv2niH73Rhlk65Niy1TZZvbs2fTljYIrIc3x1bter/fss8/+8ssvsZZ///vfY8eOjdWiVL1LRRsrpByHBEiABEiABEggkgBiLyg+u9i7Pf3pSAODmnV3Sb4NQuD42vr16w0MWJVYAvH1Z3jrrbdksfub3/wmhmI3sYj4NBIgARIgARIggROUAEKMKWLXXSAGPmSXAixhHzi+xiBldqHF0y6OenfPnj2/+MUvMPlRo0YhJ0U8V8GxSYAESIAESIAESCD2BBYsWKAM2uNGxVvXzkPg0Qv7wKWNYKcjbeJDIF56t66u7sorr0QYMgTcfeONN1wuV3zmz1FJgARIgARIgARIIF4EVq5cqQzd8ZLGPSNor43QuP60jiWBuOhd+NRiZ3fNmjUFBQWLFy9u1apVLKfMsUiABEiABEiABEggIQR27NihPKdoUOMeGLTXRmhcf1rHkkBc9O4DDzzw8ssvY5qffPJJnz59YjlfjkUCJEACJEACJEACiSJQWVmpPEoOPWb/uUF7bQT7fWkZawKx17vPP//8H//4R8zz448/PuOMM2I9YY5HAiRAAiRAAiRAAgkikJ+frzwJSSUadQXttREa1Z3GMSUQY707c+ZM+YwavLPPO++8mE6Vg5EACZAACZAACZBAdAIIiXDrrbcijhi0JgKY4hNl1DQhVAKOISnPO74x+oP1FkF7bQR9K8uJJRBLvfvaa6/J6YJnzZo1evRos4VMnTr14osvNmtlPQmQAAmQAAmQAAk0jQByQ0DaQoTMmDEDccSqqqowDj5RRg3q0Qob+4MPGzZMMS5ZYr+XZBm010ZoXH9ax5JAzPTu66+/fsMNUg69F1988dprrzWcI/7BPf7447///e9bt25taMBKEiABEiABEiABEmgaAeTvRSI0JVyuyRBohY39TL9jxoxRRiqeKYIuCiZj66phCfvApY2ga2cxwQRik18NPruyGwNmf88994StAVnWamtrS0tLP/roI0QoQ+vChQsRlDfMrFG3zK/WKFw0JgESIAESIIH0JjB+/Ph58+Ypa8woFMiF1uFSUTRQCpoL9Xl8kyhdLOU8ayiXbcaNGzd37lw7TLAlrGho5lezwyspbWKgdx977LHf/va39leHIGWHDx/OzMy03yXSkno3kglrSIAESIAESODEJID92unTpytrhypFerNgeIQQIBC+mx6QM/2iHh6906ZNCzEwuoH/A7aElZb+U0S/e42sdHVbnxRbpsr3s2fPnjBhgq6NxZYh0Fx/hgcffLBRYhervPnmm5spdlsGFZ9KAiRAAiRAAiSQfASgRzWxCz16+tPGYhczhwhGK2wCF3rZ8eWFYIUyVtYNIbvuLlPHBuhptAbFLnpR7CrcWvpXc/d3zz77bOSVaNQqVq9ejV6N6hJpzP3dSCasIQESIAESIIETkEBi/A1C/CXcBVK6YGRQQ1IJxV9io3RADT67HslvE5d9fwnZnp9xJdBcvRvXyVkMTr1rAYdNJEACJEACJHCCEECIMSUkFDToJRtMd3bDcGAjdslgWZvaP1MU4jURNmDorU1PidBOvIsjgeb6M8RxahyaBEiABEiABEiABCwJIN6/0o4NV0OfXcPusIR94NJGMLTUVcLZF/64p512mq4uvIhW2NhxCw7vyft4EuD+bjzpcmwSIAESIAESIIF4EtCcGUYsFO2GN+JRh1eI5VKuACjU9evXN6KjENhUhkpeuXLljh07kC4Y+SyQVAJxdhF6rJnhpxo1DRrbJ0C9a58VLUmABEiABEjAFgHqIVuYYmGEoE9QnFkO0e3CZd19R7vX72nvOeQTzipXbpUzrzLwU+4q2JrV97C7bcgD4dKwqAdqoFblYKkhrbxJLwLUu+n1PrkaEiABEiCBFiWA8/5II2qR8gC7iVOmTOGx/ea8JX9NjWftas8Xq7zF25bPfqt7hrO9y+GINuKm7P4Lii6bXzRqa1YfxXaekv3K7/dH68321CZAvZva74+zJwESIAESSB4CPM8Uv3fhr6mGwPWsXt6w+r+er74UnoYmP+vbrFPeaj1hetGVte/1wyDc320yyRTqSL2bQi+LUyUBEiABEkheAoxXFfN346+u8qz5X8Nnyz2r/uvZuE54PTF8xLfuzjfs/HZrva8J/rsxnAaHSgwB6t3EcOZTSIAESIAE0plAyM5urPN7pTM4o7X5Kysa/vNe/fvzGv77H39drZFJbOqqfP47D9V2+NHNDKcQG6BJPAr1bhK/HE6NBEiABEggFQgw32xM3pL/+LF6yNzFkLlLRUN9TMa0M8i+C8cOfv51Ed0B2M5gtElSAtS7SfpiOC0SIAESIIFUIaCFxMLOLtLV2rmQdbb4VRhaf5mOOA/z589ftWrV9u3bq6qq8vLyTjnllKFDh44dOzZt4l75j5XVf7hQ2s393yfN8cq1Q93MJuee+3Nuu9eslfVpQIB6Nw1eIpdAAiRAAiTQYgTilN8r7eM8+I8dxVauJHNX/Te2jrlN+aeQkVm0YLmr96lN6cs+qUCA+dVS4S1xjiRAAiRAAslKQMvOFbv8XvAGnjhxokVQM8BAK2xgmaxgTObl9TQsW1J5x/VHh/Wp+v0vG1Ysa3mxi5k21Ff9brJgVDKTl5YG1e40WAOXQAIkQAIkQAItRQBJtpRHd7ykcXOA/bZn0EUbIdA/JM5DRqGAj0SHS0XRQClZLlIkHN8kShdLvhAN5TCfPn16aWnp3LlzG/folrD2frO57l9v1s//p+9QaUs8P8ozPV+urnvr5azrbo5ix+bUJEB/htR8b5w1CZAACZBAchCQ83tJcxlVLElS+5dRfq/0i/MAv4W6Be/U/+sNKaBYPC9HqzZ7feLz/Qd3eXz1fpHnEHlOR77T0cHlODvblRE1HYUQzpM6FH28wZGVHc9pcuyWIUC92zLc+VQSIAESIIH0IOBQz/WPO9roFYXm90q2OA/NOS2HOGKeFcvq5syq/8/7cQm24HK5B53uPnuE+4yzXSf3cHbr6cjLB39Dv+dWTselee5ftsrsmxnFjTP/2dcyLx3X6PfIDklPgHo36V8RJ0gCJEACJJDEBGK4vxu/OA+N5WeoGvWDmGVF9u7a0fDJhw2ffogMEf7aGn2XGJTdGZLGHfq9DMjc7wyVBa7hsFDq8KuGo8iOHTsqKyuRQa1Xr17nnX3WnWXFbdZ/ZthFrsz84RX5f59pYcCmFCVAvZuiL47TJgESIAESSAoCmkgdsVC0G96IOR1eIZaPhr0ckixOcR4aMZ+gaYhPRbDS8Pett96KTA3wx/VuWNvw34/qP/nQt3unoWVzKl09e2dcPCZj2Pnu75zjyMltzlDYdS7/4VCIcrNBMH6rNTsd2TlmBqxPUQI8r5aiL47TJgESIAESSAoCw4YNUwIplCxpnN6FfeDCCPjdrDgPgXNvGKH5QXmtT8vlHPuyzcGFXQ68O8BZ0z/T2X/B67uXvZPvbYjHm3Cd0i/zsnGZl17uOnVQrMaHb27ug09V3DTebEB/TXXDpx9lXjzGzID1KUqAejdFXxynTQIkQAIkkBQExowZgyAJ0lSKZ4p+99g9sobDarAPXBgBv7UoDY2M89C6/fD2u58rcDoali+t/2CBv6pSVFf6Kyv91VX+qgrc+uvlXGV+Kd6W9COCBZQCZVQFmtatXXtVcfHVHQO7m7knOwr6Ohy7syueaX30WFtvWRvv0WxfILtvB3QLHuqKtdh19RsIjQul25xouNaex84uJ/v27ZHWbnQ1rPiYetcITGrX0Z8htd8fZ08CJEACJNDiBDSXhmbkV4vqB+z2e86q/nJIzYbODQc6eUo6NZR0bCjt3FCS5a9rcQLNn4Cr/2mZl12Os2KuXn2aM5odz+OZZ/TpvvwDs6fAM7hwtmmrWS/WJzkB6t0kf0GcHgmQAAmQQLITiElcBbM4Dw7hP6fq8yuO/3vc8YVtPWXJzqKR88NWa9b46zLHX+vq3quRXQ3MbXoeD812Lepi6gfsyC9ovXavUMNuGDyHValHgP4MqffOOGMSIAESIIGkIjBhwoSlS5cqXg1bpoqavWLgQ8aODXBj2PSAlC0icOG8F/rKZcQQQCQBqQybQBxfl997zbF3f3Xw2Z71u2SbtPnEsbDMS8ZmXvmjjKHfj5WytPY81ufpWF/n8yHarglNf2UFvB2cXbuZtLM6JQlwfzclXxsnTQIkQAIkkGwEQvSWu0AgvTA8cYsGSeIVEvb4RoEDavDZ9VTIMx83bpw+L5rmFBGI8zC6/P3flzzRp257si2zWfNxONzfPTfriusyfzjeIppYEx4RsrMLr5Jof2+s6ZbXK8NM8Yr86W9nXvDDJkyDXZKWAPd3k/bVcGIkQAIkQAKpRADiVVNdELWImRAIm2C4BjmSl75JjfNwRsmbTxx//Mzq+GYj0z86AWXJb+GKH0HpOk/uEfPHwZ9E2VzH0P2niH73mj4Cf3uc/rTI6brp6F8s9K6vOL3+zDDFcQI1mP5xcwIx4FJJgARIgARIIBYEEIx29uzZiKdrMRhaYQPLMBtEachyiD+0yVriX5g2YhcxFrJvnlw4671WH2/M+eXvmiZ2EWwBf0hg/xtH+uDljE+UUYN6meHUqVMVmNjZtRC7KvF+936dO1i9iyz4DuyNrGRNShOgP0NKvz5OngRIgARIIBkJQIpF5vfCDi5ErVmIXM+GtV9deVEPnxw7LBkXZXNOcFTIOPf8jPMuyvj+Rc7OXW32MjSzE2zhsssue/zxx6Xu8CG5ZIOx23TE6D86PPPvB+6PqFYqEBAt/9nXzVpZn4oEqHdT8a1xziRAAiRAAmlEwOerefbxmueeEF5viq5qj8e3pd63oc73SY3nd2/P+eHYsc1fiOYcYnOs3pPFoIdt2v6g8tN3d04yM3YP+U7hv5aZtbI+FQnQfzcV3xrnTAIkQAIkkCYE/MePVd59c8MnH6bEejwO9zFXUZmrdUlGh61Zfbdk99tcW//153dX+Pwiq52oO4xVzH/vvebr3cYe/pPoNSZPx/6MThbAfQf2W7SyKRUJUO+m4lvjnEmABEiABNKBgHfrporbrvPt3tmcxXgczszOXZxtT3LkFThy80R+viM3H04FKCOUrFSTnRMI7uuQIn9JPyJYQClQFo7pM2Ys+eADKfNap1H+bj8KzMfhdzj8wuERruOuwjJ36zJXm3JXAWpCZrvxfgGxi6v1d0XJYvzWEsWF2DXiBju78+bNUzpEBlvAmbN2w6UfZLPTBXcTu2fZz+ccRe8eLhVerJsaqRFvLclN+S6T/AVxeiRAAiRAAulJoH7hu1W/vd1fU9Oo5R33+RdUer6s8x7w+Eu8vouu+/GTL73S/BC2vbzuRXPfk2ZSvFT0+5tNL1gpzlowK7I4eYKsd3fs2NGoFYUZNyHYgkDMY1zQux0uFF3Ghw1oeFvhzMdPgS8Q8DjSwufzlZY00/k4clTWtCABxmdoQfh8NAmQAAmQwAlJwOut/tPvKu/6SaPE7ld1vhtKak4trvzlodpXyxtKeg+Y8tpbT748s/liF+8Ap+iUsBKIpIZNU5sXLOVwwoUDVaGpZM2wOUKEWROCLQjsAcvX1qcixjOt2J/RwbRNCN/+PRatbEo5AtS7KffKOGESIAESIIEUJuA/VlZxw+W1Lz9rfw37nBmTj/tH7q362JF96uDTELt34cKF69evV3Oz2R/KwnLKlClKK9K/bX3SwlJpgk0wUZzkWoC93sCFRHHR+5pYIK7FV199JTUi2AJyRti8YAl7XOWbRMkHNjvtE3kWlt5dzdqlthiZTS1CgP4MLYKdDyUBEiABEjgRCfhK91dcf7l3+1a7i3dn5Nx+3+Db7nnTnfGm3T5NtGtyVmQpkxy8CA6vkB/cq1evJs5ACARxU/pizEBSZVtDwRL2cnaPkvdFx4vt9NpZZxX6zbdzm51BaJMqBKh3U+VNcZ4kQAIkQAKpTQBbhhXXj/Hts/tFuav/afl/nuY6dVDClo0sGEuWLCkuLpaeiL3bvXOiZkUWnUaJ0/8q2SNbcuBCmGG50IRP7axbWLAFDI7DcGVrRHWx8FQJd57I7SHanCU6XqqEZYC9rHdhY+dqOL697GvRxtTUyxRrpmxSsoF6NyVfGydNAiRAAiSQWgS8X2+suHGc7/BBW9N2OnN+cV/OHf8n3Bm27GNn9Oyzz44ePVoZL1pWZEkNy2JXd3ANOTWaPB3trFtRUOXvmyvglQtHBf0FyYsa/BTPFHAdhjdF+5FKOwSxnWvTAzvqcFIwx8zWW8z9XTM2KVlPvZuSr42TJgESIAESSCECnrWfVdxyFULt2pmzo7Ao/y8vZZxv60t5OwM2ykY+uKY40Vr0lFWmGgwheHANh97MEshZDKY2aWfdZGeGdb/S4j+oRmEFqN41P5GUt3xBCke9Ap7H2zKsjjD5dm0XfsReCw2+FnVkGiQrAerdZH0znBcJkAAJkEBaEGhYvqzytmv9NdV2VuPqOyD/+Vmu7k13gbXzFGsbHFybOHGiYtPqDIEUx+FeBJeF+MjqDq5ph96sn2HSirNuiuTFhvGXt4sDixTDjEIpCEOHS0XRQMmvF63HN4nSxZLTRUO5ZIONXvVad5d01s3Q/RcdgyF7kRPO63C6/D61n76A0Bm+gwecHTrrK1lOXQLMJ5y6744zJwESIAESSHYC9UvmI+6YaLA6GqWuIXPUlXmPPefIyVVrWqoQkss3MuODOi2dfEQdAkfAA1htbEJhyJAhytYyHHMD2SukQWxPQHsiwjVgxxdOvfCLUPTxRsnDGLJYDqAmxLhx42ZW7vKan0sreGNhxtDva2OylMoEqHdT+e1x7iRAAiRAAklMoO7dN6qmTBZeb/Q5uly59z2Ufcud0S0TZdHYjL6Qj3Pnzm3m7EJ0tjxW/ymi371RhsUGs5xyIoqd1ixL84qfXt2wTDlmp7UFS7m/eSSp3khwXvzdFAJWzitNGY99SIAESIAESIAEhKh95R9In2ZH7CLlb8HLc5JNWkG8QhQqb1I+uLZ8tFjUQ8xrLX2ijHgIwb1SWDZf7OJZ4WfdsLMbVeyiG2xgGbjat2+vJM6Q7yM+0Tp79mx5H9rVo3dEu1bRsOpT7YalFCfA/d0Uf4GcPgmQAAmQQPIRqPnHn2v+8kc783K0al3w8lz3aWfaMU68DbL7IuGZxfE1yEf47MYw80XPnj2VgGjwSbhkg7EbbiQIeFYsGSzrbyTjQDtC+SK6GQI+wCEYbsGICoxAadDT+uN09QverfzVTyIHk2sc+QWtv9gtXC4zA9anEAHq3RR6WZwqCZAACZBAChConfl89SO/tjNRZ/tOBa/Oc/Xpb8e4BW2Q9syOfIzJDC+66KKPPvpIGqr3ZDHo4UaMufF+OQSvfTdinEg7dm4/i0cUzvk4af8UsZg2myIJMD5DJBPWkAAJkAAJkEATCcBnt3rqb+x0dp7co/D1Bc6u3e0Yt6wN9kT126JxnczBg8EQxWEpJ6I+NZhyQktaEa0L/t5w9extcWTNs/IT6t1oFFOjnf67qfGeOEsSIAESIIHkJ1D//lzpgBritka7sKdbOPuDlBC70ZYS43aDlBM2nxBMUaGNYKOj+5zvWVjVzf+nRSubUogA9W4KvSxOlQRIgARIIHkJNHzyYeWvbrFzQM095DuFby12tu+YvItpuZmFp5ywP5NgwF1tBBt9M4Za6V3v1k2edfYSFNt4Fk1akAD1bgvC56NJgARIgATShIBnzYrK2ycJT0PU9WQMO6/g9YU4phbV8sQ0wNkyZeE4gtaoK2ivjWCju7S/a5lEre7tV2wMQ5NkJ0C9m+xviPMjARIgARJIcgKeDWsrbrnaX1sTdZ6ZF44qeOldBCCLannCGiCQgrL24xsbByFor41go7/zpA4ZZ4+wMKxf9C9/ZYWFAZtSggD1bkq8Jk6SBEiABEggSQl4v91ScdN4f1Vl1Plljrkq/7nXRWZWVMsT2QBRw5TlIx1ao66gvTaCve5Z19xkYYjEwnWzXrIwYFNKEKDeTYnXxEmSAAmQAAkkIwHfnuKKGy73HyuLOrnMC36Y/+QM4WJYpCiotJQTyP0bdFGI0gfNsIR94NJGkO+jfWZeMsbRqo2FVc2zj/tK9lkYsCn5CVDvJv874gxJgARIgASSkYCvdH/5j0f7DpZEnVzGuefnP/MqxW5UUDBA4DMlQRqSt216wE4XyQaWgWRv6Nvo0GmZWVlXXGfxIH911VvfPXXIkCGI7ItQxBaWbEpaAtS7SftqODESIAESIIHkJeAvO1xx/Vjf3t1Rp+g+/az86W/TjSEqKNUACduUcvGrYuuTar1pATawDFxaX1Nrg4asiTca1OqqLst2dNi2ecaMGaNHj4bwRdo5XSOLKUCAejcFXhKnSAIkQAIkkFQE/BXl5TeO927/JuqsXP0HF7w8x5GTG9WSBioBZCfGTqpyu2WqWHeXqWMD3BjQCpvAhV5Ny2zsOqUv4maoEzAsPN4uK9/pQBOyK0+cOPHnP/+5oRkrk5MA8wkn53vhrEiABEiABJKUAA4wVdx4ueeLVVHnh9xdBW8vcbY9KaolDSIJjB8/ft68eUq9u0D0uFEggxqSSiDOLmQuojHggBp8dgNuDDAbN27c3LlzI8exWeNZ//nxK0dKetb8WubofM2uA56GctmkmU80fw5bYk+Aejf2TDkiCZAACZBA2hJoqK/46YSG5UujLtDZuauUQa1T16iWNDAjgD3U6dOnm7Xq67GzO23aNH1NY8t4Vr85r95QmGHd8a2iy+8oc6nuE81/rvXj2BorAvRniBVJjkMCJEACJJDuBHy+yl/eZEvsntSh4LUFFLvN/AcBCTt79mzl+JrJWGiFTTPFLvxxIawfPlJ32BslF/S1x//9607dRX/Fwxi96Mtr8maSq5r7u8n1PjgbEiABEiCBpCVQ/civa2c+H3V6jqJWhbPed/UbGNWSBjYJICrCggULVq5cuWPHDqQLRgY1JJVAnF2EHmt0NAajR+IIGrxy0XJNz/Ofc35hZBJSN7nrk7N2/U/e5YXgXr9+fUgzb5KPAPVu8r0TzogESIAESCD5CCDpQNX9v4o6L+ROQ7pg95DvRLWkQZIQgJhG1AVpMvASvmTDgj23nFu12npuHof7mq7PLVt+q+w9vHDhwpjIbuuHsrU5BOjP0Bx67EsCJEACJHBCEIAPQ9VD90VdqiMrO3/GbIrdqKCSygA7x8p8cCQuo+hXXR6rdkaJp+H2e2buu2dwj7FyR22EpFoYJ6MjQL2rg8EiCZAACZAACUQQ8G7fWjn5euH1RLSEVrgz8p95LWPo90NreRcDAtiCxckweB3Ak8HhcOAzhtkf4CahTBHxH4TYlnXKT09+xutwWc8731c5y7m8jUuK6KCNYN2HrS1HgP4MLceeTyYBEiABEkh6Av6jR45f8QPkDY4yU6cz/y8vZo6+KopZsBkCbv78+atWrdq+fXtVVVVeXt4pp5wydOjQsWPHyt+MRzUIjpTmv3EabOrUqbJzreFS4T6LHBNNC7srD1hQUACfYKk8qlgKdha4bj7y2hP7fy+XLT6XVHuuO1ADCT548GD967PowqYWIUC92yLY+VASIAESIIFUIFBfV/7jMXZC7eZN/XvUHF3ygqMKuG7dusFy9+7dZoBUhZf2mjgx8cigVhXU447qmT9Q8uidh6IfT/z9kbrnj9WrHdW3o9awkAwEqHeT4S1wDiRAAiRAAslIoPKen9b/e3bUmeXe91D2rdGPsmEc+wIu6kPbtm175MgRM7M0UF0h+SYyCkWPG0SHS0XRwGC+iU2idLEUIaHZ2R8M93cB1iH8M/ZMvuLYfDPIcn29X1y2r3pdnVdvxri8ehrJUKbeTYa3wDmQAAmQAAkkHYGaZx+veVpJVGsxuayrr8979FkLA7UpuoBbN1lU7lDsbSg8dWSzQuqqrpA/DKB0Bz6kehqELBaJ1jY90MzsD2owMjFioWg3XD9+lr/+nZ2ThldFyaW3M+Pk89s+XHnwk5job/0EWI4VAerdWJHkOCRAAiRAAulDoP69OUgtIfxRsg/gdFrBzLnCHSUpF7hEF3DrfiVlx5UvC4W3aqIo+UAxs6GJUzHnLVw+Jk6cqKwRmR363auUzX5tfVJsUf4yQe6Jxvryaq+m92Qx6OGwh7TyHn9/+/i+ddvC6sNu/9Xq8p+d/IyU6LjZ+jtsZN7GhAD1bkwwchASIAESIIH0IeBZ/3nFdT/019VaL8nVs3fhu0uRXcLaDK3RBdy+uWLNT5RxLBSeTU2c4qpL23CF7j/96ah4JYN1dzU5+wPcoPXxdyM3kk/e89LSIw/KoRgsJvPLrk+80foayaB5+tviEWxqMgHq3SajY0cSIAESIIE0JODbv7f8ivN9hw9ar83RqjXErqvHKdZmcmt0Abd0hCjfJBlbKDybmlidUGqqrqjqU11fSAESf8ngJmd/iPKClo64xLN1VqeckCdG3FQ684f2XXogo6PU0gz9HTEwK2JAgPF3YwCRQ5AACZAACaQHAX9VZcVPr44qduHAkP/cGzbFLgScEk4L6bvghxp5lSxRxK6Zgdxl61NKV2jiqF/xwxQ2sAxcCOml9E36X1ruhkD2B7vzRRwx2AcubQS7nQUimim2OACHvxP0V+DtIO7Y8+X6WoMyIvI+euBBpQEvGm9TCLx6/AMwsGZVYglQ7yaWN59GAiRAAiSQtAS83spf3ujdGthntZxk3iN/yzjne5YmWqMmv8wEXMlixdrMAM02NbH22EApBVWXlrshkP0hbEFWt0F7bQQr65A2uPzibJ9SBVdg7M5iw1i+gm/n4aLr1+cMDukWcTPm+HsXVSyVqpunvyMGZkVzCVDvNpcg+5MACZAACaQHgeo//bbh4+BRMPMlIfRY1lWTzNvDWzT5FRRk4RZla5QaMwM0B1WXtIsZzIkQPk7kfQqqrh07ghEqigZFLsiqJmivjWBlHd42bdo0nO1TarHLC++IjfeLwytEmRKcob7jZTd3+wecFsJ7ht4/vv8P2b6A53fwbWr/AEIteZdIAtS7iaTNZ5EACZAACSQpgbo3X6h9dVrUyWVePCb33gejmukNNPkVFGT6VqlcXazUmBmg2Y4mVkYJ/WWpuvBVu3We3qgGoQ+LwZ2S6gwj2Zf18mOD9toIJtMxW9Qtt9yi7fJ6KsS2Z8Ty0aL8a2WYokE7M7vf3eVRk1GV6u71e+7e+SuBk4VfKWElNmzYAP9gjEzHBmt0cW3lebW44uXgJEACJEACKUCgYfnSipuvFN6QlAGR83YPOr3grSWOnCjnlsI6mqXv0szmtVbKofm9NAOUFnYVniqpRpfzNsTA7Abfyy/qgcb8/PyKigrVKmnTvJllf1BnblowWanePuqqkadj5MiRS5cuNchgHHw7z+6959qj7+iHDStX+/xn7K467DUIZpcGeUDCFpsqt9S7qfKmOE8SIAESIIG4EPBu+7r86gv9FVGOIzk7dC6cu8zZvlNjJxFdwNnRsnY0sdnMgn39wXDCWsRZsy6262Oe5k0LlRCR/SHKpOB7gO1YIaAp169fH2lsf9XYix0zZgwcr+GKgN1ZhVvwL43W3mOrvzm/racs8hFqzbTj9VMO16m3YQWMD/eJsErexpWAO66jc3ASIAESIAESSGYC/mNlFbdcHVXsOnJyC16Y3QSxi7X36tVL2Sw8vjEsfZdCJreHEp/BzAB27jxlfxe7mMEv7m2BhX3gwv6uXIhtmjeLnMZ4HBaOzBHYLrUv74YNG6bgwhG90Gxn8vxNP2EfuDBCpE30VeuyE0+fPr20tHTu3LkYR9Pfwbdz1NXq/o6/f27v3ZFPUWtuKsp5ps9LJW1GSC8Lr+B4SPZj/fhqFxbiSoD+u3HFy8FJgARIgASSmIDXUzn5Bt/eXVGm6HTm/fUl14AhUcxMmjX5FRRk4YZtzlJqzAzQDE0sX1BdjbqC9pDd6Ic9znnz5ikDIFrZxV+JgQ+LducqGhribO87Wk5jQwMYo0vbodoskOatz2QxYpHka4Ev/fGJMmpQH7gg7yA3NXvLEjZWlXZkmwuKdcsegUZYBrPTaSMEu0Vftbwo0AhGcAMl9MIAhq/v7dZXrcjTEQg+SP2dJbx3e1dqVM3HV7uwEFcC1LtxxcvBSYAESIAEkpdA9aNTGlZ+EnV+uf/3cOaFo6KamRlo8stMwHW8TOlrZoBmO5rYcAZBDQ3dBu9VSE/FClnckLosbKsYKS2CqlEYGsidcRhLzWlsoYmN5KPhHPWVo0aNgkOCVIMTY8jNa/OCJewDzgwYQd8p+qpVa9AAEyw8cIEV+pq9vvu6TPU6XGrXyMKPy946yXM4pN5o/BAD3sSNAPVu3NByYBIgARIggSQmUDfv7dqZz0edYNaEG7JvuTOqmYVBdAHX8WJROFAawULh2dHEkZMI3fXUsk5ApBpmrLCT0sKmJsZkmirvrLI/RK4RNcgQgQhigUvrG7SMvuqgpfI7NE+H2evbmtXnnVZWm9aZ/gZI3rCxpdvQ8Q0MWBUHAtS7cYDKIUmABEiABJKbgGfD2uop0VVsxrDz8h7+S9OWog96pR32hyz7QvqWPPzqd49SE5nfS26wo4nDBxXS/mhw1xONyjTMsrhhJ1jOaWxmII9vRxPrZ9J4eWeV/UE/MsoQ9MgNgQwRgQvnwNBXb4K3EGXVemu1HJqnQ9PQoW/nz+3v8ggrHXVD2Syn8KmjaoXQ8bV6luJGwOo9xe2hHJgESIAESIAEWoyA78ihytuu89fVWs/A1bN3/rOvI3WwaqaXsIgyhhNghnFV8SU46kePHj1jxgyIraqqQBwxdZQ9s8V7vcTuWWqFVOgyXk2HK6k3fX4v1S6qJlYt5ULormdqpXkzzf4ge/TiE9EYkA8CWSGCO7vIFhF5Ki76qsOgybfYmUZej8CFEcz0d3Fmt1n+7rKZ4WfXhn0XlwfSrYU1h44f1sjbeBCg3o0HVY5JAiRAAiSQrAQ8DZV3/NhXss96fo5WrfNffNdR1Eo2M5SwELKQsxC1kLYQuLCBMQ45ISKBsqdo9oz6o+LL28Wy70miTRVwXa8Seb2UHtBwan4v1SCrvVATUphpYrk/ukTsempZvoIZKMJnZyelRQLTvCE8AvZrlUlil1rO/oBYwgivhk+EHkNNYPcaNrCUwymELSr6qsM6qLdBSvIIZvr7qbIa66DNN5W9rg4ZUggdP6SJN3EgwPi7cYDKIUmABEiABJKVQNUDd9e9+WKU2blcBa/MzTj3fNkMElY75mXZs0ePHsXFxYoJohPATbbDpaJooOTJCg0aGpTKciR7jXA8wDYklBN0sPKIjQJuCThzFhSC2PWUhWBswgAvHaH4PMQ6OK7ZgvFXBBxwLf5+sM7gEH3VkQ8GQMh6pBEOZFbDRv7gwYOHDh06duxY7PVG/kt4vWPOD/NMo7viTFv/U7844m4T/hz8ezDKAxJuxvsYEaDejRFIDkMCJEACJJD0BOreea3qt3dEnWbu7/6U/RPFrFFxW7WRoXThowkNGnlB6MCtNvgtfGR79+7SV+S7dplGSbNO8aAfUJ/XIDnTvOlna1GGJwm0JrZakZwZ6YLhSYLwaog4geAJYdEYwgbRVo0/DLCBXV0shTFGMGPEd0PIi46XSn8tqBeO4sE7WXZiVit1BWjryOxrP8h1v9vJKuXe5K5Pzmod4lWsDBmRB0T3KBZjTIB6N8ZAORwJkAAJkEByEvB+u6V83HlR3XYzL5+Y/9QL8hJCdnbtS9jWZ4rz/hMFApxrg6esYBkp4KwVXhN2PaPvdCY8zVsURLFozsnJqa21dNRGZAw4RsN/GkHWsC9u48JfEdDZsv5G9jXh96/pltczw9RB9P3Ciyd1j/hKgfu7NlDH0IR6N4YwORQJkAAJkECyEqivO37FD7xfR0nW4B44pGD2B45sabsOmhKeuMp6EJPVMICXfrl6CXvWy5KEsr7gYhvY5TXLf2vdG63Wmjisu5YnzMwVwY6vgh1NHPZg+bYl5F3InyuGs1Irc7uJ6t3KnQ1HFNVLRKZ6V+vMP7TJUgcLK9Q4c3r3X1/rzA6pj5b9OMSYN80mYPrnSLNH5gAkQAIkQAIkkCwEqp98KKrYdbRplz/tLVnsYt7NidsqfS0e9Wp2UCp8lY9zVOvXr6+oqPD7/fhEGTWGX/Eb5gkLmaOdlBZwA5CvYNq2kBEsboL2cpo3C8NYNcERRfO1haNzb2SAW6jLALdQqkG9fKliF7v4kTnnzLOjyVQXVXospp3jqzm/cnm4gS4PSHgT7+NAgHo3DlA5JAmQAAmQQDIRaPjfx7WvPBdlRi53wXOvOzt1lc2wdaqckbIORhs2aFDCSj6gagayMBv1NrFBqczyhKnTEXZSWtjRxNqIulJi5R12dkPSJl+yQQxC2uThikc1yKOMGtRD4KoXHFEic86prehlkn3t2wbf9gbVzqAwrGp1SC12u4O+E9p7CbHgTYwJUO/GGCiHIwESIAESSCoC/vLjVff9HE6W1rPK/cNj7rOGqzbwzlTKOOdkeOxMNdUXdBJWlLyvbzEuBw9LaWGzjO1iUGuWJ0wb2k5KCzuaWBsxWEqsvIMjiraza5EVGbMLlbDi6JcCR9asr9D0GSrV96rqLfqdWbMupFWXB8RwMz7EmDexIEC9GwuKHIMESIAESCBZCdQ8/YivdL/17LKu/nH2pJ/pbTQBGpSk+larsmqvhrO1sA7G00XYAQur5jRhoxrnq+BmiiNxWlQv+A23UJq3BMi7BDuiyNnX/lNt5dJwes0Glz8YqDc0D0hzXi772idAvWufFS1JgARIgARSjID3m8210aLtuvr0z30w3N1WE6BBSRp95XBgwBn/r+5TLMs3C5wAQ03wq3yDEYI7x4ixZdBqUgUJi+/rIWERcgHxtvCJMmpQr++BbU7UJ1uaN/0M41FOvCOKnH1tbZ3PKHGwssRcX3Xfum1Rsx/HAwjHlAkwPgP/JZAACZAACaQtgYpJoxtWfWq1vIzMojnLXP0Hh9locVvHHQ1rMriNFrdVqEGvwjo3MmqB/TBkjQhNAEE/+LGQjBVr7xRVwf1muC9HprTY8BsRPH8m+b/aizSsDwYchiGGt9rCcRwNHrr2L2QnRsI2XFjv6X+N0i8iugKOx/3fFx/2yzTdRrzDMeKt4uWReUCiPIjNMSJAvRsjkByGBEiABEggyQjUvz+3crLuNJLR9HJ/80j2LXdGtkSPVqv2sR231UBIRcgmddTIgqbkIttCa5I5zVvoTGN/hy1txW3DLOya2TOD70L642RkRDiFsF5Gf6h89P3Tz9wf/DshzF6Ip47W/6msTq5OjPSPmMIJXWGaAa/5VLZu3frEE08sX7581apVrVu3bv6AHIEESIAESIAE7BLw+WqefMjaOGPYedk3Tza0QdgsRTZhIxNn+c2u1ZPEgaAXgeFWKJwZ1Oy+KNQdEue8oQ0WdHXQgoVpbSGlkDRvDqdwuISvQbhyRV5P0WqIyO8j6svUB2k5jSM3X+FBgeha+Ol7T8zSvCF3MXZG5c3RkFkrN4mUd01yRAkmEJbni9gacESJzL6mX5qRI8qIm35WPfU3eit9uYvbgVvr7Md6e5ZjSyAuenfjxo2PPvrorFmz5LlGSW0S2wVxNBIgARIgARIQov6DBd5dppttIIQ4u3mPPicckgqJvCBAFb0LSWqmd7Gzq4pdY2U5XOqL9F1qAmHYo5f8dbntqAXY2dWia2Gufp/0g8tbLQU+k/PfYlfytMdE2WdapmI5ulbk2uQaOTRBTtcEp3kzm06s6jVP6KAktRrZzBFFpoq/TywcUQLj4hSgOr6zsxLMTq3RF87u1nXhy08n4Lie/qEsqwRi7M+wdu1aKN133nlHfQAK+/fv79Spk76m+WXVswoRtps/GkcgARIgARJIMwLlV1/oWfuZxaJy7vwtfswMcOwJJ72kVuzaIkprpHiCVFrzE6V707KvBfOrYRCLHdCQNG/K88x/wfc0p4smYZMvzZv51GPT0oKOKJ6vviy/4nZLEZwAAEAASURBVHyzZbi69yr6T2hUMjNT1seBQCz17m233Ya0LpGTpN6NZMIaEiABEiCB+BHwfLm6fMJFFuM7u5xctORzNZWaoaXmCYq9WyQaCLvU7LuGrWHG8q0qcLFr2GWcpkoDrWqK2rCuRUVF5eXlSqWNVLei0yiR1U7Z5bXpirpksHyOauHCham+Aam9NWv/Xb0jik2qekeU4OE2/R8qvkOlx4b1CXt96i3+sbXeWKrespBgAqYHCZswjwsuuOD1118vKSl57bXXmtCdXUiABEiABEggJgRq33zBepzc3061FrvoLsdVlcZBtFrETNVfcHKQvQiw+4voBDYvffa1LVOVTgV95QI8FuC3EDbSZZddpoldCGsbqW4lFwu49mJiuDDJJEvzFrbAmN9qntBB32iDR4Q5otikil7yZeKI4mzX3uBZwSp/bU3UpCdBW/6OPYFY6t2rrrpq0qRJHTp0wCe+UIj9ZDkiCZAACZAACUQl4PU0LF1sYeU6pV/mJZdbGMhNclxVxQzyFLuzEDryVRIcv8nZ1+RxsBd7wWoBd4jAhaxg8F6Qy/hEefHi4IMalSds9yzN5zjJ0rypq4tTQUvPC+9b9X3pHwZHFDTJV6Ooohf64jLLjgZfcHeGMrLhL0+DYTUrE0AglnpXnS6ca3v27KneskACJEACJEAC8SMQln/hovat/RVBBwCjp96z9ushp5+OzdSwBA2RtnDSg5uBUo9dXnzvjy+yEbiqbJVSqWZTi+xsWKO3h1aWvyIPTVGr9mtWnrCKrco4yZHmTV1UvAvwx0AMBOkpiBoBYRp5bX1KqcN+OchHvXRvR6CvZXY0R4aV3vV7rHKwRZ0IDZpDIJb+u/p5jBgxYsWKFXIN/Xf1ZFgmARIgARKIFQHD/AsPt826vVWm2SMOef1DdlXWBY86q/GhoH3nz5+PAJrbt2+vqqrKy8s75ZRThg4dOnbs2AULFmDn1XjAUcUGR9kMTfH1OnaFIZTLv1ba4VyrBr3CTmSoE230A3OGT9GNo7XrH6TVhpbmKWFD0+AUeMgJv7CjhHgLq66RVm52DDGUinJnRFXvuat2Onrmyf7y4JcAam2w0PqL3Y6iVsE7/k4ogbjs72IFGZZ/4iR0iXwYCZAACZBAOhLABu3EiROVqGG6BX4vx6W7Cy/Or/SoYhdt6I5B2rVrF5Z3F5IXTTNmzED9ypUr77rrLmXXMGy8yLgNYQa4xZfgONwGmYUvxFWxi3o416IG9Wg9uFTKRhG4IK/xW/6UKprpMoER9A+Sv5GXxtVdwe/99dG1dM0pVkyAIwp2/Q0P6JuFt1MI+rwphjKNphsvvet0xmvkNILPpZAACZAACTSRAPIvaHuu2KtD8licx8du67ijp+RYHSD5YMgsyQzG6CIf6hLiyJEjFvOA8H366adxEArhC9q2bRtiGVSKIZX6GxxyQtgy+XCbvl5fRitsKrfJdZDXKMifUo3eBUK2sP60sJcfpJ67UscJJgdGlg21LqULcXVEwc7u3LkBR94wRtgbr6wIqwu5zc0LueVNAgnEJd8E5u9yWf15ncAF8lEkQAIkQALpRiAk/wK8MBH3ILjPWuQtz/NVmy3Y63D9N/9c4ciSjnPhp3KrFr4gWlAqyOvS0tK6urqQwe1nX4s2vggeLJMzhDUlT5g8s6JBygyRfW3MPunM1vFNonSxFGWiIeDWjE3lpqZ5k0e28P1InnBmkKT4d6L8URSZAU6lFPI6jW5UR5RgI/4UgeSFo0vYYv1VlcJruoPryMrGT3AM/k40gXj571588cUffvihvBr67yb6rfJ5JEACJJC+BKy8M4UYUPv1f7+92Gz1+zI6n3Zq8KgZtjmh/OQrVDSHdIdeVLOjhTQEbrBJPOjhyGqpphnjY6NQTask+TPgzFl1sfBUCXeeyO2hef0aP1iIoDMudrs1k7CFYFg1zVuo67DWJaJk6DCtt1L9ofWVLVg2nbCejNn84PuBA2rme/Nhi/Xt23PsvIFmgznbd2z1v2/MWlkfbwL0Oog3YY5PAiRAAiQQSwLWUQvyfVUWDzvsDnojQMqoYrdRQanCRscghi4NzRg/O1vaBZQ/pafhEZBcELu48IkyamSvX0tnXEkc6y9sgSNrBhYrXxhE7h6MroVqzWlY3zFYNnOYDrZLv2V/aFjqK1uwDF/e9evXwxEFO7KQp9pfEYZvTT9RG44oYYv1HSvTDxBWdhTypFoYkoTexsufIWGL0P7tGj0yDc6ZGi2LdSRAAiRwghLAN+kQGdLi4XprlOihsmy9BZo2nqAiaUJQqpq9StIy+QF5PUXVTiXoVWT2teaND71YW1trsRCpSXbGPfSpsk2rWgedcaWd4MgL0bXUhWCSldv1i5J9NgydU+EwjYwYynjRfDMsxomcUQJq4Hgg+x5o2ddi54iiLta3Z6fFWhyt21i0sineBLi/G2/CHJ8ESIAESCBmBLQNSJOoBSWHv7B4WJeGA50aSgQ8MuUvqU1Es/EIanY0ubmgn2IW6+xrULqK1ykeAGXZB0fxFslH8QIn7RZJNaiXL2zTIjWu/sLq5AvBzgwvdSGAYC/NG/S3JnbtpXkzTBdnOJ1EVsYp+5q8WO9O5cSh4YpcXbsb1rMyMQSodxPDmU8hARIgARKIAYGoUQvKytbXBmPrRj7PKXy/OPyCFAdXvkxEc2RHqQb+ALBXL2Sd6Hadchen7Gv2lKWUQFgNuYCv6aGA5avjpUoh7FfYQtAaLc2bpr8b4/uBXnCfDXt4y97GL/saFrtj6UcWq3P27G3RyqZ4E0h5vQuPBYsr3vg4PgmQAAmQQCIJRI9aUF28rs70jDym+vPDL/2w6lNlzhahuwxXpbfHkX9nhqQU5Ssm2dfcudpjG6MsJY0b5oyLHBP62WrjBkr6Joj4uKV505ytwybQQrfwalDiKMch+9rR9VbfLbiod1vopcuPTXm926L0+HASIAESIIGEEqisrFSeFwxAFv54T9V7VZ7wSt09tnhfKTx0a1Gm9P+f/aBU8ghh9tC4rU7XNn3loFfLR2tJJcLsddMwLu7/t1KPnd3mpboV/e4xfITb78nx1RQW9GjrcrRzObJcWSHuv0FXBzhJw1UaI0R1mDZ8iuRaHYhtrI5jbNYStVOmqCf2XpWSA+uvZji6ZDhET6+Vy7WrZx/9o1hOMIGUP6+WYF58HAmQAAmQQAsSQAIwRfLii3tDyevO+1dl9YNtsyy2c/A/35/aZY3Ldz9Sv3lFxrBGLCfyifBkgDY98zmx7R+KT7B+uEh7fWtYWRJbX0t1jfUq3jtHOjZXvslZvqlNQMW263LZSfnudkdeOclzpK3nCD7beQ6f5JU+C73BhAg98uXnH9s8uNTd/mDGSSXuDgfdJ5X2OOtgyX/3eHxL5s3FbmhUh+mwRSi3WDi2jbc9g1uMIJ8VM7SMGso3qoHhsBaViNiwdOlSxUMDrw+n96DO5TfVDEeX0/f+I8fhMH0usnD1OMW0lQ3xJ8D4u/FnzCeQAAmQAAnEiIB2vh4J0pAwIvJCbt7yTa91zBmVZ2tD54vcM2a1nvBe4cWQepGDhddAZC/qgUrI7gsvvFA7wgWFCnmX2UZUfiuOrdeELxK52Ze8arxei5i+QrTxHu3YUCr9eEpx9k76PPJJx7qdHV3O9m6HK3zGTb/3Ii3HoCH/3Lrjvb2lq2u9+4cuMAZu9gT4N2OrWwj4DyAiWKSVaWTcoGm3bt1Q3L17d7Ai/Lca/rYJmjgk3IT8+uDj8dW9yp8cZv+6wqcQvD+84s6NVzzQNit4H/7b1W9g0SIpbR6vliJAvdtS5PlcEiABEiCBRhNAoABlZ85MFAZUY79M58cnF2QKn80H+IVjTe6Zi4ou/V/uOVuz+1Q5QyPXqqOEajhtMqpBWKFRsimg1DFA/vB3Ohb2DMhZRdGqAheFLH992EMSc7s3o9PqvLNX5353acH5OzNthBrQ/W1QURHcVA7ONTq6oGXU38jwbJEOGkFLccgHu6sYx+fzIapx3759hw4diuxo2HhW/i1FPqNRf6ige8Pxt77sf3Gu6Z9YWT/6ad5DT0U+hzUJI0C9mzDUfBAJkAAJkEBzCWAnb/RoaddQ+tL/kg0Gu6clH4hVE9F+V9uCPzQpwD+0757MLluz+m7J7vd1Vl/I3wMZHY+5iuqQhXjj/fJ39EheMG3aNDwlyiZlqCiH7yzSYeT7KvO9gU9fVSvvcXmnFp+dSuZ0dPk7uRx5TvOvxaWVt/z1v7xzXm9z7fzCH9Y6pdQYplcwzRsUp94mZG/VMJTvusmicofSxdBAnx5ZP3RjytgeHjlyJHwblIjO+r52sq/p7OEUvm199yLzF5f/t1cyR12p68FioglQ7yaaOJ9HAiRAAiTQHAKaSwMcZyMTPWDowEYpvtmf26vncMfh5jxL3xd695in7pjXd9Tn7/fdszr26SfcGSLgsrlnz+5du3cfLD2IjcyGhga325Xt8+U7Rb7LnV90ar6vpgAa11eV7bM6z6R/VkqUy10F77Qa/0bra77KGWQwYZP93ZCdXbxB1XdWHUL160CNoYFsib9q8LeNfDVDE+NPFwQpw14vQt1t2LBBkeaN3N8dVPnZJzuvUiZj9AuZhJFP2KiFdQkiEC+9e8EFF+BvJnkR+/fv79SpU2wXpKZVC/urMbZP4WgkQAIkQALJRgBbqhMnSju40oWgXZFxDBCZa81P0NjK6Xi31yln+EsDpvyIF4EVeUMf7vibz3PPDHlAqO+H3GT/3Un2hi9XHsimJobmRrZkhNGQL4TLqN4tGsqV2+CvcePGySnltD+lGuWIIsTPdv3h0fLgU4LDqr+d3Xq2WmrgwawasJAAAhYHWJv19Lq6OrW/x2MVGkY1Y4EESIAESIAEohLA+XrsySlmYYke5Nou46XTY0Ic8/nH79i+0t9OMeav+BAYXrVqyfZxM3f/vFfdTu0JwTRvWkozIbRwvNi4jfxDBZ3t5GHG3zNqTo1GRSlGDuHBj0p7xqGXmgpOm2pw8qGGpneXly82bUOikrONDlZadGBTHAjES+/W1NSos62urlbLLJAACZAACZBAMwnAdxZ7csog2L1bMljyrMWGIvbzcOGz61UirxeKFT7/lTt3vlQhQhxIlZ78FUsCY46/t+LbC+889LwDsPEKgpJUTWkG32vFU9Ys4JrN8Ld2NLF+ZRDWqsZF2Dj4wEAlh144uIa9Z3Wq0uTlf0uhZoZ3Pao3DRVW3yG4z6LeNSSX0Mq46N3jx49/+eWX6jo+//xztcwCCZAACZAACTSfAL6A1nZ51UQPCBaGM1L4RCSsKuXAU51f/N/Bisv3V+9ssBuuofnTOzFHyPQ3PFDy6Kzim1pv+q0UEjgQjEwNvhs9lK+d8Lc2NXHYCwjmv5BCxcHrV6+AM1vLtth7jp59LWzYwO3EbXcbVWt1Ged8T7thqYUIxFLvlpWVffTRRzNnzsSBR/1yJk2a9Pjjj+MPu2+//VZfzzIJkAAJkAAJNJkAdnlnz56tpIc1GaV74ELjihrv8D1V9x+pK/Gc0Fu9WHyNcFU488tcrRF0AsEoTMg1vfriiqXL/PP7ZEgCQ0tmJgQOhCmD6rMZ659TtiaKAZrtaGL9mHJZzn8hl0vel36rCrj+qHDloEJOBadNGN8bhGVfk7uHfjq2PjnBsym0LuTOfdqZzq7dQqp40xIEYnleDWL3oosusljF3Xff/dRTsYk/x/NqFpzZRAIkQAInFAHsp8jn63fs2IHsa0gG0atXL/hi4utpeXNRb1BfVTmpXf7PWmX18bVMINu4vpoqv+OQx3vY61d/Dmll36Hc3kf6/J+nixYYCzuyJ3kOdajd0X7HMx2OLOvgcnRwO0ee3KlbTYWo187hNGHOpV7/q+eNe2zm62rfgoICJTeeWfSDhV2Fp0qyNzNAUzBKsWjkkTLJ3SWQ/0IUDhQjl0tPCUaXE4WDRPlGVMhh5qJHkJA6B9xmNj0wrOSNhV1y5QrDz9wHn8ye9DPDJlYmkkAs9W5C5x3M2sf4DInEzmeRAAmQQNoQ8O0prv9gAX48az9DKoJUWVe9IwPpfw+4TyqpPlRSvhPb1Qe8/gMeHwoljryKbro0b1U7hbdaOJzCH1ydmkgMkQqw5QkXVRzhgocA3FUD7geAoAQrqK/zbFjr+WKV58vVDV+u9pcdbgIfV+9TC//5oaOwSO6rblQJs+i2wXi9pgYYyI4mNpwrFgtHF1zuPDF6r1RQFXBeTwFWulRwIRGCLaH97aTsSYUZ0miGV0Zm65XfOFq1MWxkZSIJUO8mkjafRQIkQAIkkHQEfIdKGz7+wLPhS++3W/DjP3a0ZafoczgONvhKvJKEPeBzHyg8o6Tw7JLC00uye5WInCOV+8IUao8ePYqLi2MyZ3mDM3Io785tDcuXbvvL1M4VjYOTMfKyghmz5QFjs79rRxNHLkCuUfsOnS3g1VC2WpRv0dsi+5p62j5kl1dvpCtnO8TXPfILzNNMZF48Jv8fb+p6sNhiBKh3Www9H0wCJEACJJCEBCB/A8L3a+lz+1b/wRLf8WP+iuPC623ubLHDmZvnyCtw5Oc78vCDQoGjdRtn+07ODp0cHToFCh2dbdv//PbbTVPdhk5CVqhR0rwJATdm9Nu1a1dob+0ObtBwXUWsN63KqPT+038umf63H9QdLzQXeWH98p+flXnRaFRGj25rx1eh+fu7+g3vsLkGtnhVDlGp/mpAr9/XHYoYQ6tQ165VsdRCBKh3Wwg8H0sCJEACJJBSBPyVFX4I3/Kjkvw9dhS3kp9AaKZcdUGOrByhF7VQt5C2OblyPjbVzKIQVWxFKlS9m3JUP2ZDA4v56Jvenzf3yIy/fe/bdQWqp4S+ObTsHnR64bxPUaftmIamWdbM1SwSZgYwtaOJtRF1JdV7QVdnVtTvc1tQ/f67Lzb89z9mgzhat4Uzg5SEj1cSEKDeTYKXwCmQAAmQAAmQgBEBC7Glxvky6peIOn/58Zq//6n21Wlmol+dRMHMeRkjRmIto0dLG70CHrGXbJAciMMuRApDlmALAzTZ0cRhw8q36uk0eXxkJEGYiKh+zIZDBSp9JfuOnTfIYtc/+/pbc+//s/kAbEkoAerdhOLmw0iABEiABEggnQg0LFtSed/PrJ2eM0ddmf+3V7BqzaUBCSCQ9yHyUrdvzQzsaOLIYXFYDUlJ5DN5HS4Q333JQG2jF8x0+Yf1u7yRQ1Y/8uvamc9H1qs1hXM/cQ8+Q71loWUJUO+2LH8+nQRIgARIgARSm4B38/ryay71VwdCiRkt5UhuwVWOdnK0OK395IniO9O0W7mEXMFrfqJUIguaYc7hqJo4fFDsCt8lEE8XV1Z7cdnWyPaQGoTdRZ7qwIUAz4Y+zQhYcey8gX5dKtmQEYRAbIqixZ+FVfK2BQlI4aB5kQAJkAAJkAAJkIBNAvBMgDMuNmsRcgFn8FqdM+Jxr5SywezKr6pANgcl+K5qtGe2eK+X2D1LrZAKXcYLeBrIF0QndCr2XMOufvcoFfZSQkhpI2Sxi26nPRY2mMGtLvsakq4ZGAhR+/JzFmIXXbKuuM6wIytbigD3d1uKPJ9LAiRAAiRAAilGwOwUndsh9vYsyDBP1tZ7Z+VRH5K7GV1woh38WIgr7do71XTQkrNvpK/tht9IkYPlC54PSJYW6Q2M1lD/BNHtOnHmc0YziKjT+T8sXLgwzFXaX1F+7Hv9pQOLZldGZqtPNjrbdzRrZ33iCbgT/0g+kQRIgARIgARIIOUIaAEWIqaOL4uDOS0i2gIVRee8dLTNSOMkF1CucuYzw65wut32jPRjdmHvdu8cA00cmkdD5PWyK3bxIDn/cOChSN0XpndrX5tmJXaxuTv+Wopds9fVUvXc320p8nwuCZAACZAACaQMAeuUY+cdfGtO2Z/MFuMXju4DN1c580IMwjZfQ9qkm6gxg9u2bXvkyJGIfiYVTc0/jLhv69evVwf111Qf+/5A/1Hz57pcRR984ereS+3CQjIQoP9uMrwFzoEESIAESIAEkpcAdnbnzZunzA/+A4gmNuhh0W647EXgyCi8v2ahxey3ZPcLF7uwxh4qQjTgUJruys/Ph75EYAR4ESBpHC4UcItKNMFQb3D48GGcJ0OTbgDzIrwmbF4IAYGoZ1/dJ5tv2LABnsogAK9l1NS9/YqV2BUi84fjKXZtkk6kGfd3E0mbzyIBEiABEiCBFCMAn92JEwNhcTFxo5gJNx957Yn9v7dY1Yttb/x154dNDYLBE8J2Uk3tIxrCohQ7nU6fL8K9YpyNTMiIDrH1KVG+KeIJSsV3Thu8wHUsq/yYmQHyiRQtWunqO8DUgA0tRIB6t4XA87EkQAIkQAIkkAoErIPmXlix7M1dN7v9HoulXN99xqLCS00NLA+HmfaybFAVMOJCKIajiuXdaNN+aiYLUwtxY2HGUydlm7eLzAtH5U97y8KATS1FgHq3pcjzuSRAAiRAAiSQ7AQgHC2Son23+st5O6/N8dVYLOOws2DwgHX1Dsu0usHkZ9YpHiyeYtakiXVr/93Vk8QByV1BugwjQpQscRfP/Kyzr3uGlSNo4ZyP3aedKQ/Dz6QiYPXakmqinAwJkAAJkAAJkECCCSA6gfJEBAULjfk1vGrl7OIbrMUu+j7t6RlF7MIIqX0D18qVK+VCrD6HDRumDIVwDWYXdnZVsRvhnSytGp7Kgx6+YuifrMVuxogfUOyaMW7xeurdFn8FnAAJkAAJkAAJJCkBTYAGJak8Ufjsztn5o1beiGQQoev4pt73whFzb1fVOHiYDDnY1LqYFMaMGaOMUzzTIHUF2uCziyb5gncyjtCFynq5xSH8vyp7WTEz+ZXzC+WIm0k7q1uSAPVuS9Lns0mABEiABEggJgTgeKDPeYbMZ/qoAnhEVAPDaWgCNChJM/0Nf933GxxQs/bZlUf73ZE6T/lmgQzA2EO12GENSszwHGyGc2pMJULnKgEcEMd30wMGXXFATb6ws2uYvjjQekn5f/rWbTPoHqxyf2eo++wRwTv+TjoC9N9NulfCCZEACZAACZCAnoB6+grqE4oQMbl69eqFb+qxeQk9Z5bzTB0haiBbKMIpU6ZMmDAh8kGaAA3EN+hev2fanjvPrv5CHdyi8HZFw+0Ha0MMCgcKZANG0uCwC0fWFvVAHZZWUWGetyysl71bq/gSkOCrrpGGgc8ugqwFZXfkwO8U/3hkxSeR9WpNwUv/yjjvIvWWhWQjQL2bbG+E8yEBEiABEiABhUBULdu4nAuWXK2HcozaeVP5ggdL/pTnq7IcRmn8X433qgPVdYYphOEKfPpfQwY5vEJOsdbkkGQho0XchGSG0+cfVmMy9J4sRRQ2uXrV7fzsm/Ph0mDSLlwDhhTN/69ZK+uTgQDzCSfDW+AcSIAESIAESCCcQIhKC29U7rUEY4ZRBdbeKaqCHrGGBrqku9pQEc/qneH8y45rhtdvjmgxrtgkWv+o55N1Z5wt7Zhi7xYZg3UPkvxl6w6Jc97QOgddHRoaGrRK81LkPrR+wzuy37Rp00pLS5WUGfr8w2WrFONQ7+SwEX5S9rqF2IVxzi/uDevC22QjwP3dZHsjnA8JkAAJkAAJCOv8veEKEsCg2Ia+HQJO3bxErX5TM8RISF/oB+VmZCiu3C9+emf9p79slZnpCOtmers7o/OlveeXutuHW4QlEFZ3eXXxd9Fl3Lhxc+fODe8bvI+64d2zZ89TTjnl4MGDkb4fiDUxffr04Eihv82j8yIAxaavzyrylod20O6QTa3owy+FkweiNCZJWKLeTcKXwimRAAmQAAmc0ARCdnYtpKqZggQ8hB1Y8xMFolFSNKXJXBNn+et+cuT1u0r/2s7XCIfaPRldxvd6e2dmd9P3t/VJsWWq0nrWy5IvbzC/mtolLAqvupu7ZcsWmxvA6lD6ApwlRo4cuXTpUi0Jhdpsnn3t+rJZOJ+nGkYWcqc8mn3T7ZH1rEkqAtS7SfU6OBkSIAESIIETnYDV+SpDNpEKEmYIiSDnxYVcRowtw8tEE2f4PZOOvn3Pwb93aigx7GdW+b+8c27qNu2wu62ZgVKvClwcX+syTpO/um6zZ8/G+TnT3dxovhm6kcKLENM454e9XoRa27Bhg98f8Mo139/9+NvLBteaZhiu8YvOX+52FLUKfwzvk4wA9W6SvRBOhwRIgARI4MQmoKUEs5CqYYj0CnLkcsk/wU7YgQhN3MZ79Lqj/7z5yKvd6veGPSHq7SutJvy262MNDhvngkIdGJSRC/qKim/Up2AvFgEojN0PGrXhPfDBSN8P1WVCQ22Sfe2c6s/f236FOqvIwiJ3wY+/3hdZz5pkI0B3k2R7I5wPCZAACZDAiUsA390r37ZjC3PgQ3ZBwBL2uLCnW/KBKFmsdIxIiqYNCE0sbwAHHgRh9/yeuzZuOeuhA1MbK3Yb/OIex7B7T37SltjFDHCIDRPTX51GiQtWC/hdBC9A0MSuKydYLSQbk5QQkg1GRqs6Dg7GHVwqZ0eTwo1BKAcuHFyDxwiKUbOv3VD2ptzF7HPHdxhz14xNctVzfze53gdnQwIkQAIkcCIT0Dx3LSNkGSDaeL/Y9oxUn9laCong90nlvJ7ipPNEx0uVhL2SFH5flK0R1cXCI4UV65PhHN22y5VFef09Tdyk3Ovx3Vpau+q7/5Zkpf0rGIBM6qEeXENZ3ahWh4JILftMlG8JWJr7Zqj2ckEdBy4T2PBWL53vB1wm8vLyRo8eLTVC9EfE33X5vd9sOd0ih9xntV7v9H8iBLI6PAtJS4B6N2lfDSdGAiRAAiSQtgTUM1hhYQSWLFlSXFwsLdvkG3ZjIvDE3fxHUbXTuBW1OV2FwyGq96CIQAtDslxj8tyj8t3Qu6ZdbDS8Vt7whyN1lT6/MPd/DR9G0dyrFQmLZkjSNmcpojzM1QE7tUWDbflmhD1GP87Q2aLjxVp7UArLsX41l4YI75GozgyPZJ30l03btZFZSmIC1LtJ/HI4NRIgARIggbQjYHoGK2yl9hWkPsZC2CDBW7dDDM50nZvjGpbtOifb1cZlO7pYcISw37s9vrsP1S2r9ij15vENtI4Q5UjeKztRaLW6kpx97ehaZaMaHr1wclBX1+QNb/3+MZ6mk8ILFy6sqqqaOHGiMgnIa11K4d+XPvGrg8/q5hdSPOz1f/Wn6Vdde11ILW+SlYANv/JknTrnRQIkQAIkQAKpRUBzV4g6700PhichU7tEuCUoLfhSHtoOgXiLBsGTNb9u/5Aji4bt+ssw1/Gzs1y5zuZqXPkpHuF4Pvfix7/5T02dLtEaRKR5Ml6poypblbka/YIURgy1jpcpbQ6XVID3hXxZpoRQbPS/YC87eKgjyK2y93CgCVEakIoCEcoUX2EESqvZK7lNB9ZyYfky/Xhh5R3d+lDshjFJ5lvq3WR+O5wbCZAACZBA+hBoXAoJnLUKS0IGEuZbpO4e1/fuff0Az74BdSv673+pf+1WHDuTsoLlo1vM/q//qNrz0JG6zW1rhLc+5MUgg5qF/+7qSeLAIsU+VJQbZF+Dh7F8Ve+WfsPVWL4g4ht1qfbqCGr3oBRGSDLUGWZfO6n9UIswZOg18g9/VMdjIfkJ0J8h+d8RZ0gCJEACJJDyBEJ2dhsVUev0vyqLD90i7eJ2DMh0Dch09s9yDijo1Eccz/TbSsbbNJTLc8+eWpnz2c6Fxt0tnA3007a/cPkxcJOY11p5Irau1ZN27jyR20Pz+jWek9D6hrlbYDd6UQ90ys/Pr6hQsmmEvCAhLsp1v91JFxci7BEZma2/2OXIzQur5m3SEqDeTdpXw4mRAAmQAAmkCYHmp5Ao+uya/mUfBdSta0BWxoCszEIRusMaN1Sf5545tcN9n+YHwi/o4huEPNAovoFkYJLSIqSv/kY/vitLjCkRCzoKb53eJLwse/0iT1vYFRS1AuJ49N6wRlUKK/kmAs161+pbizL/1C4rvFfwPmP4Dwpe/Xfwjr9TgAD1bgq8JE6RBEiABEggpQlYBAEwXBf8EPqtv/m0wwv7ZzoH5Bb1zxRdRI2hZfwqfcK5tOC8F9re+FHBD0KeEoxvoFQi5JkcFyIivoFkEJHSImQowxt1fFe2OPkaAb8OOxd2f9WNcNleDXkWFpIMrUEprN/fVR8ih844+5OF4xrK1cqwQs5t9+bcc39YJW+TmUDMfHqSeZGcGwmQAAmQAAm0FAGbKSScwjeg9utzq1aPqFw5rGp1G+dR0T47MOdEK10kBH6j9cTX2vxoV+bJBtBwnGvvHOFR3ABEQT9F7xa/KkU908U3kNK86VJaGAxlWKWO763VxG5Ur99Id2c8Xb78wSAS6uPgbRy4evXqpdapBcTTxVVx47iG5UvVyrCCs8cpYTW8TXIC1LtJ/oI4PRIgARIggVQiEBlYNysr+LU49iBDgxhA4w6u2TS8ahV+hlZ9ZpHaIAEIvA7X8rxhr7e5dlHhpfWODNMn6uIbSDbYRu12ndg9SyqHxjewleZN6hZ6hY2PxkivX9jgeBx++t0jNj0gILVx4UgcfIXlXV7s4KobwxVbBQ7MnfOG9pigFNbyq2ltSslbbBVY10W9G0EsySuod5P8BXF6JEACJEACSUogTNpmZ0vbsbW1tfrpVgYupebAQtH6DNFlPA6WnVf539HHF19W8UFbT5nePvHlOr9YlnPmonbXLS68qMwVPBxmPY9gfAPJChu9zgyBhMByBAZIT+z+QtnDpmyVMgzKjbrcuZp5aExcrV4uQfgigTD2lSG1cUHjnvR9EJZEsLoDjXoTKTxmzBh5mMhP/6HSyEq1xtndYGNYbWUhCQnQfzcJXwqnRAIkQAIkkNQE9Aeb7E802yEuyHWP6dDvEvfRQm/QH8B+/5ha7s7suvLoniWVtR9Ve6su2xm28Wz6qMjsaLLpyROFK0fbUg3rbz93htxx6bnNSiDcZZwifzFalyvEvjnKdM56WZLCQf9gOb9a2EzV27K+rYQvkJNZrdIV2nxzTDiblZpONxiLiSDA/d1EUOYzSIAESIAE0oZAWOCq8HUZeZr2L3n7pvJ/T8jzF0hJH3YLb3inBNz7heObrN4r885emXcOPvdldFZjFNgSu+ahf6XJ75ktMluLnjeLI6sMMqhhF9b+JXn9bpHMQRK+vDYv1esXHsNqCjf5EFtGgeLwgOxulduVshBTpkwxHdvvtxC7UmZmil1TdknaQL2bpC+G0yIBEiABEkhCAgY5Iyq3CTVFQqinaZa/fmzV0hvL3xjqXyMKsBqI3YReR33+LdkD1hWOgMBdnXvWEXebkMcjUJcnkCMN3q7WklQfQzdkCN1N/VGx8yUptduAB0Tlt+LYek13Rh1fN0zMvH7hYiH78hpJ4VtvvXXChAn6x4aUvRFH3PTNTpf+juWUIEC9mxKviZMkARIgARJoeQLY2Z03b54yD1naHlyqJK1Frc7TtJ3nyC8Oz5h0dHYi3XPrHJnfZPXZnHPq5uxTt+z7ZPOexQc8ftH7HNHpD8bskLJB3gqNYXY0DBWMfqA91Hp8zS5QUtP/NtbrV+9VLO/syiNDyuNWzi0cqBk3bhxyqoU9Vn/r91jpXYeb2klPKzXKfGep8Z44SxIgARIggZYlAJ/d6dOnK3NQpS2+IpcvyN9AKK423qOTD0275cirub7quE7Yj9NZDb4tDc7N3W7dnHs6NO6OzB6IsaA81NNT7Awk5sURLgQxMNy+bXOWonfhQmCWDRg7u2oq4NDda+lBGDYyTkLksi3GjzSuLlbq1ITAkTZhNapXsVoP0YyZd7xUOjaHSyeFsbNrLXYle3PPXalVckrhlWIEeF4txV4Yp0sCJEACJNAiBAxyRkDGrbpGmkwgu1grp7j98IyfHX4l31cZjxke9oot9d7N+On36Oa8M75efXv18c3SgyBDEaMg8oqa6wEycdVEqV9g/gaauDnZ0fTzMRtfb6OW1QTCYUmAVQN9wdqrGJa53QUyYtSVKj7BQuCYGsKQITIDguzqRwopez1lp7YV8OI1udp8fUS4M0waWZ2MBKh3k/GtcE4kQAIkQAJJRQChx0aPHi1NSS/dgl6tOb1vu6N9+18cfiG2URf2eHwra7xf1fs213k3d7np0LYXFSayEIwqRqMaYDhrTWzdqswm9Fcw+kForbkoD7cT4t8nCTlDRNSoDv/P3nXASVFk/ZqZzewuOQgIC4oIglkBxYSKIqgYUczhTj0/9cxeMp6n3p2nd3qGO/OdCOaAGTEcRhQkiUjOmYXNaWa+f011V1en6u6Z2d1erPrtb6a66tWr1693uv/96tV7uv7tPPy0APhiy5qbF2/5/rsmK3a48enwxU/Rbj3celV7CDWgommE8KIokZQGlAaUBpQGwqWBt956SxMInqDcNyDlaXpsUc4X0fdv2fi3rIDdFXl9JnU888qcY/dbWb3vyuorNtU9ur3h09r45hVTSEyPSovtXygIrQVhWEH0WQBN1q41+SAAJVwdWEHc3EV/5UNphcZJWEArgPiB4iSA3l7s/O00aIEMPB2a3Q9YHIIUEnDVYAUz7n4VGTmVACLjZQCfqKPFURKdydy5cydMmACfbL3B9B3t1MV0bD5Ilm81N6ijsGtA4d2wXyEln9KA0oDSgNJAq2vgyy+/1GQQNlF1q1/xZPfCybsU9olvzkRC5O99vuOEK3Z9cO89vzqg/9tXbWmavOjVVU2p4K9AtKV7UebInhDT87RxIIj4A4hCwAoA5ftDyfxbacIzBnzx2ft00k7PjOBIkN+NRlRgxQKaN7yntYsQX2ty/2Kbw1h/yR4mOgt/Ux+hMgOys7QRrAuA261YvIqPm0eG3Ek9idmrCPMqRgva4ezBC07EBoXhk42YG5yEVyJSvJvYtoVTqkqb0IDyZ2gTl0kJqTSgNKA0oDTQmhooKSlBojQqAQBTbvsISV647flbV/+mNIOtSwieMLW68a2h//2q9Kh4UxUNawCEB5slTwwGLIssuKJbAtMBLJcAc7xktqzP2eiVCMnvTDoeSCrmk5o1tBG2UrfdbPoY0zcA94xxtKV0EOXAT4cRweYK3InXBuBsAFPAXPuJc0oAVgZhWQv7FBXCNw6KBJY6bMYcRrOUEyDAvDwRMSH2TWxVl53V8NE7Fk78sPgfz+SdcCo/VJXwa0Dh3fBfIyWh0oDSgNKA0kArayCCFAOsjC8fUL/0oTU3HFTzXXoyVUWLXywdO2XB09/VxV33Q4E1QCELH8t3xfH5ABktQBAQEJEieJ4FTpmVSgriB+AEKPl2GaVHfN+yi7VAYEW7kprVvphEckg0h8TrKLHjVrxMvIphLB81wxBDgMJTpkwRfXmrf3Nl/Uv/MSjNtaLb/1pw7i/Nbeoo1BpQ/gyhvjxKOKUBpQGlAaWBMGiguLiYiXH61hemLxmbHtidV7DX9b3uGTxo5o2F47+VgF1gMpghGdjFrNyvgCsCFlPYJsUCX17AuOGTKUrGcABNFHyibnEqwCEnEDlI6gtud+1EhAdYlwFAp/am2drwiTqnRzIL7v6RU2r4Y7iyS3XAf5eBXRzZvX4z9CrGKwFk5gUh5HSHh7vvvps3oyL3Z0huU/67orbaQF3F320DF0mJqDSgNKA0oDTQuhro37//onlz7+5ScNG6m4NKgpi4r7Y/6YnOF3xbtL82VvdM7dy5c3l5eYJFe0XYrK5HkB5jSI/RpimM/AtjjERuAIKFvVnEX4MY4JLjS9Yq2C81ssqfaF6M7d8bUXU9HQzgYlG/mXpWiMXRogyAC0DJzcxwOObOwTUrSLxeYxDNJcW7EeSlS8jSOmjEcEWoXUM3zDHHBo7+geztrg6ihGIdlKBnKSeQDE/UMDiveRVOF9i+higcPEiZx341hXdF9baFurLvtoWrpGRUGlAaUBpQGmhVDYzdd+h7vYouKs0NJEWCRF/pcPIhA6ZdvuvfDbCL5X4gyFR59tlni4r0qAtHfkxtuiIUY0RAiqwc8Ci1++Z11A4Dbf8C2sMfKxgoppDws9kL9LDj8oL6zIsNXMvbLRUA3G8v1doAheGlwEr/y0m73QywC8DtGF0Bjg2siDvttn2lNVqQvdbq/sXp+fsDo2VQOFU3onDAvtuxszsvklDxGSTaCWWX/s8USuGUUEoDSgNKA0oDSgOtroGGD6f+eta0nPyYf0mSJPJW+zH3dbvuxwJzjAKwgCtCagsX4r/Cmqhtg0O7m7USSJEVEMBvAQVYkxUAQdgmAWQB5iTbv7DvjXlHwEzLkS44yDd7YTqksYAVmW32AkbvejgVAIHAOBNP2/DGaZqocK5IxhFmgh7CsgsjKytwJ4BVe/NnZO7NBMgeJwvKojKC3G8H/ov8eC+BQRoFGoN1VsgJbFiONUZeX6Kl2UIL7aU4G1E4kENNHp9hw1oLD3UYcg2o/Wohv0BKPKUBpQGlAaWB1tNAMlnz19vrHn8gkASftxvx2563zS8Y7DBKcDBgG6QskR8chsAplkFetm+M79ZyIHVqAhrmrsDof6c/aSindI5bwZwY0DBhANYocPwFDNWN05QDdzOwDDRHP6CdMEs3VhqxdRl9r1NJ5SKZnZi5Gm/7xsKeHvrJvmYZ5pa5Td9gBy/tyspKNii+cO6OE0daGPDDaLddOnyxiB+qSvg1oPwZwn+NlIRKA0oDSgNKA62hgabGqusuCQR2t5G8q3a566T+UxzALkCVOb7s9OnTcVbwDNbOjUfVtZwrjJ2ssLhdzDsWhtX9/0kBqKREoqTH8TQEL6ZGwedPD2pgF8MBVX0WUIIeBVNzsAvbMKy/bjZpZhsGDS8A2TyRBGvEzrm1r8rALpsRYNey5Y4NZyfF+XtWOD3bzCfS62dh2Nph3+1dJpJY6onNG5L1qQgSlg51GFYNKH+GsF4ZJZfSgNKA0oDSQOtpIFldVfWrcxo//9i/CC9WNv5+a9XWlX8gZUs9HAxSTJHpYOPGjSNGjMBOKdqATWyOYW5hUmUYFwQ8li2stn0m0j80zrpCQ7FgAjAXzdMOkwka24Fv8EpNqn1guA7yxGbnOihBL/oSwLKLyAaeBTTYasZswxZi+OYyRwW0ezpFgBL0FrgM9O+oLstE/JC/TvD3B96lQ2EehQM9kZLSSPsOyR3bOZWpkkwm1qyK7WZzVjERqYMQaUDZd0N0MZQoSgNKA0oDSgNh0EBiy6bKiWP8g93leX1OSRyG3L9bEVGXeZoi4QJi0GIBHZ+oAyxyqAqQCryYKq+//vqqVau0U4bpVAdeJiUgYgMrILDv1oLvaaJBI4DDw7g15IRlZLcrSKzAxMRysH4qTWPhv/DNXhiSnm3YMhcHr1CFnw1znB5xfFnRY1xYGLsecnq8P1iKDoUNW3uKILZrmYVQPEysWSkeqnrINaDwbsgvkBJPaUBpQGlAaaBFNZBYtbzizGObFszxOevLVY2HL/rhs+WuubhMfLD9C/ZXQFh9rf/dd9/t27cvpQEgtkTVZSMRsYH5LYCgconGDbuveOxbvqHtf2NpFIUvzyBLHzVC2GoDzF/Vy+mmNzHkgrnfesQ3e6EjDdswYwfnitI9TZyDOkXQwXriD7fXA9ME+gFeJLgnBsSwFB0Kw9Yu9shdGuKrl4vEqh5yDSh/hpBfICWe0oDSgNKA0kDLaQAwt+riUxNbN/uZsj5Jfrel7umKRgdihJilwWWT1i66vv8M/QOEpXEJPjURYOnfHlUXFAOv12IycDMnoC0Pc8tZoEVs9PQTgBj2wLqcm1gRnR9EW69I41bXox/Q/GpiirX0nCIatlLV4TTZ6wF8iP0UPSYGHWuRX4DCJ554osgs2qdMPLTUE6uVfdeiklAfKvtuqC+PEk5pQGlAaUBpoMU0AAcGuDH4BLsr8voc3+kPT3c6h0IotgUKn6jD/Nn9GJIACLaBXfFMgNgAdgGLCVm5cuWYMbrTgmNUXUQBA1uxiLhWbOd1n34ClsC6fLilIjpaiLZeC5njIadn4cYYTdpOETBmA/2zgtcDxLvwLKDhPsR8LB+lQ2EWHo43oxLr3Vc8tNSVP4NFISE/VPbdkF8gJZ7SgNKA0oDSQEtooOGtl6tuvIw0ORlrbfO/U3rc//W+f0eslPS29SE8rRF0toTiVBgUgflgIgVqZDEWYFhl7rwUFtPSp0+f8ePHw52XHgCc2aPqIswCgtRWL6MErFjMt6smkVlXal3wE5DsJ4MkjoF1dcYO37qHK+0Sbb0iKfwrEFUX2RwsYXS5/wCgKlJOsJxqaThFsA1z4AD0D1VAhyh4PRCzr4nyoA6FA85ysItJWQBjTiZA4d/97ne8mVWiUv/d+KoVFnp1GGYNqPi7Yb46SjalAaUBpQGlgZbQQN3T/6z5029JUmqR1QX5M9n3vqFv6kfmb3jEMhyGZlhYfYenhXFxzpw5l19+OYI2mDm6HNmZ87i86PK5yi8G1h01w2WmVPP8W434DCwMsEjtmFtYJGB12L+RciKeCuM1cmqw6ApbPqfb/lCwD+/E9bQSKO0F6JF0Q0yJbIbCl1122WOPPUbZCiW+YumOY/YTGkxVBHDoOHuNqUkdhFgDCu+G+OIo0ZQGlAaUBpQGml8DNKPEY3/zMw/yg924ue7ZmgIaUsBu5gTs45nP5BZWNpmQe6KgoKC2thbNL7744t13361FKHOTyc4cO66+OouSw+jrKJsjK2C+94dqlubhUxxSGbNRIhlaLFBVhPiOs/BGMeWEHTRzMktFMxt/TSoWaj1wGkGMBZiNEWqNv11YRlkOsUEQ2ZgdTezIXDF+/GuvOUWraGzYtlc3kkhYmPHDjt+tQswyfqgqYdaAwrthvjpKNqUBpQGlAaWB5tRAIlF923X1LzzlZ45IfsHvI+0fWZCKkOBoQ83EwgpvX8G6/Pbbb7/11ltIb7ts2TIkQUBc2Kamprq6lGXUcWoOOne/igy508/paDTccIu1fjENm8iCm4FZozhFUCMrZ+snO5qn2RjAFymON39iQGHO33fF0bLLR28fOSjhnjq49PXPcobsy4lVJcwaUPvVwnx1lGxKA0oDSgNKA82mAZo+7VK/YLd9h5Jn3zji1rs1aew7pWBhZXvI0t2JBYzLT3Xs2LFYXoeHA9LbAgdPnjxZA7tuzDd9rI21BB/gHN0qnB5+t45F8HDV+mFShcUXBSAb291YAQr3E0ZXo0551vK6YwXMYSyXb8tDLyKvdRrGGbCEEfiEf8gxxxxTVlbGu+wV0CCls92NQaSUu/Am1qwQiVU9zBpQ+9XCfHWUbEoDSgNKA0oDzaKBZF1t1f+d1/jJB364R3v0Knn61diAQWceOAJJgDUXW8tOKZ7GLN2dWDDoAuY6yoMurd3OnBlBa/TYWDwYgiMjeyOnxyYzSzF7uBqdLBAYgqlxXwK7f4VBndrfJm6PY13YACfJjhbIbKyLAZ8QvB6IM6Nut5QjqQTi7CL0mJu2RQ6xXfs2zfxcbBHrKiSZqI2Q1xXeDfkFUuIpDSgNKA0oDWRZA8mqyspfnNE08ws/fGO7DSx55rXoLlogBpgDkQTYIZCCPfOZH+6ggYU1FXkA3gtuI4wubo5lpNyNgY+0exXzLscKp0fwBABcFw9X61CYt9e/qzXCsiuJBcFHWnILwxzuhnctZmPLnj9IiIH4Q2QxMfYCITCB77PPPgizcOaZZ/JpAWr94FpOb6nI7btxlWLNoq8QHyr/3RBfHCWa0oDSgNKA0kC2NZDctqXiwlPiP8zxwzhn/2El/3ox0qGjhVgWSMH/TizGFCgTOYcJwSq83TzJSEpKSuDFS+sic9EISrOOpYJLiARssPxTn11Ghc1eCDTGCs2jIYRsC7o97r1BJF5LObkNzGDPnyYhIXKXXE7mp1L/+uTqG37pRpl72NElTzttdHMboNpbTwPKf7f1dK9mVhpQGlAaUBpoWQ0k1q+pOOs4n2A3d9SYkufetINdiAwrL1w/4QDqID63mDr0OTXp9BqidSIxunRiq+8sz9MrBsp1YmVtk9NjQ9hBT9HIBrz0v5wG9uLF7l/Bu+wVCN/vUq2ZOUXYaRbdr7X5NxuDkpWIBmngcHLKKafYeafRolJOpKG0cA5ReDec10VJpTSgNKA0oDSQZQ3Ely+pmDA6vmyxH775Z5xf8uikSEGhGzEWzbGfbOrUqbAmmoAvLKaBik7P9lo5DjW6GDGMoLrTKoHvLLxj+Z4t+AkEKpwewcIsWeIQoQxBeZGggYNscIZDBaLYgpgVi3+F59Qifdb3/CUTpPvRTAQ4nMAG7ymOJ0G0T5mEJr52tc+YzRImqqtlNKDwbsvoWc2iNKA0oDSgNNCaGogvnFt51nGJdb4SBBRcenW7ex4msZinxPANZYEUDMgrt5jaOer02Edl72QtRhcjthtB4XLACnCwDqDduBntoOS4ef9Hybg1BGHC8AmYi9hkPUZrlCJDtr8t0aB18e1uBlNpzUJvSZ6cyZ4/Nm3hrvQFIFVg5UUwY6k03p3Rrj0Qh86VrqE+sXGda6/qCJMGFN4N09VQsigNKA0oDSgNNIMGmr79smLiCYmtm/3wLrzuD0W3/NEPpUiDLf/aIbeYit2Suk5vcLARG10gxp898BmwKXwPUNz8BGw8aQP2e7G0xhgrWl4txDoip83M1ovNbayIpl+tSfplp4eVFzkvEAYYGdQy2fPHpkVUNWyM0z0ckLlDKo2Pzkgk2mtXCZ0K0SBRTqi6FN4N1eVQwigNKA0oDSgNZFkDjZ9Nq7xwfLKywptvJNLujvsLf3WjN6WNAvGttLZ0LawGBznzdXoqY4vvLOIVsGL3E7AxpA1iYF0+1pFSR+S0k9l6mecDP3Qc5djITcXgAPlZAeZGhAqkC674UWuxmIG1VvcvTl+zghIhpAP2wxGCNHViVGPaFbyoEA3BdRbGEQrvhvGqKJmUBpQGlAaUBrKigcaP36+87CxE2/XmFsspvv+J/HN+4U3pRAHHBs2lIS0LK8ZKwmaZmPNQCRaLLBxtOYK0+AlYBAboRMo00PASa8er1gqIgeB5YbbeojKtQTT9chpJhdPnd6OQNObiHm03A0t4oovTM8MzDnVVGKGL5Rzce6O9y9w7SWL1Ckmv6gqPBhTeDc+1UJIoDSgNKA0oDWRTA40zpldeeS5p1J1N3XnXJ8lvcztf/c5H3ByICjY8IZ4rYoFFIhF8oo4WTmBnhsivWmNwC2u3bt0knMHWYN5Qrs3CjZpcFDjd8uAJop8As6riEz4D8ByA/wB6xcIxtNjI6tzngR0yW2+ngzRC0fRrH2tv4fTVy6lNl8UmA1nJwJQ/BqKqpQoTWDvw8cXpueFZfxkwQhf7YONIgpQTju2sERE/JL2qKzwaUPF3w3MtlCRKA0oDSgNKA1nTQOOXn1b94kw/lt2qRHLihtrPa+Ns7r59Kb5ZuVLPWGaTCLZYS1IDTmKKywsvUkuuBE4HfGbOlcB6LJyBgGGeBGJbtmwZQpLl5uY2Ngqxb7G3zLHYk1A4kqGRB9aF/y72qNkLfB5EMzAIWNzcrV+TryZQcrcwunZWaMFZA2ozj2FOgKnhTQHjNMr0kZpr8siprtko+ECxAhwPdwgUcBt8K40WvO1rUrEQDXhXGTp0qP+EaiJXVm9459Wqqy+0t7OW3EOPQqJpt17VHh4NKLwbnmuhJFEaUBpQGlAayI4GkAO28uJTk7Xebgxb48kz1tfOqdfArv/p3ZIaIPKrln0NvAAHsbAOWyNssVhkB+DDgj5snPAQsMA+YWJwHjVqFPZawf1UaLZVJaklWJJhtq3NNo42MJTZbRRLdUEjkSEsg1hcEDklAY5HMuGZF2vkOERAND8FThSiXbnDfmTPW4woEODAkfruV5Ehd/phqdHAaJ3KUUcDpXH7t2285XXC1u/c0PT9zIrTj3buIyTWb/f2H85y61WlEWKrAABAAElEQVTt4dGAwrvhuRZKEqUBpQGlAaWBLGigadbXdINajR5DwJ3l+linU/s+/VO7/ZyRaLv+ZL9/SKDq+PHjX3vNIb2WycrrPjvtARre63Y/INiBjacRFMAaEb4QsgC7uODYGisg8TrKp6gPGT1HY/h6R63C0LMEkcPXlrsfwPu2fpM2EF8IAeaZUthuKsZAiwl8wwdZMxsbwllrbi8qVjr9OLFp/fZDBupH1m9EaO44f6O1VR2HTwMK74bvmiiJlAaUBpQGlAbS1UDTnO8qLzgpWVXpyWB5Xtkp/V9YndvLRGmxawKPwilWLGYCN/CEyK8eBlpxHZ/xN3OmbY7m4bm3kIr5tDdtIyg/KcyYSmVMuckLA6YLbjftXRNzC1uQq8jNfl5w/wUKZ8VyjtMPYX4IFAqnZza2MMTsNpu624uKKLVRTyS2De5KmgRPEqOP1jp+syzSqYu5TR2FTgMK74bukiiBlAaUBpQGlAbS00DTgjmV541LVuzwHL6gYNBp/Z7fnOMCU0RjJBLqMu9SkalAgMTCyLUmdvI6HHAffPDBadOmaS3RPFI8gADtwXGWZ3Pg1KjwBX3U3RBk5kbQ4ZO1aLvc7VWUwV4Xzbdfn0vWv62RAHBXLzMOfQBNbSAAN4oY9kHrMH+J85p7jCPhQtBGN6Whywy73V5UDM5CbftRe0viMJS+/lnOkH0FclUNowYU3g3jVVEyKQ0oDSgNKA0E1UB84bwKgN3tLru4BHZzC/c6pd/k7bH2Qputyp1NYYh13MulE8ArFImFbeO1BkR10NxwPQ2WcLrlTrFyqMf3dXny5GLp0lLPXX46otsrUqbB5wGOvIg1BkS+aTqpWUVH26d4p7/mI8scKkSMzqdzrFi2x3k6GbPZ/e/5kyuNiSTgY8mLikX8ynPGNn79P0sjPyx+5Pm80Xr0Zd6qKiHTgIpHFrILosRRGlAaUBpQGgiugfjihRXnn+QH7KYsu5M8wC4E0HMW0IgBMKnai04gSWoA+64GdmH7BL282LMEu9Hz9BDBA5/RYAiswN7JLazdR5uSCfc4XgO7jmJbkgnD3wMmcMBoSUEvaA54VCOpWUErsJoDecPYXLKH1k5IcXEx3h/Kysq0Fv9R1YDLPX2IwTSt7GvRnr25hPZKYu1qe6NqCZsGFN4N2xVR8igNKA0oDSgNBNNAfOlPleedmCzf6jlsUf6AU/tN2hbr6ElJwymwZXeQOoanFQjckhoY7WAFeknB3jJ7lmA3+rRTS0AM7pshBtZdPYVmoAACZgW73FhxFNueTJgjV9AD2rIguPhEHS3Dp1BcCxquAc4Bs+yYRyp/YrPB4FpZWQlj+fLly+FvoMnAs6/B1Ri76/CJ0GOIxiAGuHDE5dp425ePFxXLmGhPaUrhdast9OowhBrICaFMSiSlAaUBpQGlAaUBnxpIbFxXef5JiS1CuACXkUtyep7cf8qWnM4u/bZmxBFjUa745ioLiU7gltTAaNfTH1gYGIdyiGnQ6TVYVes3a76zMIKueZUiS3ngM6Si4HvvsKwvhgYDV5HJtq+0aRzFBpBlgBX4mENYDACxI70usoGnGSC2OdSKbtCPPfaYd1A2Hn0M5y5Kwmd0rIAS9KkrixcSSVo7PtrDvqtSTnBNhbii7LshvjhKNKUBpQGlAaUBqQYQYbfqlxMAeaVUtHN5Y+Lksv+4blBzHM8TmLH1d5EGHg7wW517I2uD00KXLl3GjBljyZGGPBHaIM5KZCLWOaSWQ0ZxyLD/UtzGiqcRFJSgRwHKhCnXkkXCwqTiR9ZA5t5AT5MnRWOtWUkmbE7zhoAJALjapPoX4C9svVOnToWtt7S0VG9GDokoKR1CBt9GCrprjf6Vxgbo9MYLicHdoabsuw5KaWtNar9aW7tivuW1JOaBU1T//v0zyTHje2ZFqDSgNKA00CIaSCarrjq/4b03PCdb2Zg4cV3N2nHbPCmtBDw8LU9m5rXLKicnJ5lMxuNxZPZCRWMIuAmnWB1mWWfB8dTemtFUkkXCMgyYG44WGz8ktWstPabD0kFk4I0EqSVsYblI5xGk44Hy5BcaK3gm8CxofINa2gHRTPLRAz9PKFlU49I9SafhHhoWJwXoh19Eal54UIg9jvX40kU7jtNTKNsool26dfhqia1ZNYRLA8KvMVyCeUiD+wijMO4mHiN+Rt2ecR/TyzHzM9KgOlWlAaWBtqCB2gf+WPvPP3tKui5Oxq6pXtWUIP6hJGOqoyIj/RiHep6zOhKIqFEk4CHGWCOW+1mQBDeI7IW5Rd6yOpNn4zSyapKMjPcBtcMjYsEdZHEqoRq8Zo+b59eRAMq0JxPmnIWK5Al17bXXwgxcV5fKmiEMMapuGjYo9Jr+JuMHRSRra8qH9tBH2r4jkU4LNpG8fFuHagiRBhTeDdHFyIoosjdg8wSBog+ah6ojpQGlAaWBVtZAw5svVV13iacQ0e49z66Ivjd/IaX0TEhmYcfD0wJFYceVGHoWUI+abFOJgheYszBYmNgPGWpk7Z7I1Q7gMsTcdnl4i3hScHIFQrWbhOEEXL1C21qHgfZoZZybpcIDolnaXQ7tTyj/Tzd6abinsiN//U0GdmU/9l3wKD+wLLnddX2g/Uffx/r2d5xKNYZEA2q/WkguRHbECJS3/fHHH9+4caNjMszsSKO4KA0oDSgNNI8GmuZ8W/2bKz15R7t2L/nv1L73/ZUwvAs/1C6Heo4yCLjfKuLRAmXyPAsAedjjzzZIiSCYjfREjYgChq1m8Kb1g1wRtAFBeTd/pgE4cTrPibQzwXJokiYTbtePdBpGuh5OkA0YpwYxxBAH4kmxgThBqAt/8GRAMAe2v40rgdGgsbC3dyAw+/Y4L+EtT6hATzd6akzDmgZsX8DxqQI3P1ufcwNceOPueDexdpXCu86KC02rsu+G5lJkLIjp3dd+5+L88V7L71yE2N+hOaGqKA0oDSgNhFADifVrKk49KrF5o1y2aOeuJZPeie02EJsZxo0bR4mBsdJbfx9wDVn8d206MamBHbD6vveSoj5ajFsmGLcWSwyr+V2NiLn+J+ozkez/T0148Qs+DLP0dwbxpEQasS5kaqDN2IGno0b/Wc00fr6FZ0+o9J5uMiuvnmjD/xOw6vKzG6bpieVEtaTq7e59JP/0c23NqiFEGmgWvIubyxtvvPH9999XV1cPGDAA+y6xy7KoqCiL5638dy3KhM/uhAkTtMaAdy7/OWYsk2blUO2ry4oaFROlgZ+JBuBJWXHm6PjCufLzjRQUlkx6N2fv/RlZgCRnnC9ff4dHAQoLjgugtm/KdRUtcEXg6dDYqID3XjYoMFjEsKATOaZEziRJG2SAc8jSRw2bt5e9VjtZfMG6PGaRcehYE7D1r3/9a+Rk1qiycuKCJzGCP/iJR4bZa+68se65xx2FRWPh1b/Bn1uvag+DBrKMd1etWjVx4sTPP//ccm69e/d+5ZVXDj74YEt72ocK71pUl8ndXJ4M0zJRFg/VvrosKlOxUhr4mWig+sbL6l97wfNki//+dN7Y0zhZJhYBwo27FvMwx4tsGhEK84kdK5+PJ5s/1XqCAjgM8z+RCNl5DmE2MfwZvjqLVi0nxXrdPgWkSPOlIYWE3cLtNhZmZrYrDrvxxq1xozLadeELCgq0DWpZOXFMoHMO9Oyre+IfNff+3hDPXMs/47x29zgZ0c1k6qgVNZDN+LsrV6489NBDGdg999xzFy9ejMh5t912G05vzZo1w4YN++yzz1rxVHfiqWEiDZCykisieI4ZPjTzCtanYJDWxHZhh17QgNKlXzUrDSgN/Lw0gD1qfsAuLG0i2IWOsMaIlWtNWQg9C8QD6OZY0I5eHp4WbgacEnXms4uBwIvM4suYADXijuqz1OupMQDgAqbApaFn/U+k3+SpqJaUyEHTW7BTw+lDCazApRgF28J8JhPmPhVicjWNl9OXLrwGdgNpWB/rcOKCJ/Hvfvc7p4md2zxSTqzzgeCdGavWFtJA1vDuhg0bRo4cCVwLwWHife6553bffXe8PN1+++18JeKII44AJm6hM/s5TRMgZaWoFuHOZXAQCZqtjp0H2IugscddDEEcsTSGUEGIcIlP1NGC9lQBJeibTRbFWGlAaaBtaCCxZmX1rb/2lDVvzCmFV91iJ0McKzjXae3YZYXYWHDiRAQGBmfxibo5CQJp15/0Pp04JhvjeJFxFKGwfW6xhQLlVLCI9ABcMkG2fi3yk9WFm7w1JXIa6S3YTDyE8DZdDJ/JhPlrA0uuJpM71ScKjwb/GgaxOJbngoYAwpsM3n/EdG6e4qiUE54qCjlB1vwZrrjiCp4cBV4Nu+5qJJtOJBKDBg366SeaIBtkjzzySOZKUf4Mog4NZ4Z0o+0EWtYRp06jnt7OA/+7CtIQSQ1RGlAaCLsG4k0VE45r+n6mXM6cofuVvPAenHfdyEz3Hzcit3Yevhe20lmXk4ZygxChD7oe4SvfAXcASDtZA5CfPNiWIRahIH5Gaq8eC6nGu9JObwGYy/A6WIEnIle4BQnmc7GKmyQWMvGQD0Fjuk83gnQbe//FEo8Cbz5BYxMlNm3YfsgeonRiHf9yHed7bKAU6VW95TWQHfvuvHnzONi97rrrRLCLU4pGo9dccw07t0cffVSZeLN+mQOkrLTMrae4NDhYCLJ9CC86w7ILxzXs/MCLuGNBO3pBkyoYhbGOhKpRaUBpYKfXQO2Df/IEu9FuuxQ/PpmDXTh6Ad3CHFBSUgITCT5Rh6JuvvlmvOHLNFa0K8nr4kCAOLv4g9vuVxNMYBek1ctp5AR4xKIX+9gkJQuGVQ/Qb5pcv8mTmhWmdu5U4HYHFqlxRuyscY4c7IIAbhI+zxrEMGyzAojss3DhQS/W5cPxNoKXCj3VMxUYiH/JQzz4GqwnQcEuJkRsO5Kb5zZzsq42uW2LW69qD4MGsmPfxasSAjKw83nnnXeQQ9xybsC4ZWVlrBE3IKBeC0HQQ2XfFTXGtUH9AYKWIDlmgvK20xum6OA7D1rSCG2XXLUoDSgNtJYGmmZ/UzFhNEkkJALQgAyT388Zsi9o/OyFxXNq+/btX375Jew1WoYtGAIRnja3A83QK/rmSmZ165KYYLNgWI2Q0sEBDKv6Td70gPAvBjdIu50sb5ecNXwJeHK14ZNleZU5N1ZxFN5Cww+9kndg6xsQyAMPPMBHBKpsP2rvxOoVbkNKX/+M/fu5Eaj21tVAFuy7O3bs4GAXJzN8+HD7KfXt2xfv1qwdluAVK1bYaVRL2hpAhhhtLHeQ8slLpzc4+ByYFllb3FeX1omqQUoDSgPZ00C8qfr318jBLiYruvMBhjYAaPzshb3vvvswCpuqhw4dqsmKVW8UZMr1A3ZhbnTfdUCtnkgMYS+1awk3rL6zG3mjC3lvEPnydGp9RJe9OBtWkwEMq/pNnqZEFktRmXbEY+iKvbyOs8C5sOK118L1rDEcQd9Zbgu4QHAPYI2v+xcXHiRi3XEEcDnCw0mvHba+YUMR/kMcGXg2xnoajpp2YoSFtjeqlvBoIAt495NPPuHnM3jw4I4dO/JDsXLkkUfyw5deeonXVSVzDRgZYuR3LvtMOr3BwU6TvRZjV1y6Ow8MDtmTSnFSGlAaCLMG6p58OL5ogVzCvBNPzz91ImjS2As7YsQIjfnsqwNgO9w8EX2WOQPgE0nIhtxJk1lg5YoV5CEDAuMFzr5zbiDvD+ENJBmnf3UbyMaPUvvkhlAC0SfYB4Cj8A4gT5zImCBV02/yhANcRsCdCribgWUgDsGWZ1PDeeHscI44U/9nzXgKIRFoqjb/hQuPIWLdziEILk97D3SkR0/7zLxFkm2Y06hKK2ogC3j3vffe4ycAOy6vWyoHHnggb2kxb1E+485dMe7XkjuXowp0eoODI1kGjVj9qZ/8NMwzlb+ccNbHr362a7s5fdv9FHll9qJDpi8Z+9KK8+5f+5tLtz6zR/0S2SS6PQCLjzIy1ac0oDSwc2kgsXZ17UP3yM8p2rtvu7v+DhrY7V5//XWN2B8+Az02WGtDqpcFGkuxoAVoAggKuw4oema+vBunkemHkuVPavzdvkAw/RACYpQgAE5mWNVv8tT/QSw9dLdDCOloOoXk3LIbZK+FcdaYDpyFkAjUBxfBHPwXLjyGiHULh+C4HNc9DStvtGMny8ziYXLHdvFQ1cOmgZzMBfrggw84ky5dnHz8U92dO3fmZMuXL+d1VclcAyeeeKK2CQy3J7w9s5dvT764E+m3M3DwJA9E0PTtl/VvTGmcMV30dqI7RPJSr1iJys4NlX2IafVnbW7PD0uOer7jhFlF1APPVPSdCupNyaQWdaA0sLNroPqO65O1tbKzjOUUP/hUpLjEuhdWEteWodLC3izI7rvvvtu1a9fNmzdrs8gTQJjH0lto18OtGA5T164hCHmGsuh+EomRb3SjL1q6Hkl6n0a6HELzCaPUrCJbviBrXiGbP6GHMPd+eQbpdhTZ9DE9RAFwRzRZ8a6OOoys+MPdnieHZ+DbErdBuMnTKApi6TGaRleAeRhuBmACmG4pkJwVCCBRJh9lOuu/0CRqQKjQD3NjYGTVKykCFs+FD7dXROHR6/Z0s+Byiajma4eH5qhRowKFJIuUdrCLyVsU3uWqCGclC/ZdEYJI8G779u25CpCKgtdVJXMNIB2itt2Y3bl8ctQdqjDWZ0JFP4yb5nxbMfGEirOOq3/hKRHseo7t1bjuwm3Pf7j0pHeWnjqu4t0oEfam6PfHqqoqTz6KQGlAaWDn0EDDB281TjfWDx1PqvCa3+TsSy2Xd999t0bgH5+BMlWwCyXtsRTR2ouY72DmRVp/QXdy8HPk0NdI33NpZN9IDv1DBYdoRBcIWOFgN23DKuOj3+QptNVXybQp8MVdCwDN4XIgFkBV5gjrM0gwC4mw7RtCIpSNLSSCZvBK6wmFTWaUp9tYrv/g1934n6ETeBc53k1UKPuutw5bkSJTvFtrfvPu1MnV2s/3q+FsAZGbmppa8bR3vqmNPDH2O5fj2QoOVcZYR0rfjQhPWPV/51WcNqrpmxm+BzkQDqv59tmVl81cdPglW5/LTab+T/Cinyots6/OQSbVpDSgNNDCGojHa/9ym3zO2KC9Cy+7DjQZ7oVtaGigE/nEdkwmEdFaUpeBAK/o2KXACjJEoBQPIIe9Q3q6r6ShCwQg4yU4gDOBb+Emr0FbhkoRWQzBGRD3YPZVJK+jNpsl5xzPpuG518K6oy7JxWcVoNVf//rXRtz94E8ow/HAPjYoLmcy6dcOKTzxn2MRWHIYaa/suxL1hL0rU7y7bds28RQleNeCVNauXSsOVPUMNZB2tsygOWbc5IRZd8fYEQ3vveFGELS9rGHVn9f9/qMlY/epncd3KrTMvrqgoip6pQGlgaxrAHmD48ulbv3RaLs//p3EYpja2Mnqic9EQUVUiva0x/IMXiJziz31wH9RU668gABkvLSXBgnmZKjoAI4aZQFqYSAQvWb7TKS0RgBd+DBU0xZ8itvjgCZ5zjnHlHJ0jLnAcdZfSITp06fjWaMNtmBrM0uL8BiF8GGuY/3jcnEW4bob/zkigUs96oF3g8cDdZlINTeHBjLFu5WVlaJYErwbj8dFyo0bVSYSUR9ZqKeRLROBk3mikEwkaPzfR5XnjkuWb82EiePYveoWwsPh1vV/yk+tkjXfvjrH2VWj0oDSQOtooKmx9uF75VPnn31Jzj4HMBpjJ6sFZcpZoFekF+ueA8WxPIWEOErfdUDb9ryZdNhX7HStgwzErKx52ZXM0iEAOPLDXRS2ArzysuYlT1Sq0cJnAJHRkJ2h4ketRTwLzpBVguyog7MsHvpB8znzJ5Tr080nLrdIjkP9Whv/OXYaW4vcnyGp/BlsGgtVQ6Z4NyfH7463mpoa8cyLiorEw7TrSLUgKWmzbaMDkTPGeA/md663y+jSFT6zkWMGmrFkLRrfpaT8olOTtabrm0UFxpLxa8g8BHYYVhDL+r66LMqpWCkNKA1kSwP1U55NrFkl4YZkV0U3GN4OxjYSCT5zZCfSi3VHYksjp69ZYemhh03CZoP+v3AgcGvixFu/dA7K6zhQB3CkYr5pixiIE43aCM8AunbOQNKOJa2QCN27d0/7CeX8dPODyx3l16+d8Z/jSGZuVP4MZn20saNM8W6HDiZ3llhqaclRB9XVqQUUvU9iCdZJ1Hc6GsB78JQpU+TZMtELmjQsu9gBjQRp48aNw8s6PJ+we6xfbvThUpJDrD5b6YguHbN7bvTtXkVHffdJ8wFr6fyqU2lAaaCFNJCsr6t9xLx9yjZz0W/viZSU8mZjJ6sbPuOklopIL9YtZI6HnJ6nkBDJNv9PO0JAhjwjPJFI4lwHMYawUv6dM429VQdwrAexQXGTP+aYYwxCeAP7CaBLCPaWwYqkDdT3Thh8ULOERAiSFh4hEeDOq21BMzE1DpjLr/0JJXu68WthsJHWdHrjP0dKzjrleDdRoe0z8cFJkbSCBjLFu2KUMYiP9IxuJ+F/Z5sbB9XuUwPw5UXSoKlTp+JNGtCWeU7jE3W0oB29gYKwsHmxacCStQj/Pf/sVlAU1e+MPuVLlwzT1D33+I4xBzd+/nG6PNQ4pQGlgbBrgBp3N66TSJmz1z55404TCXJzc7VDR3wmklrqIr1Yt5A5HnJ6S+oyRlw+UxuENMVBCx9Ss9LvUB3AMfqVK1f++9//njYtFcoXTUHiPGzdurVPn1SsNAx0zPKQQUiEX/3qV8hwhjxnkvOSZEGzPN08cLlkDv3aWXYWSUagy8OfQcXflauvtXv9eiO4yYn/Nmwh4isC5eWu/toW+6789c5tOnu7lvfc3vGzb0GIsSxGGUPWIiOQOxbFsLGjx3G/in87bJNTLJ7mVD5WOSsvODn/zAuKfnO3aOBpzjkVb6UBpYGW0kAyWf+fx+WTFV77B8INkClSLC02NqZW7YHPEJjWfxHxXNpjLanL2Ow7FmhS5Bp2aL9y8SGOlmNHLjqAS0UEowtuBtj1H+dBDxtsWD0RAMGiz7RDIqx5FY4WANOa+PpzhCahAFiH/NA/mK/QQvYyl1+4MdhPlz/dsN6IlUZKkO61C7QHOlJQSPLySUO9XSTaEm9K1lRHito596rW1tZApvZdyF9WVsbPwhKugbejsmnTJn4oX23nZKoSEg04Zi3q0mHPm7Y85kfCSGn7vNEntrvj/pL/vFX6xv86fDz3ukGHDVtVPXZtza83171eQ7aTPD98RJr6F5/dMW5E0xzfi33iYFVXGlAaCKsGGr/4RB6WIWe/g3OPHM3FZ9sJ6ut1CALAFKiI9GLdDxNOb0ldhrFAb9u/13g0VvhhZqLhQxwtxyZS/YAD99KBRk5jdKYVZM1ApUCfBpJOzZVxSATKxZ9zhWcWNGMHM78WKRm9P3R6g4P3GEoRLXVxaE4NT+5wNfn5Y6+omlEDWcC7gwcP5gJKoi7MmzePk51wwgm8rioh14A1a5HuqnXethfaJUw+2fYTaSxsBytsx6+WFD/yfP45v8gdcQQWIqO7lj3z1ttHX/yLr+ri/6lovGR95eBlW6/bXPdTg5Bgws7L1oJEoxUTRtc986itRzUoDSgNtFUN1D//hFz0wmt/zwjE7QTGQp8dn0nYAcmBnpe0x1pSl4EhEj0kdAiO5AtBCx9S1NfvUB3AkU7DabK0DvtpA9MNsuaaIYIHo+A75HyKyOmRek1/jjgMha0XvXDASBVYeXGhHchSTcYO5nSvncHBbQ5zu9yFV6VYM2srXEdZwLtnn302PydjAYU36ZXZs2frVXLsscfyuqqEXANGBhphUQwxE5ALTS75wobE2ZHOBZcgpHm+nVLceVCfJM9WNB6yunrC+toFgVBvU2PNH2+uuvLcZGVwC4pdJtWiNKA00KoagNtuw0fvSkTIOXhk7iFHgsC+nUAb5ZaFy5EpTz/GetMba09dJiZ6AOfNn5AGfRHfUQxLI4gxhJWOWsA1C4n1UATuDHwnUhk0QMdRpnWMy7FObzi2WrI88GAU5h1yLuyEZk4f9zCU0DFIC4wnTqoYzyB2LHzCsUFbLk7r2mFsUK8/DxdeFZJMuDphq2YB72I5gHvArFmzZvny5faTRJhedPH2Qw45hNdVJcwacMtadGzlx70b10okX9FExq2t+XjeAnBwI7PsPGhXXDytpumk8sjTeR3j0QD/mQ3vv7njpJFNC+a4TaTalQaUBtqEBuonPwMnSImoBRdfiV5sJ4DZTyNjMbba9TNGWfCZ0WGuWVAp60xjLM/KCw7AnUKiByPs5rJ/m+eWHnFipBcu7CUl1Ts5cOfgO2NUCpcGI3aYmCGCuxSbd8jporh/c3rOwZ2W9uhJNORZ0Iz8oMGvnTFWLonQK7fvJtSWNUFXYasGQBVuomPL2hVXXMF7Z8yYweu8goAAvH7VVVdla7Ma56kqzaQBI/eMeVHspApXFAtJEiR6Ve6Y7Qm6Z8Lg4CIiXq9h68V/CF6KsChZXll5/Q8rO739JY8k7zLO1JxYvaLijGPqnw/yUDExUAdKA0oDra2BRAKRGSRCRHfpnXfU8Y7bCUjXI0wDRXxm6kgdmFGptT/QWKQu63UKhblbPifzbxUTPeyyyy6PPqp7W/14n+HOa53PfAyvXxCzUreRAJR7FhG4c/DNMSVHmZ58GIFOjy1ruDM7ZIiIFWiccNaBCqf36ZQMSfDcSRXJcwR2E2dcbpfNfN0xKo04RXK8q/wZ7FoPT0sW8C5OZuLEVLrC1Gm999579tN7/nlj7TuNNyo7Q9XSMhowcs/oi1xs3uHV30gEeL/0mC96nM8IDA6SAbau2IBBpS9OK7rlj3Q/rM/SUF992/VV11yUrBbCvPscq8iUBpQGWlsDTd99ldi0XiJF/lkXvvjKK4ZlV4yx1WOMNjCiBx2CtY9nx2VIC582VEo4PcZ3HqEx8TkW1KsmOWbzQc+wYcPOP//8ww47TOP57S9J9TKt7vYFApCJJRD4juZQ8M0Kx5QcZYpsJXWdnvkzOGR5iOuhxPgOOQk3sYvTO4azECl5XX/uyJ8jzrgc19r9uvPMbXwqn5VoqSnngGVUsjLgO4BlvDpsTg1kB+/27NnzT3/6E5Nz0qRJ33xjAkPwZMC/I+u96667kGGlOc9I8c6mBnikORoyRi89Gjf2bVitHzl8P9n5fE5vcHAglDbFYgWXXl069Yucgw6V0pk6G95+pWL84fEf55ta1YHSgNJA6DXQ8MFbMhlzchGF0HDlFLYT0FE9RhMs5aMkm0jJHrSC4pVjklKCnpeqxQSQkRXPsXyUpZLXkTWw2AIPPPCAloYJzP93Alnnfo7oAgHIUCIx0mWkxtg/+E4I58IxJUeZGjuvL52euyni8e2cw4jvkPNiqfVzens4CzcO+nPH8znigMuRTxRZRbOaWxRiRtpr19dR5KRKOeGol3A0Zgfv4lxuvPHG4cOHs5O66KKLGho0Z/mKioozzjiDtcPp6qabbgrHiSspfGnAiMKoL3Jh2LCabyWDy2MdPik+jMZTTBWDg2SMe1esbLfSSe8glpn/oIYIZlRx2qj6yU+7c23lHhZBCZEjS0pK4A6ET9SxSivxdW5lidX0SgPNr4GGD6dKJkFMw3e/+VYLtuoYY4sv5Vf+RHqdqsFfN44Ax6ABpVjqtxARMopdYh1jB1xDl9pRYWZUfKKOluFTyAnLxNgCS5cuBVjURsM/4ZvzyeenkJX/pbZeQG38oYJDNKILBKwAdjeUk5KB2qFP8M1tuhjGMSVHmRovry+dXgzUJe61MCKQrrCFKpPwhqkV9KzYw1m4DQzyHHHF5QJzbFBLL7eowaNAd+cwmoQaCwItNKhqeDQQMcK4ZCwUgu8ef/zxM2fOBKdu3br98pe/RNLge++9l0XePfnkkxFVJC8vL+N5KAOeVSWL8mdFsJ2MCaCYBljHruAQ9sZND96y8W9uZ/p+ydETy56mC0l4tyYEi2JwzHUj9t+ONBNV11wQKOBu3tEntLvn4UinLv5naW5K/ARgoNKe2U6T4XYMh580vMqcmKk2pYE2o4H4wnk7TpSt5JT868WrXnxdc2bY/Soy5E6Hc/v+WgNUwQAMp97NnxHEz6pZQeDPCjgIqyeAYNfDyeZPCeymQQvswXvdRW3JYtnwAdnwrnWWZCMD0/hFY3MC3PzOOeccSXx6kV+wOnB2z3Gayy/qo/T9M5DqqwmUFd4NkEZYB44ezHHfhhMI4DUhyMTpFrvAyPIAJSN2mJ+CbXxM4aKQngPTeo7AcAB/X7hAwCqM5xeeQbBVA74j9JjbGXkKwglqH7u/9q938ENLpfDy6wtvuM3SqA5DogF97SYb4gDdTp8+HR4Lf/7zn4Fx//jHPzKuvXv3vueeexC2TFvWycZcikfLaAC3CXv2mq5Nstg6M4sOoLLZFsUyFDjau0/plA9q7v29/4C7DR+90zRmWLt7/pk76vgMZ8/KcFhwDddDF47QNpI243fEXYBcCFWz0sBOpQG5cRfLOzmHHvnltTdr56y7dVpVsO8DpH4zWZ/aTQt0hYResLnufZ81g9fsaxikM4YDFIISbLGADmgImIU7GCydMEmmwB+lhKfv4R+YgOPa1wgy61YsMPigBmAttOAXDfgFmHXSSSc988wzJsqgB/CUQJQxEbjDaxngG/vkWOE2XRwyBw9IAvkRvcEnKtXjPMgDdeGdHLcpOieUXNibxg6TF8cddfIhrDet5wi0jeKHvaL5WWkgm3gXisOL1H333Xf99dd/9913eLUqLCwcMmQI3gXz8x0isP6sFN1GTxbvxBrexa1fzyrZqWmb5HTW5/agvU6LYpJRvrpycot+fx/ceatv+ZXPgLuJrZsrf3lm/tkXF/32T5HCIl+zNA+RY0Jmt4crYDFStzgm0mwe6RRXpYFW1oAc737SQM7v0tVwjsIusaYq58iyw/5LuJWXuQEsecjj3GCkROgr0QKKOm53+IOPBCAgM0zC92DB7QSQmhU+iwd36uwH+DVr1iyNsN/FpGYlQbZh6r1Ag9jQEs0nCPXQ+zS3ewKlScTJuDW0IhZAczc/AQg/82JKGxyVyreVYwEK7+Ta2zt21CELsUWBXEKIxxWIRrxO8B11nEZSaY7niGQ6P11J/ZI5EpvTXDuSqMbW0kA2/Rla8hyUP0PLaBuWiXHjxtG5hEWxV5dPPKJqhpsAZ5c980HBAX4Wxdw4eLYj+ljV/50XKOAu/IDb3f/vnH0O9GTeHAQmy6794cqnND8bEC5HWXm5blRlJ9ZActuW8oP7S07wso11L1c1WgmwMg5I54ifYHkFzKpZbR1iP0aQBz/mSaA6Vg56is749bmaFRmNPmzDiAaAZEwm3zARLvu+J1AjNAfcTB6JnwDuJ+8OIAldb75n8XnnCfQOr2lPeI5oLZIvyO/DuULCoDm6ah/9a+39Tr40qckKr7ih8Hrd3N4c0yueGWggmsFYNXTn1wDMEljYoufJFsVSZ9ypSZYifGusI33SpBYB5YtiaasPGYlLX5qWf86l/jnEVyytOHM0/K6StTX+R7lR4jUAENbnhjP47BpuDGIEJTt3WJV8J9K0j1YtSgNtVAONs76WSN6YJB/UCJEHOCkW62G/BHC0F7jt+gG7gICeYBfMhVxf1IEBMzKXCXSBA7xj4UwMYzCzEDPbMFrQjt5UQawGwzgNAsBxbpQNck+gozCWF7mfAO7DHOxiCKy8PgK0+Q/UFSgkgmt2Yn4u9kozP0fsE6qWnVsDyr67c1/fLJwd4JrmqgVmKVvI3B+H92pc58b6wNzzl//4T9aLnbDNuvUK0ceqf3tVoIC70e49EdY378TT3eSXt6ex4SyTvR1ss4tcJNWrNNDWNVDz51vr/uW67elT0vPUXe6XLfTvMpbAjYEXufF1+dPkh9R+o3RtjXwedj80Dh1rgKTcNswIYkUkrr91AxD79Ky12HHNa0EOdl9h3mOOOQbWZUfpLI0+LbviKJ+3RAyxPEdEJg51Qf7mfo44zO7epOy77roJe4+y74b9CrW6fACsuAlqYqSCn0fFiJV2+ZY+ytowqlnBLmbJG3ta6eufxfY0YgPbxbG0JDauq7r24oqzjov/MMfS5XkImy5u2ZpDsws123AGStYPS7BGj4crXNx8FlCCnhCMBQefgxSZ0kAb1UDTbFPIdstZfNH9bLn1lFpbuZXX0/gK31lW4BvALLKW+RwPQQl6saRhG2bDOdhN655AN8N9fT611DKvYvAE3BedHACFhZzGuA9/+OGHgIzaSp14CkIdvekF6sJNHgEoEMwBE4EJy1KBT9TRgnb0ggYFh9qEqeeIlgxCkEGr2uTHWDuValEaCKoBZd8NqrGfKb3oqvXpriVD3MPKnbC25uu6OBbFWmy7VbK+rubOm+qnPBPs2kSj+WecX3T9rT4Dloka8OmxBw0YnrtuEZTchMae69Q+GzwkuBcvzpTAHyO/MFJY6DZOtSsNtDENNDWW79OL/m+7lFP6vfBZsUuoMsEKSOBZi8J2aKHi5pg7faQWP2HkVAqj/Rfk60IKA1Yytw2DT7r3BJPICNFwwKMUuAMm2mJKWO7DeHluvkBdJqlcDtK7i7owa53m2kf+Uvu3u9zmLvzVjYXX/cGtV7W3rgYU3m1d/bel2Tl0e2mXwlFFOW6iX7ihtue5l3CI5kaW9Xbs76a+DeWyWGn2SSOl7RExMf+si1Cx9/IWfu60BXYdf5uRAVURA1Kz7/p4uHZu2rZH/ZI9638aWLe4V/W8kvKv20VJ58KCft27J6srk9XVJK55MUaKS6LdekS79oh06x7rXZZz0CG5ww8jeSoKCr9iqtJmNICg2hWnHeUmbjwS6z94XlW02I2A2jKZpRPb11BYLDCJn8DU3jSkF8pYI6Y4PfQsAJRvl2lUaUNVpFpAMOCKHykfH/cEbTr2JQJuU4fzgfiq7EzRGq2me6lUgHDKr/Cu9KKFutMVtYRaaiVca2gAEHbUqFFIl7BxgzkpkVmYc8ccN50QOK02R6xv81Smo7xjx+XsdzBClTV+8oGpQ3qA9I/wHax96N68U84uuODy2G4D7eTWDWeSDS6wssAbDwEpUx572KZWwJPx6IkxOX+kZR5Yv3iP+sVAt6jgD3iX99JKYYx+JhoT69fQilCSVZVx/C1brLU9ShCgNHfkqNxRY/JGHe9osW51044gvqoqDRgakDszLMwfKAO7YIOXT8TZxQZZhnTRIvcTYGAXZP6dGZiwIr1bAGBGaf8EPQuLhl10fCOd7Z5gH2dqEei7d++OkIWmXuEAvgShTVvDnyOaIUAQm1fDLD8XUlXanAaUfbfNXbLWF3je5ef1mvaGmxz3lzf8aVu9Y2/L3MXqJz1Zc89vk7W1jjLIG3NHHlVw/uW5hx9DcnI5ZSYbzhiTCCF9TphLoS0Abt0SBnNL41lIO8eFNCq5efmnnI2YONHOXVmjzw0lyknO0KGqtaAGsCxT/+KzbhM+1fm8G3vqscDciHTnH61fYnwVt7JlYt9NeyxyvHHAPV4W6Mb5XF/vyNph+0S2sNZ1TnCW0HdrG30DV/Zd31c4dITKvhu6SxJ+gQYMP6TGHe92jwHdORe80GO/V3MnD8ufeEnOiCOqr7+0aa4e4N1ZHIfWxhkf4w++DblHjobBOPfwY9/55FPNDiE3GgnMcpJNZQMu2mPbqwNj9XvkRvfMiw7IixYuCuIpKHALXG1sAHpoeP+NopvvgoPy5VdcYURDc+HVMtfFZXLV/HPXAGIFSlSg5WuUUKCLW08ZmZvxVdzKBkp4uwby39VzfdFJRFsvm5R9OuYWRtozuDGwwrKjMcgLBwk3PiJPXge9XuAoBUNpm84iBuHbpPzyfBP6BVLfIdSAwrshvChhFynatZtExO65uWT3X0gycwJ+NXfysFi/3RGgt/bhP9c+8lfu8yqR2dIFJ4eGN1/CH4lG+xWVPtyt4MeGxOouR1bXzappKKqOFtVEi/KT9R2btneOb0M04k74jJenKuU9G9fvVr8sL9lIqHW11Rxqkzu2w2w2++4/fLRwrXZ2wOvYYA4ogFVRPGVtu1ta4LpY9KwOlQaggYQU7y7O381bS8JCPyW2HLLxYshb1iLkjGQNHp96ri9KZoeq4O+WWxiOFoibywrsu0VlmutFBoAb3mIaQ/XVwhpocgoFzWWIpZzQ+KGqhEkDyp8hTFejjcjSNPPzirPHuAm7KafLoEFOhlU8IRA/XI+h0zJ7EeJLF9XcdXPjDHgU/0xLTSJ5zobaz7qf63+PXcvvNfyZXht12kinW1tTPjSVgdxFG/0Hz98RK3XpFJr1hX7a5OgnwMMydD+abPyIkmUSY8Gy1QyWY45oKWv3kteR9DxZI5b4XTgyMLttJDMwNIbKlyBUwjgqXmysueumumcfE1vEetFv7i645CqxRdXDowEVfzc816LNSBLt3Vcia7emLf0aVjoQwKbY4snDsP+s5JnXix97ASnZHET6GTQVRSPP9ewwcNCVriunrXFdfgaKV6foSwOJFUskdFtyOvsCu8JCP+VmOUQLTLNsNxsw7oFPEhbJQcgZKZFB69JzfWmHoq0XPsEc7II/UCzQMBx8AbvxiTpa0M5KQ7mxrw6j7KJqdLYvUPJZCGFhbm1E3g3w5seGBGSJx3oOHJlY1jd8oo4WtKMXNN6MskERKmF8nlCyskJCGSnx8W4mGa+6mlMDCu82p3Z3Ut7RXXpHu+0iOblh1TNde4XMnAj14EqW1Y68Y8Z2eH9m4Q23RQqLssq4bTArIQ3Pr7gYHhcycVvjusjkUX0/Dw3InXeX5ZX5UoPoWYsBlkO0bHhP4wOXHrzgDbxeO8RyEyL4ehbQ6AtT+kAdqoo+wQiC5iO3MNk2k8DKi5IB4O7fv7+n1HYCxAILmjHHziRbLaESxv9JwdtNQiyPaykZqLpaQAMK77aAknfCKXIOHCE5q2E130p66cJ6ytoBiwJWsmSUWezLy0ec3fYfzc47+eeYqgcW96dXXoGNdDKNtsp1kQmk+nZ+DXjg3fx+vlQgWlsxwHKIFkBMVthWtl6nGMnSguT6In0mmmzDok8w0ltg/Qpg2rGYV1EIrLyspAu4R4yQ3YEtIuA2C3DZvn17WHC1Li87NCiRG8LCJ4uHYB4eYQKdV0KOd0tc/gECzaGIm0cDCu82j153dq45BwyXnOLwall2UPpIgJUlVRBPR8In610wSxff/wS2suUecSyJuMaRyPq8WWOYk0vXy6Lp/GxHVn9x54Y/yiRpvesik0r17dQaSGxYJzm/pXk+8K55oZ9ys/sJ1KzQZuFb2ZCAF2l4WQHoRHpeeMcioQNzMMAn6mixpO3d/58m2/DcWzQOaeQWZiZejA8EuKO5bEYEI9Omln6JDgMVFfpCvD879Ouvvw6ULGXvt5MBbnhKlJSURCKRvLw8MNcGt7gwfoV2ofPyZ1B410VxIWhW+9VCcBHaoAhNC+ZUnHyYm+BJEtlj8PfbYqk1O0ciPVEQIvIiu7ojiZ/GTDY6xJcvqX/usfpXJyWrq/zM1TI065qSPzXGFzUkCgfvfeXd90baFdO/ouJIMa2Q3FQe53g8sXVTYtPGxMZ1TV/9r3H6u/GVvjZr47ocuse0RfkDXM8lS9fFlb/qUBowa6Dq6gsb3nnV3GYcXbHrgy92ONU4ttcQ/2vBH0illgEnGo0mEglKhU1pI142yPluNstWNv/7zMCLj7WMgq0Ubgxull1DiFQNSBoYGp4MKIhTxg3PYAIrgHv4FEpf1IfUrMK3z9sm0KphQ6XjU8UtzbLeT7+FLM0333zz9u3bEf4svfxBANzwW8NSnsjeqAcUZsqUKa0eJnz7kUMSa+hVcCztp82Ole3m2KUaW10DCu+2+iVomwLE4+X79U7WpNJyOp3BRX0ee7P9CU49qTbc9FOZObHrorIynbQLHrfR1CPBT4YhJCqrf/m/9f953CdkdD2j4B14LK9qTCzCX0Pip4bUZ2OiKpEEp0GDBuXm5vp/wCAMRe3D9zW8JTzgXeTxiN6f8XVxmVY1Kw04a6Dy/JMav/jEuY+Qs8qe+bBklHOvY/wvkTS/G9n7XgLXBRRJDmFPPown4oiNE9IcvjeI1G3QZks7zAJb5oI12k/puD8p1+Le+IF9cBgwbKiRKEmmXgNgTIXThZ/CszS7E3vmD3IG3JxhcGF8An0+Q3NUyg/og2iPbpw7frPMMb2lG71qb0kNKLzbktreqeaqvODkxs8/djulqaVjLuir+4o5EukWlzSi6njcRoXp/EY9SyQav/5f4/tvNUx7O7FhrcAge9VYTqys//qC4vd/WjZjzYZFjfHFDYk6Cm5NBfmH6+rqTE3CgfwB0/i/j6p/d1VinfBUFsayKlKz7jXoG1mC1gyui2021aA04KGBHSeOjC90Mf4RMjpx5HeDH3IwnVosrJJJ4HELJwQejMwSR4wPhMsv9rTB2grPB5YSAlFyYX8t6kt+uINSIaTDqBkauWV2N56cuaWir6JoPP0A7sJdSO16xsbPPc10h8xK/DXLKQiHbvKYADe3XtdvIjMvpqPTNYpPnTq1NbNUxOPbBnUmbA1BUAKvdlq4RVuF402qEhoN5IRGEiVIG9MAXHglePfYyo+QL7cipkfhsZwc7IipkkZUHefbaIY5FKLR3BFH4K/otr80zf++cdrbjd/MiM+bnaxLJykxzqw+SRY3UqvtPuNP32f8qbHd96SLXDl0yXNPQnZ/+204LkfMS4SNjY0LFy6UgF2wxbKgJEFd7mFHlzz3VsVpR0nMD8WJqjPLX4OVl+nf+pnBdbGyUsdKAz40kNy+TUK1bc3bZPUn1oX+r84mW7/URnEg5XIHIKsmka1fkZI9tChgwLWOOdXgSMC2slmkgQsvK8C+rIh71FgL9wnWKLy+OD2wNQos0PiDYAtu5Y4ZhKWliOaR7bMpjQ52x48f7xkeG2tfhhsDHAZq9Rd4mJN9Ol1gRubNv+QhOnvpEGopd9Ew5rLnDwLgNqzLsONiLyybGq8KrKQrDO6crYh3qbu5O9iNFLVTYFe7vqH8UvbdUF6WtiBU05xvK05zWWpMyX91778833GC86noFo6g61Mmu4V4G7VMA9yWeW6LeFN88Y+pv4VfvPby2iWLiyIE4WyL8ju3y2+fiOTAQbk8p+PWWKdtOR1Rx+dWUlC+6pUNa96BowKWD90sHxZhcRgIxIMej73XXnvNzgcteAnZfsH4GLGZjnXqhQUDRw74UD8yf6d7Xcxc1JHSgF8NlA/tnqx1favcbXnV9pSHjzM733cAY3i6ZkUyfLIGiLmpmDPlfr28xbOir6IYPsGCyyw56CnNDQN8BL8Cn/cTbAvT/GWZwwAXOEM7tOWk3O+xANx4LdfILR66GQsT9JFhkTrDQywDVp6jb3O08YoNGNT+3a9tzaohLBpQ9t2wXIk2J0fOPgduKyzuVOu62ev07a+74l09YFCgqDpWuwVCxroV2BLgplbYm+59JgQWiFGjRgXe6AAPhD2H4A8cjr7uDwIkrSE52602J4T8XPs+3RjOdqKkIKmnJYaJ72oLYd04F1ik8IegoTqIZ1unHfnnHnrUzN67D1+zmI22fw6qW3Rgzaxvi/a3d/FAToGuiwMf1aQ04EMDyfo6CdhNRqN9hwzdnt5WJ/MdwJCFhbz16cPKc0zAmYFZf3Hj4nkrknESr6GcgfyY8dKYRlrTV1GoEZcN13/X9BCGT+ZzTA8ItYyueZXdVfzEZMAWXg3sAtljLAqzIqPC7cq01Ufh9JyDOMisYdxjly5dumnTJrbrQCME4LbcpTkrzlzkKanr9K2bSDmxeqVExuiufSW9qqvVNRBtdQmUAG1XAzWHHysRfmTVlz0aNzoQ4HYPXJgqfu7gnIORn8J+G+VEYiWrORRgT4V9RWOPpyZW+maMo7vuYKrBJ+po0cEuKN3sr6KAqFtBvO8QnnjAYKyFGzssPO+Xju288ZjKT3jdqKR7XQwOqqY0EEQDcmeGaPuO38+ZA39N/Jpg1TP5PgW/AyAMliZaGiFveX4KMW9Fu34aQ3t6C7kSOD121NlDniFQmlgAK9m2NkLs0Rstcb4Q7euCCy7QRnOHAbgjsxIIlGMIp+ccNEbCl3CPnTZtGqA2S9hGKTjgFsipbzQrnLnYK6nr9AZ/CXGzdSXWyPBuTJp5tNmEUoz9akDhXb+aUnR2Dex13W/tjbwlShJnl7/ED42KbjXBM8y/J5aD3cLg6F6DhQO33ZTnKzi40/nqgT0VO6MhtoQavaBxtLw6jmoOEH/UJZfNjRU4Tsca96pb6NCb1nVx4KOalAZ8aqC+XkLIUrPiFoFfE6IWTp48WSN2BFJujPQ7APbFjhkzRqMKFPJWNLjy8GEw93KPXn21yk0Eazunr14uviRTXDvsv1ZiHOuOxQgKxnvxruuYFnjr1q0azfqpBK7GKMyKjAq3K2sUXl+cnnNwHKFr2NrJAbfYwVlx5mKvpK7Tm157JPTN0xVfvULC+GebtV6ik1B1KbwbqsvRxoSJ7TawsmcfidCXbX0qP2l+pAmZOREvTDLW0mXYNhxvoxZqfgirAOhTxeDAe4NX4BSBR6/F5oRbMGAurFBoR69/x4nmA/HR08+XnNyA+iXW3nSvi5WPOlYa8K2BZDwuoY3EYmKv8ftN9w7Qp08fOL5rPP3nmBANruJyfA8dPWO1SkdjosDOdVDqq1sGAfwl4LMrTmT0GX4IfCkfHlCeaYEJwDQiIWB/GAJNsMLtyiJzSZ3Tcw6OxMI9lvQ4npRiR26q6DDdNIiz4sxN3e4HOn16iZTd+Qbrkdt3o8q+G0ydLU2t8G5La3wnm6/7+bKl865NW87Zpq+540aPvRcph1ooAejQPy4EvWHbcLyNStSq0xscJMT+urjNCcGDYTfCJ2AurFD+zdVsnswf4QYHs+Qjf3WNucF0hPTCuTy3cGbXxcRXHSgNBNJAQoZ3SdSEd43fr/6L9juVTg8OgbySHAyu4nJ8j9Gm3MI+pdFXUYz8jsgigUhnos+uhZV5KR8bCeDLpJHA1I3ov9iINnYF3fqGT9TRklrUojTA1rqTFffOt7B3PeR2aG7JdiPVNUxqVtM/VnSPW9MgzoozN3W7H+j0rbu1QO6/G+sts/64n5vqaSENKLzbQoreWafJO/F0eXrbazf9I3/zJxY3NT9RdSwa47aNtHddGBwsrFvvMCuPcEfxoz17RwoLHbvQmJNsKquZb8+YmsZ1cZtCtSsNeGugqUlCs2T5chgyuRuS8ft1BFISRjo94+DHK4kyixWSvW63crUsx3O/3jR8grsfpzHvNso6i+VYNx5jHcm6txV53YbcSTezMkyMT9TRgna4OLOSSslGq2nboWG1lRddw1r0Ykasw3TT0IyN4oG2fJimzvggWVuT2LxBwibau0zSq7paXQMK77b6JWjbAkS798w7SnY37Nm08cL5E0Q3Nf97uUTVGNsUHG+jIqmlrtMbHCwEaR3iMYxnD88Ij50iqIuPZz9cs/UId5grEon228OhXW/a44tj095jp/NQ30oDmWlAat+trquDIXPcuHH4ZcFd1fj96r9ov3Pr9JyD3CuprKyMco7X0nAolmJZjodRtvsxGkkgn2BkwUDsP1Y80aS+lN+5c2fDsos4X773tmoTsdgU2oHXF7dD89gUGIHszXCQQEwx5KvDPl18oo4WRDhmBfZvyyuBZZ7MjOKBtnxYZs78sGnudySZdOMTad+BeZy7Eaj2VteAwrutfgnavAAFl10rP4drO+YVpjZHB93LJbI1tino1g6xV1bX6Q0OMmrvPredItibLD6evRkRwh/AxlZoP8NAY3uE28fFdhtgb+QtA/KM334m14UzVBWlgaAaSMYRpdq1xHVsgV8W3FWRYVsjfvoLmAAAQABJREFU1X/RriMtHTq95Q7g5pV03333aQzsVlvkOWNFX14nI14iOaUG/ftD6VoWsCybFJ+o24MwRHM1NwMRTWpcbF/6XMbtInh4CkNCeOp7FsGbn4ZBRMHWN0DbryZQIzEisjG/DnyijpavztJYAuxaXgnsc2VgFA+05cM+c4Yt8dkzJRwQfFfSq7rCoAHjmRcGaZQMbVEDOfsPyznoEInkXWORJ0ePDLqXy8LQ2KagWzssBK6HOr3BwZXUuwMWXM+dIuzxDEpPdsYDWH8kew7RCHR6g4NtJHYT2tqMhrLC/PT22BksVE1pIDMN3HR9Cku5MIkX7yG6oiIBoUao/6JdxtmadXqfdwBYf7EGpXFxs9oC5Om/QbLfg8aUXpEKqU9wh30JkDQrHPwZLMw1zIK5UkWLvZBWeAqDqdsZMQpMJ+yyoNLChg0LLra+scDDBiOnGhLCeXrogiHYshJEmKBbPpzky6gNKZYk4xGQXtKrusKgAYV3w3AV2rwMhf93s/wcjt+y6oQjDpfTyHuNbQq6tUNOb/Tq9AaHVF8aDgmBdorA1gt6QwynmvEA1h/JTlRObTq9wcFGFe3SzdZmNFx64YXp7bEzWKia0kAGGsAL4YzPPpUwiOd2sLqiMmr9Fy0Za+rS6ZGv26fTEXx8nSM51K7ROIu+ASKAM01sPoApd/9/EiQ+BMhjhaFJM5X1SPcrgDODMUpf3rES249BycElNsaxEig2xdfncsBNt8HJt8c1lBuwWHwlsAiGSBS7jA0kTBi2FjR9L7Pv5ux3kOUs1WHYNKDwbtiuSJuUBzm9cg4eKREdgeXrnsa9Pv1ibFOQ3Ebt7AXrCOeQnkMCHs+mjPA+doqwLGh2oXiLAcH1RzLv8qjo9AYH+wD3PO+U1hzsyT5atSgNNJ8G8BvEC6GrL2RqYgTwpt9AbHBUhbsqL8ufMGyrvNGtItwBYCH273TkHMmh4kdjHtHbQQRwoIhECTwWUGJFNIYDvHUH30awL23uLYZlt2SgawAyPofgVxDjP1geDIGTySucHmiVY19POzRkRjBgWHbX62HL4UTh46ZHEKI4ryOVSHwlsEsI5r6FSW/Lh33OTFoSa1cnNm+UcMjZV+FdiXpC0aXwbiguw04gRNG1v5efRd1TDyd3bJfTSHrhbIf1d0ogv41aWOjWEYxlwcLSc0hgj2eNd5CdInioY6xFKH7IITi1oODB7LMIj3CDg21sUroZKGIO9mQbrRqUBppRAyzNSr3uoes4U35CCN0t5PFy3knmyAKN+h3A0u/H6cg7koO4HC8CuGSCJFLeF0g4DDeAVZPID3eIe3apMJWLqOeA268e7YJfAYy7SNWrnQIPhmA5JbdDTl+zgiJsBPoFBPcswOvw2cV9iZUgNz0CKy8r4iuB1iR8+RAmPFsLmr7/RhDdWsW+7WiPXtZWdRwyDSi8G7IL0mbFgQtv7mFHS8RPVlbU/fvvEgLPLmOzgvw2yhkJ1hE2Nm2HhObIggYxswXi+RmbKtLNQCSmfvsmbamDFtMAT7NSF20nmbTAkqpGzOMV/A5AcZ4tPK2n05ElkoORlJgbTSEJ36OG+GUUTcr2LUWj0YMO0g2B4lgGfPFp399GiJE1Dfry78zAlMvpsb0M/OF9cdjb1N5cOoTaofVSWloKM+rNN+ueaZAN1mhW0tgex0y8GC6+EuhzGd+weXcy3F7ZlkTsSQjh1oKmWV8bYttqypnBppIwNkQQLT+McnnJxO87bVR+r/Nrk/1Nc2dVnHqkRPRIYVGHT+dHOnWR0Mi7YJ3FI0qjwV0Yj0B+NxdH4rYOuw5u2amC+zhMNWmPhQ0VQZEoJywIYkXPcUY2k/gJGfAghDWaEOzVY9ZlsZ/VYf3FBjitHUYU2LHkBSBe9/9D4mJJzg44kNTc/Rs3ZgUXXVn0u3vcelW70kDzaYD/EvvuftGs5MtuE63O7bXvnl+aehHoYMlDRovvOwBdOoc1kRen+wPvlFTg/gvDMCVAWoc1LxvmT8kYdEVySNGuNOEZIUBy8Jvv16/fihUr5INsvRHq+4sC1O7zFsRY4GTfLmNVt092h2S9/OpoxOne9OjGNZ5+mblS4CUBxmYID5GwAwFOWbAfp+6QmAseuvAhcZOwlduTye1H7JVYp3tv26Qpuvmugl9cY2tWDeHSgPF6Fy65lDRtUAM5e++fd/QJEsERr7v20fslBJ5drvtIcANFwafNOsI2OmTikPDgg/r+azw1/T9pQKk7qLllQYPIvjaDM73g7IQlTjyiJGCXjpAma1X+u0ypO9Nnsnxr46cf1k96su65x+v++y9U6ic/Xf/K840zpic2rQ/PmfI0K3XdZCtC+ckGq8zcqso6fNpHsTVKBLsYi9+m4BMsdzoSZTDc5YHVfCzHU88BWHxP3kx2Sb0wEwIOAJS+wC7sxF2PMGbP66DV9b2qRpe8JqW3OwyY7rHgnO5Nj567fgOkoBYvKjPGUeSNwL34RB0tOtjF3Sy8YBc+dLO/kYBdKEk578r/B0PSq+y7IbkQO4kY8YXzdpw0UhaUO7+g/cdzot30MJZpnbfVAuHOhNstDMMMbEJ41PkpAJcpC3FBQUFdXR0dAaMO0hf5LwDfuK3rRh3JODhaGJvhsmQLqXv8gZq/3OY2KaImF914h1uvam91DWDRH69JgIZISoLAq1jkRSwOoCWsNpjWCpLJxs8/bpj6ctPML+Irl0nEjnTolLPnkNjAwTF87rFXbI/Bkgx8Ej6ZdyE5Cwsl2+H4uUsXu/6gdsRK+w+eb5oOr3wpUyW8AhLy7Zh8GCCXBezyLlT03zgzu4o9jnVcFIelHmDfDe9RWyYcZOEzwGLQwrqJXGJIr4ACsfWlHjgMGPF9sZ7TfqjHWGE9RxMJERKQQc1/0Y3icAKur6+X/S8JPLt06aI5UaR706N4F3mS4QS86H4jaIMwBatC83A283h1t43KVoPPX1nNXTfVPfuY26RYt+z43UqSl+9GoNpDogGFd0NyIXYeMaquvrDhnVcl55N/zi/a3ZGRlRfMYa+FT622tug0mXgbdX5KOY0ytQlPKa3d/0oiEhFteJds+5pULMRYuN8MHTqUgxXHmyw2jyNekkkAlwMO4l36tebah++rffBuN5rCK24ovP5Wt17V3ooa8P+/jR9a7UP3xRf7+rexnlE0GuvbP2fYYXmjjs8ZcWRLYl/ujdZl3JJFC/ezCqYfO+BddME66LMAbyG6LdxVJUX4jUucjkQGmbw546YEVtpdK/iLtyZGug4GPk+QzcLfSdJ3nwDuH6c7AOCVYMGtpPInxtz15U07w5b48v8rI4nE9pF7Jja5ZhLOG3d68YNPtYTQao7MNKDwbmb6U6NtGogv/WnHmINxj7D16A25eR2mzY722lU/Tv/bEThyWMn5GvbgdE0jGqvx5Zyna8XLnmFYi51YyHtFEO802tRW/Ydf17/gehcuuuH2gsuvMw1QByHQgPG/KhWmQzTy1sF7Dt6s4wkpsXdnXn7u8MNyjzo+76jjor37etNnRsGx1G7HfvrNMm2h385yVV7v/QZ+YWrX7btaIyAjVvw3f0Ztqwh3kGyi7fldqPMAt62axjsd6OZPn6+RwElpO9wbxt10Mat2AsGxMm4d8Bt2On/nNv5OQvzc9Cw8+DsJHytYqeW7DiycmunQ568Ms+O/4qGLzqk8R48W7CRQ8aOT8o51/Td2GqHaWkcDOa0zrZp159VAbLc98k+eUP/aC66n2NhQ+/C97e7JKBwvY46FXdParsuU3F+QWPz/XOiNZtCL+2PwuJX77yJcJY/gY3Ax1TTXCFObccB6Bw0ahK3KHgvZxiDnWmLdaueOVGt0l96SXtXVKhrw6dZSFql+ZZfCsmyBXZxqQ33jZ9PwV3PHDUjLl3vUcfTvwBEkluPzlTKQuuCYwWycnXbMkgzcHmtv7RVdUfnmTmbBRbZblgDsoGeCOR3pv3HjLmGd1XSMlffp06dru2axcxQZKHzvmt2+fbvGKw2nWPFGBD+rwt6+9rbqe3aN4Dams3E9gAlWS1/sedOz8AA9K7DvouDQvHW4tVwXNKkI8fkrY77FuNCjZ316JB9sq0SKS/KOONbWrBrCqAFl3w3jVWnrMiVWLd9+7AEknjK3OJ5MLKf9+zNjZbs5dma9kduT0l+bYzL1OJ7uwHADzUhExGOz+/DBJZ1HkOEvNN9u5R1jhklWuktfeE+eBTrrV0ExlGvAZHOCAc8FRXWqW/nh4uPLSLWcW+a9TQWFM5qiL67b+lFN05Z4KjKAmWmg1QZxKD/TC3Y/7m9JswVXoPus+NBT+plfm3VbLCnZgxxtjg81tTf1nUXx73TE5gIgS/kEA+FVVtJoKn5KIMwEhiz4gOELkbZTLOJ88ei27v8kdpSJXWjsvHy+wGRB1Hb9qKE9ZBEY+P8e1YYPBXaORWb1aVccRXAM55I//qx2f/2Xc59qDZkGFN4N2QXZWcSp/t3V9VOekZxN3klnFP/tSQlBFruyszbHBXL0CxQtuz5uoxozoGdxM43NFsKfUnxy/5XyvXdJ1riiog6f/RDtqUy8/tXZvJQ+V8mRcuy1ZRNHVrtixOaQEp5Js+viH9Q0fVATn1dvRb4+3QBEwQC52K6vh7uXnF0s9pjqz3aaeF2ve40m/Dr0XV806IHFMde+hm6M9KrpY/1Ht8Qp3HjjjUEd7tN58TbvBMBeAJJbQhortFPy8V7N43wF8FglxMCFGfqA6boP+n/iE5fr7H19+/yVGbwW/fWOTX/9vw55RoutVvLEy7lHjrY1q4YwakDh3TBelZ1ApsT6NduP3g/rpK7nEo22f/vL2ABZbHbXsQE70nnMsCl024/DhCJUhc/uzIs1Gr7M6jBGbxK82Rye3EJv2r5uSGVXfkAffT7bdyzW6YctKiSZTS+t1mCY0/Cy5B4/5NKtz9y37tZWk5KQjTldP8gb8kFt5NOV06sbNWsoR1T+BcP5/jRv7sKy4lJ3y9m1ve59rtNEg6ceS4F66I5ZbLSzWkvZdz1RoyiYaALnKF8jMMI4HO+8ZOS1E0CcSFJnMhg+GBLSVBcDpoa0Gboap6LTBIrA4KlhUateZ2Pq9/kr42O6N22atXBYAYnzFksl0r5Dx6+XkpxcS7s6DKcGVPzdcF6XNi8V3EMLzrpQdhqJRO3f/yQjyF4f/AU1ZqL/nx/+nL50TxqMDKYO3P1ZwTodHBhYQcAdVgBWPBNGgFJMjsrHaixMvUZeN97rr5JYt0pCGO2+iwK7Ev20cBewhbZnH/9dcGNwKR3iO27Z+DeXzhZq7t60+byaj/+TnL6kb+4r/Xe7rH1ev9woQunBHBhIAgCgazrmS8AuuH1fuI/BEy+Buisq6XeJ0Q7zJ5ZW4Lwbr9UaPzmKtiAggM+i/8aNu4T7QJwmNqtJwsLwoXDBRzwEbBGDuyoAHJCWFsiMU8D7Ag7HuI18dRaVH+hWLDgFvEIzj2SxPXgd0kJmI00P/sdwH8PdDI4f2E+GT/OdDZTw1sC+CMBKOhtC5MIB12fRszcjYByGAzpzJfhk4EfD7IyC/sv5/JWJcl6/6SEJ2AVl3vHjFdgVNRbyutqvFvIL1IbFK7jihvoXn0vW6c8h26k0vP9m/Ic5scHCU81Gk5UGRGzQHlF4CgYKoMufmp2G04H4Q4Qjvv0C3rp4LMGplz2WpGDFeiKANWtepc8SjMUzm8Xp5ER6L8TGbdrPnjw+lFXi7qmAQBDtmYXgGJYZ1WHaGjDSkWDRwH1D5D3rbusY1zc8pT1ZlgbmJRuPjGw6skv+n0j+0sbE9FeemdEhf/h5F+cM2NM7EGkicVJd+dGd8iWBustjHRYU7EmFNTv50JbdrqCfbuZPpDHDH3Cko98RHWku+m8cdwlzh/UokM8uXB2eeOIJ/HIBywysaWWpH+MmAHSLQBPMuynoTgDKJpV9LVZA4DXbaRjpejjJ72ZJYEap7K5W+H+z3dnYCwzeSbRIFMG3x73wwgtp7EsLpGFodePGjf6zVPj8lVEtpcqujWvP2zZJP3L6jkYLLkz9Kzp1qrYQakD5M4Twouw8ItXc+/u6J/4hOR9sAy/590sSgqx0ZWFtbvhk05qj4HJAuh5JNn9C5Uzb0U10jeAnrG/NCer3xhggw1bNnTdyZpZK3slnFt//hKVRHbaWBoxlVvdtTCfvePupVd4P10hp+5x9DqQ7QZMkmYgjx15i88b4ovmJtatb6OxiObF+u8cGDckZOCQ2aGi0b/9Ifj7JzYvk5iUb6uPzv2+a+13DtHfiC1NZed1lerLjWTcVnOyA2DAEVkm8ZwLR+imOPy4+UPAJloenNcFWO2oUGfL3YcDLsjIjlRrehyEMdru659QlSAWX39U4Nd8TkT4Tyf7/5FIYlVWTyKwrtcOArlZwpjJ5QfgWJr1bVnoa9j+Xn1+ZoTdCnl51+Uk73hFbLPWW3IJimVodpqcBhXfT05sa5UsDSHC6/cihyeoqCXXpyx+1QDJG42aHu7a7f6RJTu4vyBIFmfqMzEwklk/iKTdld7BiGaod6tnXtEREFiK9F8uCgQJnMjbyN43Cy68vvMH3GqVFMHWYbQ348S9/c9mEQ6u/lMwcKSltd/vf8sad5uipkqyqjC9aEP9xfhM+UxX5r1IyUct0HbWmZm69yW8SEfqQk4XODsioG2Wpf5EfEDnsv85i679x+a8sjX1OBKHKxOIbLBqDAsJTh50A4MXDtAW/7zGdBLK5YsI0nLkxKhMN+9zk4OdXxpXv7SjfsiGGuGCqkokGlP9uJtpTYz00EOnYueDCX8mJah/4o5wgK71G+EmszcE661lEf0H4MNgLXA7wrEVhYBcVmG0CFU5fs8JhnN6LKLwOvV5Nic2u2YAwNCvJPrxEUP1+NaAFOgW5izNDYaJ2WM1MObundj/goFvvLunQAdFI8GjHCx4MZljZYKMQJTTngOH551za7s4HSqd80HHW6tLJ7yPhSGzgXnK2rdL7RW1cBLsAXsA08IjVhOFgFxjuuHk0uS5W5Jnq2Oo8WtCOXlaY35H9TITfuHF/sJMRYrjRg6dPB30kwuAFyBXv2C4Xl7ajFzRi8T8RP037TgAoKj1Xq9SdjTlTwWEANlRNNPhfIQwwcqQjghuCWuATdbSgPVVA6d/BQDzddDSsn7gxVuRoq3v+yviI/Wu+v2v9XfzQsZJ/6sQWi6fpKIBqTEMDCu+moTQ1JIAGCi65CmuskgGNn3/c9M0MCUFWuuBMZty1YXqBXQdLmY4F7ejl5hlYjyyRj9goPKXQJRa355lII9Y5PYsbKnahrvcat2kLgfQwuXWzpD/StbukV3W1sAYQ+VWb0eV/8sCa2TkseZiLZG9WNd3w8psAKOy/BZ+ow8ERe6QAfGE8s46LxXIOHIEce4iRgsh0AMHwLKqnPqCtXxC1+7db66ATwFz8ZvmGJ6t/bSAQCecHcUOY+TeOWSTOpmnsc6JKrN+kqTIN5BqJSrYtWq8Qf/FmOwHE7g3v6TLI/MLFEbQu3NmYzyuiIuJ9A5fDSikcs3eS9OInpqlh/cQZLhdkca56/srYsK5NW55edQXc0525sNbcvMKrbpERqL5QakDh3VBelp1IKIDdgkuvlp9Qzd88Xqblw3324l6MtTaNGFZexPKEjyzcBhjIwCfqaEE73wkOdzoxPq5lJkviCRewYhlkHHJ6lojI6EjV9F7jNm0hkB4mtsjwbrRLN+lo1dmiGjAiA+ixAizT71crywRbnyS3b3MN/Ac0gF1HsPVaePJDhGHOn3gJ3Oj33pQ4a33tkzsaV+f25L0tXym+/Lq5dXGkfoAbD36zfLPmiSeeaAiTBoiE+dPpN457ghylBd3nRIWkhtWFtAJDKWCZz6IDOHhek61f+xwkwlOy4V3TKKRZZsVypzIROR3o9DznHN4HcDnw7oF3A0BbdlOyv5M48fJuS0fD4GrD5fKZPH9lGN6tafOby87s3bhWzqrgrAtV8HK5isLZq+IzhPO67FRSwaWh7ulH4MvrdlZN337Z+L+Pcg872o0gW+1YazN2RbC1OTFLp2UamG8lYBfEusuBNg5gBeuq/gsHN0VlDoP0XuM27UDk2iS370Y7d3UdqTpaXAOe8UP6N6yQCPXfisaV8RjZ/UrJXig/m9m3VFZ9SMiHNU03jfxqz7qfRld+hL+Da76LJU1+tBJJMu/KHXFE0bW/9+ATFETyQCipPGoic6A3N7ALoyNwGADf/PnztSHrp9KFe8Rj0eGgyMpUz8Swyu5IQK6WmC2mCcwHkIeN4gCX9XNHKcudyjzadMTTW6Ra582bh/UB/H/iZQMvHqyY6LNxwFG1t2It0+knbnCwEAiHnr+y3eqXTVp5ye71S4VBDlU4yhdceZNDh2oKvQaUfTf0l6jtCxgpald42bXy86h9oCVMvJABjzfPtTm6gQwJnORgF7x0lwPt1LhbofxUeS+n73QQbzMqeq91GdegsNbwhAaax/OpfUlJ4+aN1m7hOKLsu4I2Wr1qWC6x7K7b9UWp+tevEA8t9a/r4uSAxz3dWD2j5BorCY07fizY4x9drxjX/+U9Bn3/i10ffrHDqVtzOlnmzfphzsEji/81hcScrTCZWwFFgWGkvPnmm9GC3wvcnUWn51tuuQWNcAXBSwKs44lEQhvIwpw5hssVWaPOcacnMrYM5PScg4XA8ZDDWQ5wGRl3lLLcqRyZwN8Dm9u+mkCjQzDjNEG8uKSHY4wjq4CNxhYFfiKeHFjc5bk3MkKGy0WHdTsD+a9sXMW7Hy0Z5wl2wbbdXQ+q9TG7ettEi4rP0CYuU5sXElF4d4zaJ7FJtomq+LEX8o4Z22Knyu03uFdqeURLB9HQlT3G+LWsAJqIFiOYnbBLxs+jBSeJsTw5qiXYmblXHiaJqQsOmti0gScTO0TO95/KdJdQ1iR8RgoLO86ToWGBVlVbSAMAWNrlw0q9LX7I3B+H92pc5ybKMeU9Zh/+jVsvbRfC50k2sxsyOEUaQSrjA2pmj66cPrrioyF1P8imS6sv//Rzi26/P1JQ6DZaLp7bKNquhzoBqB06dCheIDt06PDuu+/y34tsrKRPsv6TRrI3bljVsGaElA4meBP2Y06GkHpKZBqsjRf/YviO7yaxiPNpg1aC5Xt3i7usz4o3mf9n7zrgrSiu/t57X2/0jjSRJqhYsaAI2LHF3rBFE1uiRmPUz5ZEozEaowZjI3bB3mLF3rBgQRFQOkivr7d77/efOztnZ9vs3vIeD5z5vd+7szNnzsyebf85c+Yc7D70NMi2biHpKevTuAy704B3BQPVb9Gp55ZcH2K7s4qHrttsEtB4d7OJ/pfWcf2j99XecJnirGNDhrd7+WMj0tqbZqyXoNdnXjFg+o4WFRXV19czSuk1qmqIOuEIydsZmajFuzvQGZlloSG6HFIQ/XibUnHk/I327tv+ve+cpfp4s0pA4Y+pMNnw8/eDInCo65MGdvjbht6n+FSK4hB3lHUjBXmS7tG0kgHfqrf3rf64JFEr+sjwNzZwSMm1f8/fa4y6fVr+pGysxLwUQb/i8bh1mjYirwOoG0fcHOAu1+3prO5n4w3hqiUSY3zhUrfd9gY8NvT6lVHcy9lTEIALDpwhTtDAToAJyyz+5IxM/WZLM7xFZh7HrFG5cmlc2exwueMpG9TvqHPXTj55w9N4xFyD8ijI23EXeDWBM2mPOl20JUhA2zNsCVdpqxhjoI0/nIM2vmYPqtkqJ24ZDAgTgrDdCvp99tnHbJITZ2eh3SShU3jHxKqr2TsUzKlIoZ33nqI4Bb0YpxDO5qpS+A/p17hEAXY3GgXBYBdnJfZCQamJlQ3P01Qv+MpNVuR3f7jjyaf0fXDgsJmH9X34ivXGI5VNXzXEEwWFMllgniHd6/7R7n+fAOySNY7DuoBGazkqCbmEQt0Lelgm7LXXXu7nxS+yrgEb+vn3mCs2YALrfLWns8YNxreXWWAXA4DpM/7qVxqr3k7thR3OCEBGCQAOkdW41zAqdGR49DVQ+iVh6284dgKQoZR4U3kwAFv4a+MJ0/UQ/t0CDWM8elEWWVsU6EQ86YHLYWvBk3jX+V07XGW8Gx1s+FMGhcr4krxnNt7+yY9jz1z/WEiwG2nfoezORzTYdYh0yzrU+t0t63pt2aNtmPpQzdUqXw2xbQe1e/UzT4f5LXfm+KCaoe0zNUiAyQGMC63vKD4bgBfiK2sbOTQxUvgl5tFMthK21wYuHdo0VVKnh2969aElvvvxZ3fpvfenuV+Ptp2mPshIAp6+/Q+OrXl8me9T803xDuMGvhKqtxAR+6y1jvRXKthaxNdfxxcvQDi3+OzvMX2NL1ucrK0xECSiqTHZ1Gg0N0fadYhtNwQR4FJ/u8A/N0busMZxnwtfoT777LNNyHvYIu+Hy92Sl5D6UyaQnhe5mOXtj6HzIeXUkomIGehh1TTj698Z9Suc3NzHRd2NkXcZ3cYbaSpWWfQ1tzoZ/MWVdQ4VNhKwx0Xye7NBtQy0zRP8uwW6FpbOWmEYYzIM/WO9xxQLC8DlBHZDXzvnK7S5qeHpR+f/9aruDektSsAGrHzy83m77RX6nDRhW5SAxrtt8apstWOKN288YJfEkoWKEyy99d7Co09SEGRfBYDLd15jnwS+oNim09zcnLFBAowZTj/9dOjGHnjgAWg+zOHhAwMsi90nWBIF8MUXFKoLaFnwyha+2Y1OexqjnvSrDVw0dKzNyd+q4zc+d8/Si/0E9Ux1U/s7H/a0b/NrostbTQLWt190eVmHgis7+upNn2t/BPaTCVrlrzBjVRjJKG4qb9ZZAyD3+Xp3ZBidOnVaty7l40W9Ou9uL07cqkkT23mHLhMmIszeYMgfjc9FeAt002WM0fsYo/NeRkkf1mntEmPtJ8ayZ40177FDnrrub6x+18yHBnBORIv2eLcodgKQSYPnBEZdaw7O/iPOWnEX2RsEHwVrHLLH5YlEw0tP1d1xY2LZ4uAB2SkAdsseeCZ/j9H2Yn205UlA490t75pt0SNueGFKzWXnKk4huk2/9tO+8tuj7WjoRq5YGoN9AtAnXOc4iHEYqEliTdL9Fopu8AHo2rXrtGnTREHmv061hBcnhSrutPVP3vEz23vumeC+6sEegwLNgj3b6sJWkIDjLn20e/Ghpd4uCzCYv3e95JZu/ivdfLj2vVC0bcvzMbEB0NA4LMwd6xadhz67oKNR/ZOx8VsDzhDitUY0P2USIDwkcBYKLaC7D5SQ+pPXeiI/z4YC23kb2ctAExEi4DQXqaibscOtRk/JVbDMefnLBlwK1Nt3i6b7woHrGDkCjnqQCqSI6Td8TSD5aX/lkSNv3UVzYKiBgv79+x944IGed5GjaeCh4m3G2maHy7+49a91t/8lPg/DTjvBuVD5A0/Dc0jaLXWDticBjXfb3jXZukeUSGw6ZI/4/LmKsyy98c7CE85QEKDKgQncxHwNVNZi2j7k7gZySejPvNyI58ePH7969WrF1m9rc5u7sWG4h+1FZag1Iues++/Ny6/zbIhCBBT449r6MG4f/Djo8laQAM3lHq9c2DO168mz01P7PvBaxYGeVawwaC+U5/3mAUOVKxWBaxGew7M9j3jiOu5uzJsUYMnKGYXEZ5xYRqUoybjtqKkeblscSLpsO2PPKUbpAM/zNQtrFhifnsgwPU9Zgm9Jv24qoU1U+oUB32TwR4YdbNECy2JYfrORhUDg/CGju0glBFedamEhXVzOmaeu+5j8uv/rVDCy0P/5cY1ELkDE4LJJj8cGDZMLdX7LlYDer7blXrstc+TRaPHFV6mHXnf3341G1YZZfCkRMkqBKcEftXJYKXzCLftafPPwiseqKAwB4b4H/5FHSURo0cJHX6O24JlK0O9Cx6wIRFRXV6eohdpVxuh+glL7Ii1KqKRXl2S6GYuDXx+6fLNKAAsU8BX9zfvvKsAuBjizeLjvMAFogvZCOR4TzgphWaCvNdnysCwfTWCu9+D0Cv+RR3QDYZYDStD7jsGnAvjGeh6h4EQo468uCAV2wRBdwwg+ZAKlGCprASsjT8N6T26gBD1PjtBlvJDc5fLDXe8LALsgAxoGGaV2qiC9RMUyYschkxJALfAcNLsU9rzPyYwGelDTge4sBnaR8F/eHie/2dZPZwRIjrPghfQ/07uIGITJ8J1kJqUj3ntGwTuGx39+sW/3Z3sWZwx2Cw48vOKFDzTYDXP5thQard/dUq7UVjTOZHLTEfvEZ6tcYpVce2vRRPHFtZ96Bsqnbt26WR9XWcNh58w+IR8caFT96Cj2PsSHMIutZt48Q5day39etoyXr77jT6tu92N224bGm9Y3QLGnTRr8RNR2yps+eqfqDBEE2zWstXmdBg/92lWcKkhzL5RbR5vBEor3SLxKrRsYz2PDWstFAOaNeLKU6mSTX7pmALyZ1/PiNUBRRra/MNId+5EoFb94Y2ACwNOQK4whfxIVQb9zbjbm3MKIYMQ/+tUgalFP6uSK4UbtYhuOh+FHoknQpfmLSbvfHCDruyitoXi/22deZlSmTBHCXbv8ZPMfVt958Zq7kUmrdyKOdOxccvn1hcdNpBKd2TokoPHu1nEdt7CzaHz71erfnKgYdLRLt3bvznQ7n3eugYZ0g0A9+X0jHYuARO+ZwZdv8B9sJnREJi0vcsMG2hKnNiwmBiEzao+V16y85eI1//Zj9df1Df/c0IhdelVVVX40uryNSKD+P7fX/uN6v8G8U77fcf0e9ailpWrUqSd4krcQTxtcMqvI4Z1ss8aBqeuSJ8xTCD3UtOnJvlaB7TzkmNoNxhGtw7UtJ5Zd7R46zyhg7iZCpcZ1xqsDTcqDvvdwyuvJhcC3Zy0vDD9hICZyiAoqRCbruyiDm8f2hpcHg3yIa7dD3ay7l126ff1sR9Owh7G8otPOKf7dVZGKdmGbaLotRwIa724512rrGmnlMfs3fztDcU4lV/yl6JzfywQqGy+ZjvIS+mRl+Jq6IlcFGjiazGDqUD44Fe4oKPrax0cZa96nIbgznhaTbjJ1iToi0V9X/Pm8tQ/4cbhmXcOkjY2oNaPK+dHp8jYggeqLTlc4pb6j06//0vNa5zAVW5ScpKlj6THJoZMpz654oYVpEDyMVqv95qIyI2moZnEYeAdtMTmg9cN2ci+OvGfoMk6zZIrx1XksC4cMe6dp1PHx0QZ317D7w0bPIxx9eh/K6mRh63///fdbe2RDTxjg7GL9+vXmG8ATR2Z3F2H8csRH9+koXoO+CwvKa1eQbLps9b9+v2ZSXkZqXexLQ4S/ojPOj/bp7x6tLtk6JKDtd7eO67jlnUXxJdeoB1133x3JmmqZBi9Q8xCv9UBXkSAFDSh5goIHymBHCmGaZrbY5ni2mgkDhu7+e4NACoZKsAsST4tJx7gCD6GdNWnwCXSlhKF6rmMpeouDq7kuaDsSaJ71jWIw367xMgqae5vZJP3HxHrEFL2mXwU9HzAubBh4LAlANJPHRmGMkf5QTQ5B5sXMOgL+bil5PS9U6ZEheuh33WnDF2YZQpGnm6gJLBNCJsnqAHsAuD2SBXYxYcB8XqKxcUU5akGTSvDs1qdPH5PAM8pDFnfR+eefn+7+CnmosOXFqdEmB2tuT9dCpk7ld6j7/p15h8KMIQOwC49AJVf/rf0nP8KIToNdl2i3qgLVd3GrOlF9Mm1MAvn7jFW7705uWFf/0CQaNT6Z5gY1aHTcyJXoHBna5AFvQes+s1WmE62HLbmCXp3SYQh7YhirqfkpamEdYdZ6favqo0WKtkURVmlxUJDqqs0qgWRVZWLpIsUQvl32jgGVp5ygyOTBujJ6TPCI4UGT+WWZh64OMBfxXHDDgzkPGIE4ZyZb7pkro6EyDvntVcOD3RFcdyF+LzZpUfJ6XqjSI0P0jtBlnHTTLLNJfoVHW3URNeEby9TEvFYAPkxWub9Fa36S/oTBildHym8aQ3Z3kekmGdxwZT13BqM8lRSvQb5fE8B3xIgR5rjoWpjH5s8pG6a+Mf/IofUqnz/2FuZR3k67lf3nyfZvf1N05gWRMnNInpS6cOuQgMa7W8d13CLPouTSABVv/X8nsfhMqWT5E4DCxk+H4RYDKEHPk7zDGorYNKNoMnq08kvpM8wmLKc6BnJdRIl3owzwWhz8zkiXb24JMOVuypmG50A2JZKLmxJshz726QskZJkHZPqYWA+aZ6/pFEKnG6jnY/wyHarRtNHoNs6AawJAW65/xX/kwRDuw0b/jy22kAcDPnI3tlOfEdFTbF6ih8w3Cu17UyUVh81QE0/NsScXAfj4ZDVLFYCFShEEh+4f3i8ZmWR8acAHEDwX0YmtNxVdCyGcqJG4buXf7lx2OYwZRFmo39iQ4eX3Ta145u2C8YcZUY2CQgltKyDSV3oruIhb6ink7bZ3/j77K0af3Li+4XHTDvXTTz81KdXec9zsiH69WHyEaRqFpkxnEZC1Qlt3ypQh1BtQgLn5BZbAx7tJ4/5WGYZav1uc0u9aHAI70wSbSQLxWd8qel5e0dGszcDJlJuveEysB81Nk05JsAfAws4mP9F1WPYy/aq3DQRx6DqWAVzYoU5YxmBu72ONtR+xqGNCs1tSUmIy93pefPsFCqQXBUyNHQlb/cjxX2X6G6SoSUlfB2PfQwH4OAS0ZiaZolJY8bK+3P7d6FUpi9p3WFIF0Rd2DW9coX4NWm8q+7UrTtQ9vPg3v1tzj9R9cDbWd0DZ7Q+2e/nj/LGHBFNriq1LAhrvbl3Xc0s7m0Ar3vrJdycb6nFa2B5unhwi9KaViL52kdkuC9M0g9rKY6DC9FcVrRVJmWFQHot92PDBqNzfqiC8WxSJoC1fDw3qR9dvTgmojXdHnniah5dc7rkJo6bbPuQZCHrrQQvZ0IsMml0rtrafni9eZzYVXXtx8ipz0AeZ8EJKUdLheT0vXn2kysh3L3TGhOQ4NcxIBJhmBWveMxrX8ZpQ/0GMJjx12CVUEwl8cwhozUwcYwtkJ+gtI36ci2wYQ69Kh6gDORN93FyXU7WQ9lcoXoOe77oeTStfXXDMoZVvqPjb66Ldepb+9V/t3vyy4IjjjEhq0m8n0EdbvQQ03t3qL3GbPsG8HXfNH+tSnEhDTqxZ1fDUIyiwrM3CGzNwPkTP7eSgI8nCwNF09i6NkG39zoJhxhaTV19tbj1h3135W2UYansG6HettvKJ6Hwbk0D8e7Fc7jWwvOE7ISAFPCqYMx8HDd32jnK/Q0FvPWh2SseeM+w8g2EucK3b3hdLFtDYma0V6ydktyq6tnfofyTR9+0boBwFwdixY20n5XpevHuSES38D1IC7pQCPXTvLjbDLRCb8IhSkSFixB+GhXGYJMA3TVatmQmhzDB8QCPoYdJgTZlkw5jsLw1xUA9J7K9Qvwat91Xq2sHd2LT5h2OPmpq3VRvLK77gj+3e+abwxDNDRqq32urcViQBjXe3oou5ZZ4KnB2qB15/3x1Gc5OlinCYmqkbo5bouZ1c9qZpsh0w+GfN0FqXDDwXiUARkUhtz7DDgH5hQrhJXensZpAALNfji+YrOo5tvxNqM9jM7s1TPCbWgyboPPecAUECowDXYi8agK9slmPp6tTLHWS3KroWHQb9Cvr8/PzFixerqUEAG2JQ2shkbGerSB2Av4RomX1wr6PZawTubxHxQTKTQJCOW265xWSA+BFkzuvmKZeAjAebQCF27NknqzKhlZfAN4E/C8RLEwCriSIn6MEBUyachUkLNImzwznGxAYAIWoFM1sV0dPFtVW7DjASGGOkkuI1KL/rtpv3t+d/Orx70yoXL+8CmOpWPPdu8SX/FykUJ+VNqEu3fglovLv1X+M2foZQU+XvO14xyMSKZQ3PPWH5ExCbNhRNbFVEz3dYZ2+aRhx4N3QoVgltvSsOBL21Lqkg9qry/lat/XitUehFbpZt31nYfSqIdNXmlkD8h5kG+TFwDSZSWhbrty0Vh9/MTk2cGfGYWA9aiiLMnjMAX2DKYcOGAfgWFxfjkDUN9LpAHg9E184h+R0L+qYmsUspyA+ARYl4ZjwRtgOK5SjNC9EyWvhm8QqkzNlMnDhx9OjRPG98ea5RI8yuzCLXDwhAJqd0wDeAO01WrZkJoUyZrSIv6DkHj/DRcWZCxpIQNT8K/k/0dHED24R7DfJ3Xa+8yLM9SzoZzH14YEpEIsUX/andC+/nbb9jILEm+CVIQOPdX8JVbuvniMUm9RCX/uXKlT//bNKITRvqJlYt0bdPvfWyN00jDrwPOhSrhFbX6pygt9YlDSP8qjHn7fGt+mjCzx+dqOg5sXypolZXtREJNCs3q8WG7eBpg6jYzB5wXuIxsTgYRvCeM3ibEr6lZs+eDaRbXy+gUuAmKvJ4ILoOGCFVO+j97IOH/5n5B0CtnKp/MqJ5ZkGQ4a/czpYv6MAPuYuVf/7zn7FYjJWA+YeHsv1zfglVIAAZUiRmdN7HJAwNvi3gLrsUJJTp16+jXNDT3MbXMMYhagcf9yHR08V10zhKvF6DDhJ++NzkB94e1hOQ17PWUbiivEOHlz4s/v1VRp5dte+g04e/JAno+Gq/pKvdhs+16pTDmj77UDHA366qf7o6pc7B9xWfMbEkp2jCqqDJwAodPmxIcF205zNMVcOTMlqPSeP48WzrWeho6Hco2iLQEVaEsRBs6sa86GG3h6VM0u7IJI62BRFj+YByxWehw7fLoSCUOeh8W5NAzeW/aXj+Sb9RFZ15fsnVN7trMV+CgQErz/QxgZ9/vpcRml3LDBeoEaaWng8dHjEpKLE1pH1eMTrvbR26cwjiPf0EVpzpUFlb2AcHhp754mzj5+cYcfiEDWrdxrO3B1ZvMKGFNSoW6KGzBIzrnoqwCAMD4ekMJtTAu8cee6zFvssYo/cxRue9jJJUTIfaJcbaT4xlz1p71EAaKzRKBxoIBlaVhuNYaGQpDLh1gTDrALiXUsf4hqH1cwY1zG8Xr4wb0aZIfnMkFo/kVUdL5xUOmD3/qfp5zLW5O4I07h/YFbzxxhuLFi1i/DK+NKOmOHf4MXY+SXoN+lAYMO+pOvWw5plf+RHI5StG7rn9Ey8b+QVyoc5rCWi8q++BNiGBpk/eq5p4hGIocxsTey+tSXIKfH3dkYE9G8MOD7oTSvg6/gRr4NTeYXgv8vx+E7Ejg4/f//qxMnz54PaI0iu9s2SIb9gpp5xiYQvi7JVxf6KIin+rYB0BhfHnnY1uMV/E2+61z2LbDaWGOtMGJbDp0FHxH3/wG1jpP+4rPMrU4svXHRaZ8EVgBnTgEzw/FnK5eEwwp+JRuzCDgomCSRIGU0r4z2wV5vl6Zx9zr2dmT3SYVnCMDT9W4VP5IGP7vzjDKAKaw2rfgX3h87XqRzDmQnv99dfxFCNIb/iuwlICfPecwE1+6QKhrWNu0ydZ9atNL+5V8xm2c6nNWxHtY35T4vuGxC4nnrr9UcfGhg6H7wLHYGCaYs69wwiZNxZ3EXOBjGiUIZN4r8pQ3tm0uanqrGPwjXCWu49hw3DJ/xWff7m7RpdoCYiVHS0JLYHNKoH8vcbAV0Pzt1/6jWJwQXTCiPNe/u4eRgAIW9w7WK8jbfIw2UIlw9YiU3gXi3pq/ZNjKGIRkKl55IRD7p8hU4YAKBbYhUIFC8GwacMyH+A4PgZgi1VCfLNTWmpQrlq1CmYM8hB4Hmo5rpnDYeUxYxXCTPy8VONdtwDbTkmyvi4+X6X24yaJDr0+H78VvQy+aV8bbOxwM9tupUjSY0J7ocLuOSO2ULLWLbPNLcNMJuH34IuzGI8MnuhYcXCcRYQ8pLAyQU8WG0Ykz9j3Tds0GK614W2QP+CMIpUwYZZKgAsBPfHoHXHEEQ899JBJk9kP3k6JRg91MvaQpZJsbYIeAX9nzZx5UGHdGbPH7x9Zg/gLYbqFFeN2+VH8Ga9MqXplCppEOnTKH7Vv4Uln4j3MOeBOMCc8GVwa2Z1F4IDEe5WMK9wtav9+XRiwGykqLr31PwWHKO92N3dd8ouRgLbf/cVc6jZ/ooFWvJcmv2ZYkKd0NnlAJ2rtQW7cYHIgUzPzOOjHoo+wndpAokj4X7KN2dIiCGLF6wV9ZaUIzgRVSi4iEoF9tFdqIdVnIM2zUzuKfGp18WaXQHzuLCMe9xtGpLg4NmBQmJ1kRsNqBii/usCbFe5eyREBHhNuLQP0Zur2gBFhxhAygRL0lPgDQoeeGQDxjJ5oxqz/r23A1M0//ZCHzLpg1vUWJ3CA9CRoa1XZc5dfzhSKX30lVtv7n8Wsp4q6A0lahNFCo9+ZBsw8oPmGMRX+Iy8ZQDPKRJytHaEW/6Ei3emfTNMMSQoVtRV8IcX37kP3/7pv2aPdi8dFVoUEu9Z4pByCtze+9jxW2GquvNBoYrvBZJcIzhh+UkOWtd9FbKKunl85movXoAzlZZKmj96t/++/5RLPfLRLt/LHX9Vg11M4upBLQNsz6DuhDUlg0+H7xJVQ7KR+D735w+S0dDZAunfeeSds7PB/6dKl1tni25yZHbDFwp7LkmGaq8Y4I09bXj6mun/cUPef2+zjs44QWwjhNK1jnWtjEkBYwZrrLvUbVN7I3U9vLrcCOuDGU64JMD6lA4yRd/otGqAejwktGigMQ/2GZJZDDTnvLjMfaL9LvNLVwvKGav7Qy3LNMYjTfLKM3SYzxJbmqCDAadOmmT7CuC2HbEqBqWxIA2hcSsBcOQk7AdmYIbF6Rc1VFzW996ZMmJN8/n4HlN/3lJHagYcNi+ndZhhBpq9BMhyXzwIhNmHYk1i9Ui505yMdO1dMeSM2YDt3lS7REiAJaLxLotCZzS+BxtdfqL5womIcX5TscvC2zxvyh0RBbRinn346Qonec0/KCsJNmYFpmpuJXJIxw/Qbyh8/eQg83/jGS9UXnOou5yX4PHT4fIFfrS7f7BKAmq3h6Uf8hjF9m0GHvTfDrA0PpPzYufYtWbabakzpZoh1j48mmMWuTVRucqsk9BPNvCskmllDjiktFvZcNpbBMD/FvjShUmUeHkJCVRoCFLTZA27OTTKMpilu48vP1Fx/aXLTRuowtxlshcSGSM7TmvwE9YHoxAhgwahy9zarPu/kxrdeUfeMrbfQ7MKvpZpM12oJaHsGfQ+0IQm81Zz3Y6PKBG232hmjqz9h+g/oYPBZ8k+Ag1deeeVbb73lC3bRFqZp+JwEJsnA8YorrsCyL5hz15X4379/f4tB+gxZW2hE0l815laDVtf2XN7I3ewFtqPk+rWJpYtsRfqgLUlA7YzsiRnCHAWaS2zc9LOURTlqQeOfcCcDRcEdlUxiOcgTvqLkWu88dnQBs85ky/pmmv9vZkchVqtFqc/v9tcbsMdVJzzveOo52AWl31mjCp1yI4SMnizWlsBuZhJ+uZelXQb4C/QggTFLwXXNoOV2OwGyNqm782/Vl5zVcmAXY6mbdCv8ISCD5OuqjFen/vO7aNIk5vOBpfRfg2Q4zhnw/w1T/hsIdo2CwrJ7p2iwK8tN5/0koPW7fpLR5ZtBAtAlbHhi8j1dVYFwPird68gBbI8FS/iwIbwZ9k1X/2gkmLcy6BjgGAhWbvADqvIQNOO3zD0QT6H1N/jkOJABGHjoP0IzNAeQliYMbcSqsed4TJ6GsXH0MITqoENHpuy2BwqOPN5RqA/bhASaGteP6IGYgn6DGbOs5ruGRAZaNO66AZM07A2CuSQeE9rgKPcViQir0zA++zx3dMnsgFOxgUlt0ymW7OV2LB+JsnC7XceZXsBQ4naH4naeEC0wuJl+pk+WOYz09ZRmQ/rJdHHf6HG4seY905GiZG1Sd88/6m77M7FvuUzJtbcWTfyNzN/hBsTzLrK9DEO/Bj3fY4mVP286YJdkXa08Bmc+Fiu765GCAw93lutjLQEvCWi86yUVXbaZJICF1B++m/nZNqX9sHfYPx2y7fOfl+xiqxcLqdA0wKHSjBkz9thjjzjf8YMI9TvcavR0vRPTt88jA0e5a2vxF6Gb1n1qVuE7F2hSGSsx4qm3eaarxvxk5cHI+eqLTsceFLlEzhdMOLbsjslyic63EQk0f/9N5VH7+g2mIWn0XVjVFMvQ+tzTSpL3RYDmu+++g0NoVqi2GQBBeDsEt1kq7xX/pSV7KrNl5LZkqICnBrvx3M4T5Jal/Y1h1wRAbZlevEZYWcZQVWaYJeBOsSI4iG1btTdeKbNvuXzernvCIjYD/uma/MqG43J3NX/8LcJqyiXufMmf/lr069+5y3WJloCnBDTe9RSLLtw8EigvL8eGj4kV+f/solLxTivf/4R+D9uGiLW/lHNcaB3gjx0RPj/6KOUAsmw7Y88pbLOOZwr/tTYMT30GuPIxM/YAB9jcTSuhnj1SIT7hS58y8W4gqqBWPGM/WUclHdZPvrv2pqvo0JGJlJS2/3wBPPg4yvXhZpdAwxMP1lx7id8wvmmIj1tWy/b1D09Hz6dcE/D0a8YGoJ6JpTljNHocZuzxmO28cCfLsSr6nGzs/G+239/ug481obb0zMLWQriysvF0H8hw2V0rl4gni5VlKmGj+8EsREXlHMZELUBGYU8y4E559qUQM43T/gdjVoPPQ+yNWuQov6DDN8sihar3sF+/Ni2vH1GqnKC8gyo++7tNR45WxNMGff7e+5c/9IJnlEEHN32oJcAloPGuvhPakAT4QirCg80YPKhn0wrFyPYf+OrM4uE2AhGk5+GHH8Y2NbNqzLtGe+U+hsDVWFsf5gEUq/Qdci7+BjKk5V0xYOZ+KN0k2pp6OK/mzd99XXn0fl41ZlnZ3Y8WHHykgkBXbRYJVP/+zMb/CWMb1wgermy6dE19xkDKvSagQicKzEe4EyMMvXJthEG0dMoONMxhK0VlI7IwaykEl6mVX0Y8WRlLmO0rAN7NLqhNfn4+VpPI2iS5ccPGA3eB2b3fqN3l8M8VGzwsNnAIC6gbbzaam1NOnX+Mz/mebHPdreSS8sf/l7/HaLkkfN53BiVYyK9QUWb9Vp15dNOHb1vHrlykfcd2r34a7drDVaMLtAR8JaDxrq9odEXrS4B0pefsddPNq/6mGMArFYec3vdei0AoZqCF3WmnnUzl7pArjCF/smgUOdgBz7nZ2PiNgsRdxZUTNGbb4i8ZFvMvnyMYKeeFTS3cnqFl9LtQBW3cd3uFCW/Bob8qu/Mh93npks0pAVy1UQMT69b4jeGSNfWPVDbZbjY/UrlcekAoIC3qvVefuddeVPut6WfjfEAeFeUVKljZ2oF7Cnt1gGmei+bhobaiCxqGkBIryPSpZPEXOdgFkxxNZWuuOK/h2cdpmIpMrN+2hSeeWXDE8dGu8P7rlZLJ+JKFUKAC+DY89Qj8mnkRsbLii68uvvAKv9ow5WQhgx2QWLjzWyJzsILD3aozAubhZfc8UXDABEdDfagloJZAnrpa12oJtKYEsI2GO7p/NDLkD3mduzT76jMOq3x9SP2Pc4oGmcMTK5vbbLONCXZRMeCcsINHPLOOuxqvDrTRB+mNeKgzGjNbXaWAbWCIP3WCYXHNQkYiN1Q34bXiZBURiRhhJFJwyFGwavBj2fTua9jlHWnX3o9Al7e+BBBDWAF2MZ6P61JxKBTeCTwHLehNB7EpGmh2Le+qDuDI7WIR0g/2Bu7Y3ajlCa1COh9wRF+jQdJyB5U4MnLkNt4vhYxRO9bl7ikQiBGxaZBgaNRl3wBbXvFkMXohMZaXk3t7HCIswn8ZzBh4AtglyAsA7cdH5kl50KcSoKFV9tmHYcAuFLolN9zOUCBtNyQWciYSifUdgD/j4COTNdWKUA7NX3wit8sgD/00qajDNk8ma2+5Rk1ceNxpGuyqRaRrPSWg2hXk2UAXagm0nAQoxE79qncndVah1YiRvGSNhOSgT02l3r17m8PrMpGK3YMAAEAASURBVMYo6JTGUEGMJpTwIQ8X6qypSeyjF2MgHgGZWKlJkG5DQU/i8uuo4LBf+VWhPFlXV//YfQoCXdX6Emj69ANFpysTxvymlMM+AYwUxLYqQU9ACivOVhRrt9ctCgnr9i2F2y8bb198WHC8ANuGUVNZFDG16wbQU+Q29DvrBvO8wkNtUPJEMN08dv2IJ4tVCIlZRNBqY7fc9BMYdMZIuBIX/7n/suknmpR8MYcfyADaYuSfE/TyVLbu1uv9G5g1BQcd0e61z5mnAjXYtTPK231ve4HtqHnGdPXUy0ado4Omd99QhxyCt93iy67PUW+azS9LAhrv/rKudxs/Wyta5qKHHqw4akNMpXo8etPL/RsXsTPClwlfoFSCfpdnjIqhZib8DzWB/6PQbk1nz55t9oAxuL+Rfr2DsmZ+hg3FyVri8uklb8ddo72EQLxo6h/+D6z6vGp02eaRQPOn7ys6nlkg1H4CGCmIbVWCnoDUjTfeaBJ4AkdgUBgA8OSI3Q0PgDyBILzyEpTEEM23vYBtTUOw3DBJblu7mLXA2kv6LqsZMIV21i9JrxFGIiRmksNeOVxsYQPe0KDu5UkG0GaR8kfQ01QW4K/5my+UbQzma+WuRyLtO8hksCWA/h7eY2BwhT0G+I88SlBOZPm77aXAx3gz1N0hbhJqk1EmzGA44/pHJSs1r76Kzr042qmLV40u0xIIkIDGuwEC0tWtKQEsfmEfA+uxuapm9i33dj5L0XssGb9wTerliCVXLLymtjP36dPHbJJfwb5t+EpBJQOfndiGgv/Io0R8VJzM0YQn2DYEJsk/fFFRahczxvDBgWG7w5jjAmjyVePAHjmBdLJh1grVAeWxA6bh6UdD9qzJWlwC8XjTFx8reqkcNNys9buH/RoLekzPgHsOOeQQbjikAo6I6oJtXjxBy/vGCOb4GQ4E1k83CwMtdhyDkenlvIPM89BBnzHUXvmaJ3tWKJ4sk0BIjB3CE4WYZDKJYRsfHC8ctoiZ5+I/8ihBOU8wtwCw5gmt0poDi15oKgsTW5OVz0/+vuPLbrvPiFqfcmjucYknTJgA/T2uMrdgwX/kUYJy1IIG/LDri21o808NTz0cXzjPvz64JvxgwCu+aH7TR+8omMIoueisixQEukpLQCEB6yFREOkqLYFWk4AVaGfRw/dtqKmKCoWW1whO2Phch7l/ZeF8UgltS0uFkcCCB1QrjwC+WJ10pKZKswArkmGSWGZFbAuTvOpH74VOR3dSwDazoXvV2HMAUkNLUJ6UorDw+NMVKhxQ1T/wL6OxQZDr380pAYRVS1aaFpye4xhw/ClmeaZACuY3wD2vvy50tLA4V+ho4T6MlLKYlc27i4UL5p62MI7w0df4oGV6OY/awKmpg94Bf02h+P8QPWLTeCbpyTLrScKYIa8QOtFwZk4sAk5BStua3VQ22VDf8BIDpn4pUlZe+re7jZi1Dwca3BNOOMGczPg0Qy1oQIn6/H3G+lCliuPx+gfuVBEo69IdTMPjD6gdrmELXaRYu1BUCl1X+ktA411/2eiazSGB448/Hn4PeM+bZv/jwXgvxSiKE3WnrbiLE6AV2lrRfRvXKRoyVIrVSXzJ5FQpLBNK+srFvnl5mdWXKFVB3UHZg1BSfAONYWDMSGZTx6qxg6GrIU7WQeJ5GBuwnXpvR+LnpXX/ud2zrS5sZQmojRmiffqPP/V0WgBh+siQyaG5lFvBOMHxFMi1yCtidyuAsoMJP5TpKR9oFMvniqvtaj8H/PXsTi4k+tpFcjHLu54sm4QxPKFzZZGZQ5s5WR4kspjKNn/+sTpucPEl10S79aQzgrcNyyY7SA8NStAXnhAwH254/snE2tXURfhMuoM54cgjGp61u2e2d4b7v/CYU+1l+khLIA0JaH9kaQhLk7aaBMhNUudY5Ju+ZcUR355/bk6OXFx9+FFH8eBnBx988BtvmHvX2AojtFNQ7eBrh+8rPmywycMyJT5g0LvwRI45gY/JP8NB37MopmHSh4emF1MtkmckmzljCixEJ8vKQ4yZGoYZIGiav/2y8hiVFgde5du99hk+JyEZarIWkkDVGUcp1nMLTzij9MY7sUAM5Zw5ALWDAk7k8OfVdazqKVCcGB4cFrt7uqXfxVI+wVZFQ6rCA5gKCsMKeFtAbUKTRBYmk4WfL7Nrr7cBf7JsEi7syqK4IUGz6/ZT4TlUio0MFS+5kkBzLAd5igsjwYRELFJhAkxBy+vuvkVhQQvlbvtP55G+E8pUC+ym091t5UmAWs9T4YXFf7i2+LzLFATuqgwGExhmqOSqm4rOutDdly7REggpgdbGu3Pnzv373/8Oj1HTp0/v0CG14hNypHYycvKv8Ldvb6GPtjAJ0Bvz5s6F57QrUIz+yRH7XPD8qyCgJow49BufYWIoseB/d84trCHCAo9m3AISVmBnXWtUzTXJwneXaiB/1VBgG7myY0dDJa1VWXXKYU2ffWgdu3KwAiyf/JyrWBe0ngSweL1x175wmuHXJeI/Y2cSam13S/gbj9/nxN0Os8yngGoVmewjMoA5bF7n32PZCYSY5qVGhIlvkmWygdopRp7/6GtikzBIMTx4a/FEq25GECxsnfmMGhvXyIIixDk6prLVF57W+PqL7h54SeFJZ5X+5Q6et2H0NGdBL9z/n33/da3ixsvbYeeK597zG4a7PLPBvNSzZO/imJsbLwGsb//RXO080U8+ujyMBFrPnuH7778/5ZRThgwZMnny5B9//NEyeQwzTE3zy5MAlBxTp07F2uK9m5pSnzhfEZxWwDSmeMla6o20Vh6hYfrxDhPsglHfib498QpagSWwm1Z3hnHxxReTCoezpJNVdA1RQCCOhgp6uarot5fKh+580wfTGl9+xl2uS1pNAk3vv6XAHBhG3qh9+WBwDwAYmQODXpB2kgFpIeE/dpVhbxnKhdaQ7TzDpE5OQG9QWOLW5QlPgduiXabned4Fz8s7utyU7hKZ/rs/WWAXkD2E7z/Gr0A4bHE4T3D35SgJQU+e2tAUEu7Ro4fFA1OFkGAXbUAJep7gXZjyZAANJTfmDPgPY2iYRIu1Jkxl+SKV2Rb7t2Z/R3l3Jn+/A6gwwNsG0VFG2m577V2TsHRANe5M8/ffJDcozcPsbTIYTMd+J43yB7tgX3D48Rrs2sWsj9KWQGvg3a+//hq2hiNGjHjiiSfSHqBu8AuWAG6bb7/99q7nX5rbWWVdAD+ReCNn8JJlOmCeoNzlCfqYPsKPpllk/8EKrMMtEZiEdLkvunvnHbsxYqoHfrKvvPIKPnuAtvzri//IowTlEEVIm137iNlR/uhxebuMcpfLJTXX/B77o+USnW9NCTS+5tpAKXUf225otHNXKgAwGjpUeNwLAlIMcmHnmWeScI8R6J4WHGTgCIgsw19P/lQIStBTIj5pzRXJPECGzsRTkSH6SMyATRES9qRyMDrMNIMmT22ohH53xYoVFj/a7mYVKXNED+WuwgBa4jF+/HjnVDYejy9dJJE4s3lDRvAiePsyN6hBhZy+mza0/aTvMCMWc3ZAx4mEenWICJHJbDAH9h7l3z1jX3TaOXIvOq8lkIEEWhzvnnfeeTvvvPPTTz+dweB0Ey0BSABet3a7bZJaFPNvvDqbN76REA4K+pyi6kh2S8TpMv3AyF4w5R5xsvjsAdoi6CtWV/EfeZSEcT0m83HnS2+4Xd7H7SZIVldVXzQRq+ruKl3S0hKAr9Omt/1dZaVmLPIYYPNtOX6WKxx5QDrE4HVodh00ws1IgHta3oqAIw6Bs9PfM2c67+Pc0p8rmmPPGGon46YBfUk/AzE1IJnG9Zwnuby1rRTxOtruZnYf9EP0fHscnBkjrMaoKUb5IKslB9ztR/KSadOmoV+rFnYbeBITCblEzsPmPtq7Dy95+eWXzSpMbDLSQz/z8ad5u+wp83fk4z+KvbyOCtdhZoM5tOYjFyerAAYVsaE7WMc6pyWQkQRaHO+OGzfu0UcfXbly5SOPPJLRCHUjLQEjf+/9od9SCKLjjI+7xlKb2jJ945vMq/0VnNDsklsi+m5l2p31VfA/q/BO2v15WDWxIcOLJgpfEFaxLYf109obLrcV6YNWkQAzZqitUXSF0NC8FnfFsGHDbHGAgWhxHwLacs0l6Ao7s5KQ0cvk9XeFe1qwdehoUZK+84GDDjqInwgzik1fGWm2zQhqm235D3eZ8tUFpHUml7fWShE1CA8ieROi5zHYeOGm7wz4K+QJl2zCMgaCx7xDq0zOfhGCTpGi1h7eTz/91CQkvbKioVwl6MEhf+8xco0jn1i53FHid5jBYAqTDftXf+DHEOX5CJKsk5ZA1hJQPlFZcweDY4899tRTT+3WrRv+I8RLLlhqHr9ECRSdcZ7itGOJxFl8T5t4gyuIbVUOej+9kcMtUSTfZOJobmPtdSDora+CFxU0PSE9xnu19i2D90rZe5EnHTzMNzw52bNKF7acBBpfe0HBPNqjd95Ou9FdYWl2uTEA1IfQUwI8lQ82mez2ECsJGb0MbcRtaW2u8hyN8GvGbWxMkjT96HXv3t1smOlc0WyePtRmEd0csSGWPMHNZ3FGfAnFthwfKzH7Cm+2wRsQPffkjUPJCyGbisghlIV+HStUtmUfCdGaw5B+knFL9btgwQKzhvTKEqUqK+jBIdZ3gIIysWalolauymAwY6o/KknUykwcebVHRQexPtQS8JNAi+Nd6hgeFSzfqFSqM1oC4SRQcOQJjoCZjnZnVuQXQuUh3uCOWt9DQR/lAYr89EZk2shXYPkyJZiK5r78HRWC3voqOAhStoNpeYx3MfAtQOj5kv/7m2+1qKi57tLG11XwSxDq39xIgBkzvKMyZig4+Mjfnnee865wGwNkfVsaxMF9ZlJEBsQ6gY1NunvmQI9W1kyPQLa7L88SouehHECTDtRmKLPPyQbiawz/szHyXzbTApglb9oEm13ATWvhBfSl/c2BkLWx58DchUQPd2ZhNg6ir1SyejeM1958S7VPt7GB3OLyCGqMAemVObvA/4KecSgsUpHH46paqS6DwRxS6R/k2TAAxNVB4KTOdVZLQCWBlOW+iiCXdVq/m0tp/sJ4RYqKC088s94/MgI89R5dlj9FvMHDikfQJ8hUDnqj4t62LWiwWeQBQmkFlpYpRfN0u7O+CvaWafnihT+KVatWOfZ02/k5jxBeuOCQF9Rbo2A1WH3Jr8vL2uXvs7+zvT5uAQk0vfem2pjhmg8+u/fNd209060ol2Z9WxrEQWYL9aTdQSzfNwkrNYuK75mDt4GgZM30xNwvqEUq+hoMLdZ/ZlI2bjQQ+ptHQ8TTuuw5hmWBhsEQzyNGC7iJZxZrNRgVT+SeAgs1mLvyx1nqePHixXiakCzzYjBEc04JbgDK4RNZOdcsZB4YKGGcnrbU6CtFxicDUOTDtgHq3tn9ykwzLeIgZeIzv4qOPRgF2NVqvk9w7mm9kUCfSuCQVAaViHToJPVsZfkMAcPGZcUYwAeKA/NdKg8G3hvZFfyCTahwj0HtDftpbA7ufnC0+wEHV75lcXTl8scf5irTBVoCmUigVfFufr5YBc5kqLrNL10CRaeeU3//nUbcjNfgFsdv2hVMkV+ybgp3ifTGh788fPAYCfRGdcss//Bws88TPlf8c4L3NUcGWXRn8pR+oGGy2WVioVP+eiGPjy7+sM9G4A/QoxXUZhKbgCwCkMZnzwxwxdDUWH3eSeWPvZK3464B7HR11hJQGzNsLCr9J4FdGI5zG1C6FeXes74tjWg+82XmDxy5jhaA7Pzzz1+3LpyPKhF2gd+r1kxPvrfls5Dz3vA0aYJdThkGatcsYt7W1nxA1rpyJ3LecpQJIeAZB2hGwn88dGEGDGK8E3gr1lIkWFeDg2zGwGtMIGhC+e+++65z584k2G8a4geW+H6jp172u1O/YgbB8Cxh7tYF0E8Llws9NDjE5/4gxurxG+3SzVFKoFwuty4uSt/b3xh2Dat1TzAgWEwk8LfooV06DezSfq3MxJEv0HjXIRF9mKkEWs+eASM0l4wzHatu9wuXQLR7r4KDjlAIYYfC6F5r0vQEIr3xfZdoEVOKJ1pRhXKCJ9HcPAz8EfSy8yPeCN8PE23jOB0nTWiFtoE9EwHCMpXd9Qj2d1OJZyZZV1t19jHxeXM8a3VhriSQXL+26e1XFdyeWLnBXNfGXaE2HM/6tjQSTcwprNJBLOZXsKwgTKYYObMnxp65QxeQl1+bAlVMNX05uH3/+ZIGVQBawY0gwVBoxwdexGx5EbcCodrw32HXC37YygYDaOBUJEDq9D1RGBGxpaykD7OudoBd4G+ESp5+AhuViGQOlyyWYPPKvy5VzTb32bhi+/79MDryLMG02mklQb/f7rs1vDhF0dSBd/k9YIJsv2bQbUPmDu+NLuL9EktcZVYB9Mp5O+9hHeuclkAWEmhVvBtTePjL4hx001+OBIrOPF99sr9Z97CawFkr3vj8mwHbADi7NWm43gif/0qB+WgFFitxPInmTrZ+x4Le+kQJSmt3ttsuU9DYfiXPqVZbG4XvQWzoiJLrbvWtFhXJjRuqTj8q8fNSUaB/cy+B+sn/hv2ugu8LNakFjTCG41nfln7DwCo/D5ICextrVhaIGhGQZfEjjKd0r1pdiLmfVSLnZN9/gR2ZDVP4MlZkVAxlFg7wgeBGsaCEJMOEt4AzFgBuKGV5ymB7XLeDzLaI4exIgVA+Nciv+17saCcfVkQj+29cgV0x5FmCQefAWQSxkPTQE7uUJ6sqqcadkYONp3cPcF7+V3Dnopi7OyopgMGGhg0kDp3JTgKtGk/4wAMPfOst01Jn+fLltgA2aZ6GjiecpsC2HvLKX41pnvmV3/lgV8UOA99eWbydH4GtHG98EfkTAR3Ix63nUh1rGEm9mgu7GEXdjI3fshK8xzMKNCp3BzYwg5swIeVzJ0cM2diCUs0ff9vwXHAImGjvvgg1HBsQTqRBnep6WQIAGRtHD4XnY7lQzi9tTuy0GPaO4jajWL7QSroTFsehL0QiejeNu0R6CtyVcgkiXFiuIQDIHPY2RAqGwt6GlQF6dj/EWP6isXSKkbS8CjANK7aOeSbAQUA3nsJ3hO1o8MDgTnDCAGUtT9CRB0aHwc48WDTxBNCM5qummYdpDWb5y6YBMTzv0tIQGAHKk2dDk6/9RwwSXgt+mr1TUaLeXm0d1SeNcctqeu87dvXq1aa2FSNE2LwwCS4jAOIN46ARw54srFVEUGOxfKfPx25XEEOza0140pKG56Vp2jRnzq5djAa/8Zb9+zH1mp5fQ12uJeCWQKvqd93d6xItgXQlUHS6SsULQHr8j78PyxNfZShxAZGFNyLekIc6e/LJJ7ffPrWaSeyYs/q4Ub/SBLsoz2yh0zDkjdhgYx0CHIQ0E0QzUII+lSwO/DjE/9Ib7wyzIy2xbHHl8QcgiF0IlpokPQnUP3qvAuyC1wvVXLkr7gru3woVwJTulO36e1S9ym+B3XTsbRhyBQoHapTBLgaPcs+zwEI/gd20OkIXaOtO80S0GuCzQLCL5rI2Granez5t5FWYXAEQQ0ZvhiV06t3CLCJksAsorwa70iBroyXPtjvSfUJUUhQxHuhW/NW7b48dK1TIaeqhy6KR+8oTCrCLvgqOPJGD3YxtrtjV97o0vYwaBdhF19qYga61zmQvAY13s5eh5tCqEig47Oho1+6KLk9onmlAQxOY7P6VHOSvv/76H/7wh1mzZjnKPQ7T/MBwDtCRYFmQuGXvpMniQEwDM/kFZfc8GWZHWnLj+qqJRzS+/mIgS00QXgLJmur6/woo5tUMutCHK5tYDQGmkn4mocMYAJpdACnYg1bPMwlwW743NtigU3oKjJF3MYUrNjzxGRf+I48SrGAAhFGSABmVeWRk1OhR7T9XdPj+82wrF8odUVsigAURjHeRoPOGQjpkAiXokdAWsh0paUzJzMnHyplNQdvvxFWnjANZRCAvQ3kcogtuRgwtMk+uQd7b+SyzyudnaEH09V4lX7zwrGWIFdpNG5w/vLfzgLJVP/vwNouxUZjnLLupDO4B96UxjJF1qVUyn+6xYcNhN+xDqIu1BEJJQOPdUGLSRG1IAnn5hSefrRjPkILojgtuZg7ePbVHaIlyyf07vhPcvxLxfPbZZw855BCY3JglXcYwKHDADOPINewPGRyikFLoDwxrIWKz8e3qnEcmTpp4S2FSbHHg5eH+R4pLyh98Vh27jnNCdNPq352uxmfh+tz6qWCdgmVfRAyBB0ZYXuE/8ihBuXzytTddpdarvVxvLGxKGQCIq8xcOPEkDMEZhLK2Pc2yImODbOPXxvQTjXf28lStOZ4ChtJgD+CZAHxhkMCTC5B5tjALCTXiuMfh1v4wWtp2zxVzAk/lMbmdq8i1fnlp5YQ50sJWM7GQ4teClUOVy04taZlDoBVtUwNuniEFzQFkJDNiOI7gCfR8smEeG7OKhn5cuqc48v7dNj862dhwdpfyo48SymAINkgPfXBp3hcDO/TfsNqbqSjN220vhGbEEe5e02Qis3uAzxwEW/47slaFdxFG2E6uj7QEspLAFm+/qz57bHdVE+jaLVECidUrNuw1OLU5xXv4921qvHJtA1Of4PsB3RjgAr4igLnQiuGDitVSvtRoGPCv5PBfO2PGjD322CPO/avDTneHW42eh3t3A/u8GecYcWF8FqI7A35A93iMqZ+FgeDUqVOBtskene0WTzcJm86M73bIExYLiWVLwvS8Ysyhd8fafTJ9OnnchK8JbL/DphkygA7DZ6uk8bX8FmcLyxkEa8AVb3zxqeo//FoUe/1GIvssqZ7dmMK7dFc4LHRnXW8t/XvxsMoAWHe5x+8pMG9Li9qVI4NahdGtqxErQLQF7oAWT6LsepYYggbID8iY4zwqz1VHmAxw/S72rqXlqwt+2bBXFQkoFt4VkGS7WwT7jcSYOwvEYENYivY7GmXbGY3r5XcLc08xLmUFhDkJtJt8GIxRygGLbFmhHOTeNdNfWnA8b6f+Hxs07LHCjn986fXahO+HD6/N0cWxs9sVTCj19XQm9zL37EsfXrwSy0ewZmlqSq025OrSGMbzC0/at/pjuTs5X3zZdcW/FfsF5Qqd1xLISAIa72YkNt1os0oAmoa6c44b6++Zcm08OXxxdZPvO98cPTS7bs+1o0eP/uij1OcNH7A9pxilA1TnWrOArRr7KZIdLeVPvtgsAgD07bffQgVouq48bJH54Xe09TtE11hXTfmcr6ry3fbk15rK44sXVAHyrltDJYrMS9XNv11d1+ASL4E5RdutuMq2lUd5ng8duv/hP32FuB4KKrgd7fH4Kx53BWEjeLmqFVOUMHMtv878tnmBHvCahwmomm1a3wLbddkPYQIsEws/trzcjRqJXoaPNP6Zl5nuULKHp7yjV3qbrrLDP1nmWX9GbsKMiiFGx1HsrKEtxmw5fAKUByaG9aqcUOjYUhY0yFuXX33WukdlHop8Ii//82T+c6vWz29MrownVjUnsa1tQH5k24Lo0ILYcWV5/fOjiuZy1Xt1zccsdzkPydGliRjJBT8Mr4j7vrXKH34xf+/95fHovJZANhJIA+8iaMr999/f3JzaP+HVZ15e3jnnnKNwstsS/hm8BmKVZazxsljoXNuTAIDFuscn39tN5UH2lE1dXl+7wG/snTp1mjRpksOMAcSPPPLI6aefbrYa8y6zwwtMG79hntXVCSoih7d54FTJNcRVV11lrhVm+i3huFk9CnUtglBUnnyo2i0RcfisPn7KiroNXmokz1kENdxaM+ED413TsfDiDgWBcqh47r1dTjvT466AshA+TeUk60flcuRxm8muEhy1OASGG/Wku5iZQDhUkg4i9y3tIOCHYj7GQmpNWOYkIW2us8JgPnHtK/tuEluJX0di9SPUyknwWQ9lhkxr3rOgsG0Q7ABPYmFh4RdffOGqSRUA2bs9ugQNEi4a3p4/YUg9iy7RamlZc2LcslroDpw9hr80zplDxKgYxsOqYb60bcOCz38c42ROx5FIhxlLIhXtqEBntASylECoFQ3eR0NDA3CGur/TTjutpKRETZPbWo1ocyvPLYIbFtd+rGmqShSWR32NGk7aZtfXB97E9DFyEEuEs4cXdMPo1auXG+yiHDM6UwJDrggFdkENTAziObewhrB/KOjsipl5CHNc70j4lkPdm1rqhWsF2AOYyAbmFmmtugo7TrdDX0eHgYexoTuU//f5ql8fC7e7gcR7FMVeHzz8+P6PL45UOKxEsBUv3SjHgd21cQK8GMMExssbdPEdc448KbI48HTy9zsAxovedwXsQRc9wiAXT8J3lTdP3GZQJSI+trCfgSfdQYMG/fzzz2Zcg4EXejRUwFCixuo8YDcMT2UrBaqlDGFWHo+QynkGbbvs6w2sqaGjid8h0Ts6Ch9zLtRZz/ZEuggdCmdtslWPU9mfXWC8+mjROdvcPW3e4YVJYT3lJ4cclddES06J7rk2/oLJD/Yw0PTzRKJW9OU9c0gyow78QUdesf3O/fdTMIj1HaDBrkI+uioDCYRd18iAtW6iJdBCEoDlKFboXuJ++H36OLBqWocue7CPMWzvoFiCBST+Q2WbSp67u5YuXWpaMoBmwDk+jL2Kibh+lbHnVKs7dI0BuMEu5yE23QO+Z+8x3uLgNcCQZXk77Vbx1DQ43A1DP7Bx0Zvzj9izca57F7+8FS8Mqy2aJqSTpuJE3aPLLw0DdrGJsPS6f0Am1jUFPoD+klKDMDuBZlc2AyUCR0byYACwC/sZKC9MEtoJR03SCvSAgYFekWjY5EnNQQz4jscEHmorhttqqKGt1P+A6B0d+Xm0cHBK66ylttDmwgS/sbERUoVxFJmwWw7CQIw5SdaB8X4oGnJWn0mNxEcaQ86zScP4zTZ3fr/jfykwHgO70UKzIxK1X8eYOWAuJNsruykrZ438+UF3MZXE9GY1koXO5EgCaeBda0tNjvrWbLQEMpMAN2qcUpXaPOHDoiDZ9KuNLzkrhWbCNIu0V3/++edmAZYsCzrZK5VHIEYTnjbMUJJKlQJqAHzjM4kPJ6vLyKEv2tKHVuogkyziSlQ883be8BCGHIbRuXndCwtPPHfdf1lPkC1Uifi0pxK0vACCPL91/w/jpAlGis8sOvXAqnfCiKLkyht5OCvvuyI7DwZYRoD5u3X/iyfCHBiQCnmHBZgmBwKcDP/dHsp4HDK/EyO/aYQ7PSkx99vhZlsNNbSV+h8QvaMjt0cLN48MzhogduhQRI0BzPVcKXLeFbWLzG7FU28bRZhBGsbrFQcc1//Ryli5rW2uD2BUftma+tdmP8IYSzMlKzwyidqz69Azh5GFMU8GvDBvxC6KWl2lJZCBBNLAu1gIW7FiBXRgfgm1rWzMkMEJ6yZbgQTKyspwFp/WxRfn91Kczokbn3HWCs0E5+CoXbhwoVmCeKTpJmpSG7xabfIWUIODD2zbN8vdTpo8ByN5TrXaelKmWRjt3LX8ydfzx7hsMLz45CWb/7b8uv8s/T30l6xe+kBan3yvhltHWRgnTZ2a17+48IRRNV+EOeX8sQfL7vasK0t3RdYOtmA/Y93/4olgY8MaNPS1PKUV6AGt0NYzCXsby5OamwxWnkCcMy+31VBDW6n/AdETduS05EnNoSMnTpmeNfwV1NTUEBs543FXkJWFeOplesvdm98gBfVHpXsdNuDZ5fk9REGOf1cbRSesqHuosolNe3BRcGmw3w7OKJDiIswbidrdeeiZQ16/iTuo8a7W77rFq0uyk0AaeBcdde/evbd/Qm12g9GttQRCSQAOsECHRbenCkcpGuxc+83Ahvk2AqGZ4BxsVYZhfb3yRTglB4XikJrQh01BzKsE1ODgA1qiDDzGg5Pbf3Bgz4EEzC/vvVNX7TUukJITHLfx+dfnH92vcQk7FF5XuSoxJIctlMwKawdrbC8o06Np5SsLjt2h7vswJwh7krJ/TpYpPe6K9SkXVyAS9jAyvSov6GE/Y93/4olgDSkiQPpmElZbeQS4wwlAY2OcOwFrWs6DZ9vqg5CfjVjRUWDMuSzOGntbPV0se9wVZGUhnnrb+AMHKVHDsGHcwFfeLB8rleUm+0b5uNFDP32n7xUmO1yCFguMN3DIBQgO55tisdiwHX1rdYWWQEYSSA/vZtSF1cj0aWoV6JyWQCYSoL1ZU73VKxbPkzbYVbxCM0EcLFLDKC0tNQ+bKuXyUHlqQh+2wGYCahD4gP0f/AGb7UJ4jAcl6N0u1QJ7DkUQi/2rpNuN64WhZ1Cb4fU/vD3vsPFV7zLYB/CXStaHP6j5FloP7GiOXKBJ+UQwAfjfgmMGNYiYZ3KdKw+Fevmjr/DArXKl866onGvWeq6Myy0deUEP+xnr/p9/rxmY7eUepsElHAhgxhIyibkNawtdoCOJeN3OmLqcDLpAhZVnRoY93h1RhDPSkdM48ULgZqYhz5qrotfD8ImBtfr6er44g/+Y3cGGZ8KECYgtguiMZg90V5CVhXjqTQLOEKA/ncB4q/O6nNQw/NgVdbO4e2Y6nUwz1dGyP/b868n9/rs2r5O8ROPNz+/SpDNzGFY/x5t5qhQRcCLFxQoCXaUlkIEEWhXvWpskYKbo79csg9PQTX5REqB9PAsXTv0s2VFx7tA7Rg0YpKWSpAQiDnLb/v37m4eVdlWTTOSXpyYlff1InOVe4BvBLywtL74rcOAAp/c+kUtB6QiW4ewiu2OAuds3NJ63uh5e9cNwah/f9OSiM/+w+s6I2KJnwcEw7ds8Ddapse9eDpz2/fdCcSvQJJ3E4IafAHb7Ni6lEkWm8JhTyu+d4veNt90VbGEjlbzUyYouSP0McGbd/yteZipYYD5arfZRVHtzluY21v59TirZ29hi6vJahZWnIvqa5yDcHRGIhF9buPr6+iKjoIPZ1BEKMbxxiFMVLa6Ca0gAvosXLzaL6a4gKwvx1DMLEEu3nUlgvHdrm8csrbkwsevCgn6uUYQtWJHf/e9dL9ll8IcPdppotaFpDIpaJjDesAYV3s0bOsIajM5pCeRIAq2Kd+vqUhZ+qaHX1tbm6BQ0m1+cBLCPp2/fFKyM101Zu1xx/r2alu9VI9Z/hbbJb3fX7rvvbrKCs6fGdQq2zioQowlPHcJts5DA95tvvimvioLNFVdcYW5fM5k6f1CLXeEtpdkVvXEvFk9VNR2/zb1VUWYzHZgwu7hq1T8eq7q/IuUqztMPRiCTNkiAvXeAudDeQYcHQENaPXglN0drR5871n338oLjujetCnMuRb+9tPSWe4yYyjskrjWuuO2u8FwZV/Qn6GE/o9K7k0pSwUquIno4/uMJHUnxupmyn2LqcgK1lSfiX6AJTw54apaKH0dHPB6yDCK5cRH+N0ou9uSVk5DGIWpVtBgO+43my0c0x3Ba6IZhiCk09N/TTzZdc+BkEbwD8ergtxunkEqJHoc9ueNzuw1+/+Btn7+jy/lzC7ez9e5/kDCi08r3P7XvAzsO/vSWbpcwta6c5GlMYSe2SZHf3opLE37mkOpoaL1YppD7FfnY4O1FVv9qCeRMAmnEm8iyz02bNrVv356YPPbYY6eccgodppshZxHa/266otsK6GXflsBVc/qVFbLVRe90T+df/1+Pa90hfD2preBqcKk75E+eNB6Fc262/O8erNJbWG0/PspY87516MoB2RxyyCEbN26EihSoEQALMAWWD7KPT1ejHBfQUwZvbtvXz56y6IyeTStC9jG/KTFxZd2cxsRW8ITK95vv6R9mxUfYs+bzJxedUZ6o9iUWFVAS3lCVvHNVlSgI/sU9YG6szDQ0SUVFRWWlsNihwGafHm/EUzoI6USCRwMK4DCsPyAhsu6eTznidXtEKoZeEzCOJ3IeDI0sD+QGPwaAp8woKGY0uwYJdSmAF3qEVQAUpdBMYw2EErAmNldllhRnDVU0+awgcSlGIse9k9kCiHPbCZkgDEO/M/IKjNe/cfGY6g+HrJ/WvXZu9+a13SP1XWORgoixMRGZH+kwr3jwvHb7/FS47aelezgxrqOXFg6M99XcvRVLH+WTn8vfd7xjRPpQSyBLCbQ43l2/fv1XX321bNmyu+66Cxl5uDfffPPw4cPhD3K77cLOSqk5fYm3gq8pnZTOhJGAO5DVA0Vzj64TZpQuFj8likclDyGNCGwAFGpRW3y1nocb1QtcwSNckVQd8dXoE+4aiVXw/jhjg+1ZsKrsOfVo7bS5P3JEOe7avGbykvMA5kL2VJNIXl5lTFkjIZKQLdsSmft+YxvFCO4gtF4qgokh0Of+1R88tvjXCIgVeBLNSeP81fU/DRgKn1aBxERgge+BFxnD/0zlwRmoBlPxTSxKOTBbUIgvq5U7R20dVQiyMO4zRxlbxOewD73DgR3gL+w+eYmTNNPjDEAk/HN7Jihigap5ksXlIAYEl+PYxYqNeGoxU9wVjFwG+ukydHSHw3QC40EbYJlftIHAeKWJmsWzhiGesPu0eEn7j+dEu/X0q9XlWgKZSaDF7RmAcQ844IAzzzzTAXYx3D/96U9YH1SAj8xOSbfaiiWAj70tkFXKP+jUbr9RnPJ20bptlj3KCQJ3d02cOHHIkCEmt+Uvs88wLYkijy/f9BPZBxufLp5qFhhfnmvm+U/gCuybO1pgFx9moBZ8FKEHwhcX/5FHCcpTCavnwFs2/q14QBvpmDrNMLBL5qj+U+7rdGbIIZRGI5PaRWpvucaIx0M2aWtknvebtbwLXWOX/cwxp+wyMRl4fNHZYcBugxGD/vvZ6iZr61i4k7dMb3E3AmaFTKAk3MabODyO0T7L8Dw5HwV91Y9sXUVOkBKHtrjDYSQaZllfbu7OA73RJeC1QKVh3AaDmBn1ioUhz7PAY05Cc4jLMRLcCZLzaRPsgoasdZGHUUeXMVa7tBhSMzJE9guM57UF0IYrIX/QQPLqxA0YQMNfgA5ihNHZbTLbHehO1NBdJUoQGFkBdiPt2muwK0Slf3MpgRbHu+PHj4cKVpFuu+22XJ6Q5rX1SsAvkNUHZfvURVWbeceVxCCVMLu7gG/mzAkySKAPBgDxh4ca1T+BOfznjBkzxpS9bCDIv6P4z23vXtvOqF1ikoX7MG/GWGUWFBOf7eZI3pU9bzhvmzsQ4NQ8i6Cf+vv/VXXGUckN6dhDB/FsnXq/+83Wu+TedXj1508sPjNMxFcEaz1+VfyN2mawsvCr4OveFQfTYdyZKAeJdxAK0db3VxivmwS49xyB2Ur6mVUOBwK+HEUF0cNLa2l/Xtqpk7AHdUz/ZCvPry6w0GTQxE90lvoFNAfSgo3vqKksNts2x1u1aYFIGPWW9Dbb0llYvLJz0Mb5OOYkWQTGM8cVF/5SaCccDVixBdA1kWaSB70i0QSAJkIO4iwC4wU4Zxg0zNGVPtQSyIkEWtyeISejdDPR9gxumWz1JfjqY6sQO018raFNkRLMJRXBq16taf6/wq6LFi2SWnhkA1au8UUE7MN3QjYZFGyeeeaZY445BqAEGllRpvzFh9kBONzk0I0BLqQS9ip5hnFyN8phCQAWVmAYQ8AR6MwkzQ28jz2y+ByFBZ5jGNEevcsmPZ43YqSjvC0fKu4327BTC/T986Ov9unU1Qg2Y9gYa3d808gZC18GE1hpy8YMQNgI0mHe5LY+zAPQ8wgUJ5xwglmU5o3EWrmuJiukhfuMzSQAQME5ZTKRn59fXFzsYSU88zKjMjWfxDwBBrs84XGGrle6u8xy/AB1yXYCKAHSBcaVk8NAQq7yy2M7Hd/yBXUp38rmPms87FjMQfIUlx9nDBj7yeRXBL2scsWQd+0wwKDLh9rw8sQlg6bWMynsdx30RMnLZRMOB6U4RIQaMyijKJF/C085p/QGrQWTRaLzuZFAi+t3czNMzeUXLwFgLxMH4PODr6M9vV0+xl5gO9q3OLZ8yWKuHrNVSAfBK9fuSKqp5j179nzttdcAdnHksYle6sLK4oMUCHZBvbljlSlUid8XDRs78FW12K3zNYzEimWVJxzY8PSjcmFbzqvvN9vIB/8BW4Ke6VEcBuyuyet8RPQwDnbBxAqfZhi4A4FiFWAX9KgFzTvvvIPFCnMMDgWqbWQpvCi7SuC1QDlucCkpqjM0k+iyL+lrm5qaLLCLTsmzHge7KCGwm5ZGFg1r7M6MASJlAwl+goH/yd8WB7ugdyhiUSKrot3i8usClBCvnACsuVFHThiS/wfSv6KvjO0ucNZkmiWPGXkIlifypOYgYDQZBsYb2qByzpA3WOt33bLWJTmQgMa7ORCiZtEKErA8KHl9rd8u318xhrJoZPeimMXBRRpq5Zq3wvdMNtQzjL/85S8HH2zFjoIWFhq7V155BYgE2jgeOw3/+/XrZ3brhdddIxIF4sMMoANrWtltGS1wC9IW+bUAGX22RT/QU57Y76Hbu16UJCNIUeX929hQc+UFNddcbDQ1ehO0pVLrbvG63+SRtus+7pm+vfrlB79Ll+X3OLRh51lzzBUA3CGks8fagrUygDskyKp71apV6YYmscZMHsSsIux/OtA0xwQ2hUo1ZCIzCahd4W9E1muG4dBtXLoTP4MW9Dn/nIBIsHKfNblX8xSX4uyIHrvWeOJzkpC+z9yciSGqksIUXjbASCfQA2MvTaQ3S2C8AGdk2p7BfQ/oklxIQNsz5EKKmkfLS8BaXPZZL/ty7r79Gxf5DeRfGxtf6DVYXjuWKS3mtPgoV3vmxZKoY0nakxaFlqmDe+XUrw3KoX2Z+UejYa0fCV/gJtjkR5ZNuTVycPFaKj2k8s17ll4cxv0WH0bejruWTXqsjW9JsW4Jn/uNnwu2pj276JRRNV8ESniBUXH0z5XL6k1vFUCrFCskUMImc/viPlfxWihZPQL4rlr6lJFkFsNsW6SnwhI3m9tTmIKtZG9j9PqV8fNzJi12MnUda7oMW/iAtXnLkxWAMuKfORz0uillOwGY7YqAJpa3B+VlcvNj9vSI5OJIsnEIYlXwrVp+4nK0pUMMlTtog+UrNqiRLzM2LUztHMuYIXWBDMJAwDMuQHnNfDNWSMZ2F7I8eRfi5eZhPQIC2XZCHhLllW/RLs1r58zemWjdmQ5fLY1UtHOX6xItgSwlEKyTyLID3VxLICcSsCIXuDdqpDpQr62PK8mzONgHlMbKtdxQ0ryqLSV4IyvSmKytkRm68/iuAH/4g1204AvcAEzu1rkqgZGGWpX4WmPpuOSBc0N7Pm3+9svKI0Y3zwzlkS1XZ5EuH+tu8bnfwDAv2QwHbWHA7g+NiUMXLSewC6hKYDfjtQUgXdjIhjqvkm2MbuNNsIsGnmAX5QCdtBaflpkE/I4R2AUH8EEXsP+B0pS75VKMknZ/Kmj4mGlsZAuB8tpFZjv/y8QIHBHXgGVhSexO8lmTXwI/cbmb8xKiB4c9HrNESu63iMCPg6Pck36LDYyn3qwGQ38Ndh3XXx/mSgIa7+ZKkppPy0qAR7RifXi+/Q1DjXeHF0RL62o8hxh+5drWHMMQH2CLg43CdhAGP9kapLPbGtCnRd2W2eLZAsS4ohzPn/fwAcuqX6pOqQ9tp+F9kFi3puqMI+NzmJuztpkC7reVb0a+ueSuL0ccVPV24PgXNCWOXl67Js50e9DHOwLjYYOaySF9q+6wzhxrl7KJU1TEb5NNPx2jx+6lHoeZZQo3I1KILyOSZ8DvGE9oS/uf0rmBg90FgD9NFMnSAIWBqBRKa2xom34C6wLYmtPjP1kSgwkiGLvPOiY8kCjExc/a8Z/ouWcDt+suInA09DskeohakUg+Chq5iuhJnuhItvbmUxe5CWbgpK7G7erw+6aIviYxUePd2KChEq3OagnkUgLK5yeXHWleWgJZSQAmsCYEwUvZC/J+WLpnQ6SgMOlrG7pv+1LPEWSieeWM8MFI7Ua3OHh2kCoMwE+Oho7vCnTJ8ikjD+UZ/rAQLHavc7dlYQGQo7sQh+A8duxYhfcARJf4Z7ftho7eZbu3ng/jcDdZuanqzKMrnnoruk2/EP23Nonv/Qb8lIqPcGmHguM7FgYOa2Vz8pjldWtTYBcB81599VW5SeZrC8ueg/a0vl5yB4HlbAAU3JPQdOIOwWPi8CiSELMRlOPmCZP43MYRpcLRkNtIoBC9E9hN/wZmQAqtiIOjFxySBpd0uigEpuQQ1vO1AIaAuYEJntFoMgBiftbUKry4eBOyrCUXb1B44w+Ot7kvwowZwiAYY+OJLjcFxiP50MjVGaJHwBRYd2CDGmRF/OWpC+eDO5+ESYYf7sB4eRVmYDzMl3CXuu7JkSseU4xLRxJWCEdXZSkBrd/NUoC6eStJwBH7wN0rXPAiSKa7nEr262KFs6ZCZNLWvFJj8cGwOFCVK8M3rrFifJjVyfFdwfY4GezKbVEubZ6DlheL43J9bvN+W/Ggs8QCPbbowTx6j7snl//3+UiHTmG6TqxZVXXWr5I11WGIW5nG+34DfoKitHLW3sWxK0KA3Y3R0mPzj1pimBMt+PFwqOGtlQHAAr+r7D5zUIJeTm5lG2gAaof/mSnhUCsn2novF/K8jFMptIGbDCVyLfLbXcyooEmFqQDCrcnAKPQNzFrh5vdLJB/S6YKSMCWhTGqeloKZJgPUnDIKcRGNnCF6h2cD2DTzRARyK0We6AmMypebR4FGc5KPgpVcRfTgAFNmzGqIPwxUYInhSI5dcbhSnopzigKN5mDoWgvauWmeg7F8mDdkhHyo81oCOZSAxrs5FKZm1YIScMc+cHf2Ydle7kIq2b3c29gxPc0rsUNGfDAsDqlaKO1gUIsNT7I7hcJCoQt0f5hlnsg7viuOWvehtNvaWhx3k+WoBE7KoOsFtK2qqkIcGfxHHiUo5z3k7zWm3YsfhnS1G184r+baS3I0tFyy8bjfBH7qHIvc1y0VwkTZYZ0RPbH/Y7OH3yUjTkf0EGtlgBaXlTytyrwSK5+uSy/sIfOcdDkmWocuMEZNYcAaW8r40jz+I48S7HBCLfrlCV69frqDoVUyGODlgGVp+t2zbn7r9ESOxswHw4sJUxIo5OUycJfRIX9m8d9vMiB6s35xXtS1VeqTAyVhfYT8lVP2Ht84N8flJmmEHyTno6BvscB47aMRtSeT2Bblolu+vDrf9iWg8W7bv0Z6hEwCVhgq/8/P18U7KoTVr67SSKb2R9uJ0tC82hvSV5A4QL0KmIsYDVC1YicZx8H4j/y6dSLAmOPD7OCJ2iz8iaKjMJvnHH3m/DDas3f5lDcKjz01DOfGF6dO7FIOuWGS0BYGz8fsvN8EfsIe+3v6bts9FnBmTUnjjBU1X/yYUpIBXfmo4a2VAbFWEMAX1XzrFfAlTxlgSuwh8/Q45p5oAYXDwADxHSYsY/Gu8R95lHD3CNJEy2PYWHCHHU7IBErQI+Hmxwl6Jpookk4XZLQfTn4tOIB7eAUzGA65Qg7ozQYCJaWnuFidPWHkHxxoaUm/PJtpQHHn8Ec+S49vvCv35SZpkHzsg/I9IvpWDIy3U8cBeIL8UqS8ItZvW79aXa4lkKUENN7NUoC6eStJQBH7gEbwTfEOCl+wsbra+OIFREwZ75VrqlZkxAeDcwBcC4wXwJjJH2Y386z9iVpL5G7mrVgSKSwqvXlS6Z//aeQXBHb713Kjcvb3mCRgqgDg26JWGYGD4QS2++3z00lp9/tBB42NrFIzwaTqwtX10xAuGNeaFugldEhqeGtlQKwVqDjLK8jcDW1mmBJ9uLwpM0yWxUSLDRsesuAUDJuWeIIaOMxJcWJQgp4n2f2CWZT6oYki1+lCPYnNVUunmiQyKnUDd5mPOy9dGmP5Kx5GIG5xOZjQpaGteyBgu+JmsXsAcdoAfEEDg3ueAhlyMnh8AyUlz8vtp+GmVn4ZkmffiUYP0zUbooRUVFSYLdA1NiZ+fy2z7iXnwdXzVFvWcB39FOdYGZiwbOSgM/yGg/K8ETsbEQUeVjTVVVoCwRLQeDdYRpqijUhAEfuAj3BTrGJRQV/FaONePrA8Vq4VLOQq8cEAh1DxAqBHQZI/zDI3nqe90ukucAt6a4nczbzVSwpPPrviydcCXe0iIMg9XYv4h64VPKyFFIN1vyGSQiqN6j/hqsRngc2v7HnDM50F7CPshWZCi0lqeFoZoLUCX+ZQE6ZMh20EGWNKcJF9b+Ew64kWcwcLrLPxW3OE4oa0DVhxQPT0CMjEsp1ASV8GwmQfEZySg8gsgTtXMAO3SSp5xt4hLnlsnpdGJkAebHH51nxgwXoFQ9BzNA8aOXle7uzNJFoxMN7OdeL2kM9L5PN22EVk9a+WQO4loPFu7mWqObaQBLBfivvYZ/x9vhZflahMGprnfOcem3Pl2k3hWSJ9gJcsWQK7TJNKYSw48i6TRqHdqV1k0oRf4OYNBL21RG4y2sw/eTvtVjH1jWjX7upxIADeqQMPMhe1DaOlPaypB8NrbfebYXQoKH+gYHaMAlz5sLijy/n3dzqToC0DOm/uZO7iemN7I2aacXM1fNi1BWE6zPqEkq+ws9k5YUSfwTiLHfSeCjwHjZOF65joOU7N+ga2XOrKXVEgNxT+cIO8uQrvBNtrYda1ZjtPdCjzlPOeCmZZ7wtiWVx4/JHw/8NDSffPLo0yMB6jbFjj4fsMClRiiLwnmkd3JGrWt0hZmklA7dqKgfFGKvFubAdVHApxwvpXSyBDCWi8m6HgdLPNIgHsi1LHPvgmkbIC9BlcYskid41t5TqkoR64iA9w3759se/eZOvYSuLoLIx/Stp7jg9wWknQW0vkaTVvSeJo7753DNi5OuFhPC13e210dofxH5EzAcfWLpmy1fK43ygQ9A3bbNejebW6649LR93U7XJGs/odgrZG7WLL7auIHvLwww/DbCPU2oIwHWZs+WyKjFbFJIdVhUlET55caQc9+aMlmjAMQUP0HOlmfQObspJ7dyzriypyZmx7LZBFgSc6FG09foleVjALlbxJT+L6Xz/mhgL/131qVikmurKLDLhdK+xiaXndDB2uEvDSoItFonaMPhszifLBlskEAuMh9huMUoDaKRiyoy9+uOpt00LDs1YulATYbfnTPZpWypWOfJ7Guw6J6MOcSkDj3ZyKUzNreQmoYx/MnXu/YgiJZYs8a62Va4XmVW7p+QF2byWRm/A89vq4PdvL2p2svdxbS+Tu3jdTCYDdDY9PvXxtg7r/jvENV6/7j7yO3NIe1tTj4bXcnHHPotjJhsqPEojX5nU6d5u74pEY26KExWsBbT17getcWHtjZcCsheaPa/gc1DD6RBVPNJvKHlPCaS7ADXR77iQmTu4a7xKi56PK3l0AcUB/kIkcAcEwcHvL/u8okrbttcAH6ocO3afBtwDOTE1UUFv5g7XPDGcHPXEqderUiWc8/tOl8ahLOXKRrSNwQdVokphsXYHxdl7zDJ2ZOxPt0i3avZe7XJdoCeRKAhF4FMoVr9bkExFW7Vvo+FtTVltlX4BQnrEPBuZHP+tT6nfKkXbtO8wQCMNOhN1mQFdmGZAr1BL0IZcp8QGGZhewOJUQQcBU7mIpE1oczyZyc56Hf/slT7iLbSXQssAaMnwCaIZmKBXBCw7CwrdTUMJbApbdYRAMGwmojQE1sP4OlSQsQMj7mKI5VWELGixWcfifAcOOiyylcncmYUTHDfzfzOLtGcpJCRngJlen4+4uTAmcyjXUVL/fu3RwgUo7gI2Sx/d75J3y/QzYHlAMKtwVQEtQHAJ74d7AzYM9jjAwBeKBYi+VgKexSYhlcdcBFTkS9jnBIsJRCx+3HFxCGxfyluNsMQCoJJGAKeFsAQmDgeUuNJoAeTzgbZY8acCZ3sAMhY/+n1tQWNihIMxs5F4JrwXMIswaOJQITJhOwMCaS9h9Zyj+AABAAElEQVSTGIPpOcGYcwsqcSvedNNN8hNhtvC8cJ7cxF1tYFobl2KFeBJTIWJhcPfA6kuT5o3H1MYUKwSTcHK4my4fuS2NWc6IV9PVPXpdWpK61eVakc8fe0j5fWL3oSjUv1oCOZSAxrs5FKZm1doScAOywQP6v1GzSLHFt8PXy+D1xnOg2HNmmeGGQCr4AHfr1s1EyVgBhG//8Gn6SdYOIc9W6TKEzV8qDhZsGbG868kyfKHfdII44NsPpThp16jcncE1gtcFVp5XXn7Ap+8vOr5vowryfl6yy6HbPpdsqmQbklKgEJEs0oLX7jFkU4Kp9cUdCq4Jii5xR5cL/tL9CqbZJXVs6FmTNTyoCWEzSglgFFv7kRyzqewxJSJE7HyPzR40e56AhvBWRhLI9Aams5cz4e9qzE9Mkx41OgR3Gqrck38e8z14m+b18l2dxkQX8w1xV1v9hHjVmMTqKYSMUy3uIXKYklFYO1km4W9gmYO7QzHLeqZn2f7Fvu/m4ouvLr7wCndrXaIlkCsJqDQWuepD89ESaCEJAAYB28mxD778dmasaw9Fd34mDWhiWxINsqvDBxj0ljMEMv5T9C1XDbyQH+HzDOzIjRDwn6xFGWzCdyJkAqWAWdb2u5BtXWRhHKuF96Jg+Ufrd0ZVYa9Le93s6tBWsHvtjOM2Ps/UlviIppLFwUbYSgcDK8ou7yBihfj0Ob10t5u6XcYcTomrwGIxpOX2lXN27ML085mQvQsqRIggJ1m86+x5cg7ZuwuwCxlPx9SpU8NP4TLcAgh0DjQJiAytMP4jjxIgUSnJlvHWPYm7NLyKXbqrTcbAlFgXwlQZizmcD/77ufTC/McvAafSqoIc+s5NL9e2bmC8nZSPkXbO4L5WuiS3EtB4N7fy1Nw2vwSiffopBhFfulhRi88qPq74xCpo5A+w5QwhvLEgZy3oucbowQcf5LHKFi5caPYOwJ3+5jm0zVIVGsqxmsABYbwoOKYE75WNfrHdYQrxouqGFTeWJapJ+2hxUDdrmdqrerYzPaX58K+Olplmu+R6DCBGVtP6NGQ0oEylAKenjtlUrjAl1vFhZwyoBKSODXY8ZTrRMng4sSzdBXCffWKHFqZ/mM2GWUYwB28YGW4BDIE48/PzqRfrnnRcGqLwy/xSA+P1z492iPoqdyEtvVnN75bR5bmSgLZnyJUkNZ+2IoGay85teGGK32hKrryx6OyL/Gqp3G0p4Wm6SnbkTC2UbsL+binRiq3NBtGxwC3RW9kZv7W87qc29HgO1aI3DL+zw/Ypy9cEoFg4I2YaudwF5d3ryz2bVnz24/4liVqicWf+3fncaztfxI1N5XVkN2WLliSWL1s3ZngskVD0Am+798EBmZ/tgaIlqqQFbssW3N3EvTRP5ge4TG6rXzcHlJDxaGl/Fl8AuFbYEDvJFTyxtQvxIGDvC28MsCEmG9CSPsaBwmoc6BkwmqcwNzB2f5KjWeyi63W0LJZ0rVmCLQ2yGB4mwxx8u+9qpwzdx1x0S580eKwQhZAdbenCodyzVTY3g6MvHDqMZ9wEcol0A7Mo0zzwnkyAfMp+95iy/Pu6FTlq6DC6Tb/27zITf520BFpOAlq/23Ky1Zw3jwTw6lR0HF/wk6KWqtyWEtAzQfvr0J5yOwTWKrztAe/Dojd1HqQrxQcVCNIciWOB2ywVP9j09uoAGeyiAquuMDYAN89YZQDTfhGP0cQCu+ksx6Mh2IoxOX+tVWCx7Ls8v8ftXUxzDie1OD533eTtEmv5kcVB1Lbab92//64Gu98Wj3iw40Q2Hj/bA/VYpQXuPn36+K4tCNFZzLJxQTXsGo8QYmBNTgM8vZQAJgJXTT+BAWUohvmGOdrwVLvEclAFwCpsUfz8ZJsngqcAYI7ALlqhLZIkFstywGwT8PPAAw+YFH4rJFmo4XVgPKf0pSvFJkKeKWWGMbo45lnJC7Uxg0I4uipXEtB4N1eS1HzaigSifQcohhKfP1dRm25VWGNBN18Ri9ioGEyL2uRxFsBa7WaYqUzeHW3AzwMMMf2Tw8o2jGGuyazuZ3+uokZajiccIOqsX88pwaQu5y4s6GcRuXL5yebrl9/Aiy0OLrIWLUgsW9zw7OOKLuBN4pJeNzMHZEjktDXdBW5BjyVyTHUwrYJGExMemKZYqwfW7EgMJyeYUnaSBcY7/sMXp8LmASpbhR8DNCfrCOQD/e7hBnZEVcA2f9o1BQ6SWHAUMuEOt7acoo0buAN78bOAFhPLFyETKFM2PHigoD9GI+uedF8aB09P0QHZu+cwjoZ0KGNKFDrmwFlPtFonMN64kjw6IXdGGzO4ZaJLci4BjXdzLlLNcDNLILbtYMUI4vNyiXdDGQt6joa2nnQc5elxNnjzHCFmfImVu2245jgtw1ymw8N278DkwgHuFp5TgoZIwVU9r3cTyyUHV783opC9oCwOcnXL5+sfuMtoblL082jHE6HfNQmwvs+TsMw2DwN/BD3ZgtPawogRgjlda5lb9pgS3KRJizFvkjdOTTeEGL9z4N8KqI6noN2fjJL8YfEmLrGYrPx/sMiAW92s77Czmck1OuT6Zuue9Lw0NEiIAo8ST3hOf6mB8bYviPbMUxrv7jKKZKYzWgItJAGNd1tIsJrtZpNAbNtBhnDP7B5EcuP65Hpzodxdm26J5QwBX7VATQ9xByV9BfkuHwl2kK40zOY5phsOsb8bSi9L7xWuCdvuDdWUOkmaJ791Z78pwZvlY/GnZn9pe7aj2+Kgps5pbbK+ruFFXytwdNUYyb+t6++sPvn6Po7D6+14Y0HvNtuwTpxmR1Z/qVyWmJJzE5MWpviEjambZwYhxPidA0TuF9WCTgRezEAja3Z5lb9YqKkjQw8Oeyjg/yRPuB2ElhdewKBOhlJ5/XSzldAfO5j4Hgp6vlMt+NKAEYRAPhP4Q/dLDYw3XqncjbTvkDdCzE98L4Cu0BLIVgIa72YrQd2+rUkgUlKqjtOTQ5MGqOL69+/PJOBnLOgpHRGLmLnWF99RtrpqXzNFU77Afd111w0dOrSoqMha4OZs07GyNQeSVhOAclhtqpMYv7Vj3U6vmBJAxQtFr53cdjShLG+7/KjFwVbZsgeNr72QrPL1jY++H01u+/OmheYkBxOYFgiMZ524YjaVDabkIpQmLaYJpifPdO+c765i7GF3Aae824gYELxHRLvAnQ+dLnY4oZbb7PIq+i9mj5blAFV5ZWBmAGMDVoOHKNHErC+apctHCuaswyZzNXzwpcGDQ3NaEl3WkyIWIcJvCiFmCF7i8Sojej4qCmsnJO/VxquM6IkDqFAoWWar8W7+6HFGLObFWpdpCeRSAhrv5lKamlcbkQBT8fqnXJk08L1f8CBmduU2FvQcgxyLmHYdgVKCHaQr5V3ccMMNs2fPRgRaWzRBaIygFQ5MoCGPm+GbgJIn2tzj7sgehfW7777DTjgYUHIDRyLHlMDPwxpMeGHIS5TuDF5P1w7o7tgj6CZriZKGpx5WsG1IGrcv/pIFtEO4MvjZwH8Kl6Ve4HYzFfTWErmgUYhOkKR+OaYcNcW60ChGUC5AcO7YC7YWuI5QN/rpicWkxbJC5jzhdYGnDO6c+fewHjnuWeoXNytp8nf/+IvFTYsSemSMwi5W8EJgX6yfwB+FOxHac1d5lgh6roYPvjT04MiiI0RIGNGzL3ch0YMDXW5MGDBtMISdANG4m3uWED0fVUk/k0pI3rORRyHRgwN4uiyzTzp8wl5lbKHGLxWMOcivSpdrCeRQAhrv5lCYmlVbkUBsoMqEd940f7ftoc/Ae++Xw1jQwQ0fA0nnwfRbDs2WgB1cV+rdBeeJDzn0wWESIA7f0xa+CdgKZbO5xu3oyLZVfzavBBb38wuBSGwmA9eU4I4u52+MtXOwlw8PijYm6+rkklbIw4lH8xefKDp6sqppZbMPVvPDlH7sBL21RC5RKkQnUaWyuHkSjVYhItACgnP/CVDgwVYB6kZHjAmiFsayzMsYJQwMXheQMrtz0BA9vrotBd8mxsy3g3o8IFWKxWIlctbyQs0CswxAE6Y+o540DvjKwGQgR+iQ9M2qS4PBe+6Kyx5TRgtMyeByQw0P7XjFMPN8CXcKmQT8Ej0fVfYBR3DKmPhhEohAj1CopxJ2Xj50/tlGvNl3MNEo0+/qpCXQ8hLQeLflZax7aHUJfL2xWtHnnNdehiZS4UJL0ZZXeez96rSn2Uo2FuQaFC+dh+HYjc4bC9iBNVOPLhDzqc/JZi/4eAuFk1ni95P99m2HmyEo7YK26jv8Qig8rCFYw/1wXuufYo0NTW+94l/fIjWNL/m6V+P9zRux28EHHwy9NUc/+N9CgfEUonOeOW4zWi531knHACW4fLiIcqJ7SeaQ/Z2DLpJxuR+PvOd4cC7CGMCyHPBobBXRbj+ziEwI+HHu0CGp4VWXxk902WPKLTAwXtN7b1rXyZXLGzEy0rGzq1gXaAnkXgIa7+Zepprj5pUA1KJ/nCS2aXsNZfvCmAOQeVH5loG/x96v0a8yBRJPZCwIbQdf7LbrPBilYzc6byhgB9ZMPbpAlNGN35pdCE2weaj4ydpPlrXGjV4c+81D+IXgQ1N4WLu381k10RLFGTQ8/4SitiWqmt5XfaFn/j975wEvNbH98Wy5vYA0EZEiRVGKiBWsIDZA4KnYQQVFRd7Din/1WbD7fKKiD1RU7PVhwYKKiApPFJEiSFGKgNLr7WV3/79sNpNsNslm9+7uvXfvLx8+l8nkzJmZb7LJyeTMnAr/5NnfzZw5E1WnIDCeDTq57+Jt6tOOGgqMyNqeGtma1K+/ASXKJj64Y7fmV45oEFb2jak9qoO783iBYbP99C4Eog1KosYWp34Y3vLUWM2Ka4CB8QKBqm9nGU6Cfjfj5NP1u0yTQPII0N5NHltqrgUCyrDo6kq/Td0tPK4Dg4vjKAt12UhGHgpb88gwhmQ6y8egwmo2uiImzA5RylCF+NysjgQLQctEHEUUXaIKoQGDgob55l0nSLDCFTMdf5FGDj4iw+AIbrDa8XqgpK1WWNs9o/3ru/coMqZ/q/43B6tqmB5KRibqql6+xEbzq/tCbgOGtya7D9ym6hAYD18DghtUIWSXqQM0jluhC3ubEqEflO/40U5N2Pobhk/bSpuKVin/S+JKCO1H+0/Iq2GBpbx28oVhe6lo7dE5uGtIo9WJ2ZwhEXvvixpbnIbxZvNTYzUrrobBluGIjNcGdFDZ8NKy4MqQzwlyaj5lVkwniPA7CtVo+E93pqSjpsoxJs/+XWne+vXrFT9+34ql/m1bDOX0u7R39TSYTioB2rtJxUvlKSUgRl53+AJbJPX5Z9aEXgeFPMb0BpmZoDEvbM2jyOlihlk+ypx9jJlFnY2u1CPMDmU3cphKfG5WR4KN7Yvcj6OIokRUoWgwnW8eWR1yUFAXyEAffc1qhTW4w5pqCmX6fFXzv7MTSOixqrmzJesAwlUu73vdXtebHeKtye4Dt6GFsQfG69u3b7NmDj77Gl6QDPWGnxp5lFdZf0N1lpXE8CfyhQEtrgSDNqtdIQ8NinG2b4W80lnkFtmeeUNEuDW4fgJpZCHTnLy8vFA+Pp6IBkSK1sziNB1vtrqq5cojW1ITmzK+wHiREPR2qmgPxHD7Aj1li28qAvqralBmEFbaOjPAkwH+DKEa+R8JJJkA7d0kA6b6VBEwjLwuLDzFpuYj9+8pwTIIbnqDzKYIDoWteWQzXaxF35Ce9lfJYx4DN8nTSjD6axpcXl+lMDuQaTpMJT43R44E6/Xo03EUUYqLKhQNpvPN9RUZ0mYrCkMEFow+hJji/7o2I3c9JuJYb9UL5lkfTPCRbx+930bjj7lH7Wve32oY2/IDtwITf2sQGG/HDgfrRscYGE9etwGtguGrbMpq0EiL0420uBJCQtH+E/K4clTrxzLYLJTpLhVp+zeKdsQXBMxoNZkdj+rqIyy82EcxrcabDVe11iyBQmQlxKbUvU/Kim0C44l6lQTaYz9lFrcpTC1QtvimIqj85RmEfn/Fe68ZmqDfzTzpNMlNI0SPhOkkEnCFrXCUxIoSrFosRFpP259gHFSHe36PHvgoLJPAsOgRT4zb/p9/bnnYCsy8vOPOOfgd+dYf/KCMYRsYYVbCIh/jxzCO5V18VcT3WasNQ1nzgwuOwmbFx/3IMR7TgngUYVV8dV6zeRWzTwjN+8bcNXwddrLFUURRC8sMbsfYMDiNgSVM7ccWb48QI9d+WbGypx8pe+IBuQqzzdOle6MZc82OJDgPb01dbh2puLuYqr6v5fgnmo/RDmGoDCNhwe3tt99WxiO160STM0sBJsxB2AdwAMBFggsAA/x454H1qV4GSlhpzZnbQRHZXjH1Dtc3QX+x7d9P2vqVfBAnGi9m2NAG5XTLO5Lk/GJT5PVXTvdHtKtIUa7IGP7q2yNJGNmN1djNycnBgn2y1gHro//i4JkjTHzcLvDuavojRavgSRy8RUCx81Z5PB6/8onACh2cp4VrUNznVL19hU5cQnQq50XPR8mx+osLGCayfgM0zFsIhlze9eE7RVeHL72sl4TMxBczB50Xnsc9EkgWAb5aJYss9aaSQOTI60+5R9g0oGfZUg9mjqurbsFQNqwaa1pWW/NIHcMwFZPHcWE6YIvPo05RalqF+NysHwk2b4SaG0cRpaioAhqs5purlZj/H/Fx01wsmJtx3Ek2R32rliHgmY1Aog49df99NsYuavk6P7ydurFJ4eti94FbNNSZly0sXc3YdVZEc4QVdUUmdKcmZOxCRgx8itOtFBRXQqQe0xwhjytH+PIKL3DTIrr2nHbaabEau1AZMnaRMrVcDZXGPooZ03hzyNhFpQKFoQGRQez0azk7nN6q3r7kd2DTwHg2OkGpZL30cWvZBRx/8VYMG1e0FnysolqIjuAWFy0wXvlL/xHiJgmPhyuRmWBhVtII0N5NGloqTiEBbbV5jDcEH3iLc7r7JcvLO9dfekjFb7Kk+r1V02DdbG3NI/EUtxIWpkPs30xDKk2riGO2TRxF0AIM0ogBsNy2iYrCakUL+d7uR7qyrF2uYUH8ucGmeEIO4Z2n+rcVNqp2epsszelqFFDNDv1bk/KBu14Exgt1Bz8EsRq0WJlBOYYrAdeDw01/5cA7Qlifwo/cSo/6grdt2zYrEZt8sSyu06bGYnFiZBfz0mxqNxzSJs/ZoKuJTanUp7t92QXGMzRO2cVpgpWsnBT8RRpN1S/PrExFqEFgvF6N86u+D3mnmDYho/cpiCRseoiZJJAMApYGQTIqo04SSBKByJFXLOz6W1YHm+p6lS6Sj6pPWU2DdRltzSPxFLcSjttLTyg0rSKOkWMUUeKrxT3Y/Ou9ktV8c9Faq4RqtWuvCkFJWJb46A8XFCxKAN8keWmCo4/ZmKVOOTLT5t/8p1l2IvPwztM50+6WuDy7S0CEsxI168wO8dYEvwj0rl4Exgv1Y+f/tNjRYiy2sIt8NL4rB+N/+HEJQ1n4kQtuhoTFpWKQstoVy+LKPiEON8XiNI2+pmqApxPcVGIdb+7cuXNIgT06xaY0BMYDKKDD64dNsGW1eeL2pS0eJ3RCA/Qo2LFQhlgrQ5Q1TYjlkHHi4C9Rg8B4/9i/0LQGkZk9/BqRZoIEUkDAm4I6WAUJJJuAZk6pT03UuDC3pzyIa7GdvOO9Vzf8KO36QTmuhMPF4ppYb8jK0xRjSCGTFw8DU3tUXxeephXbQ156GOXdND2qs6b8TBKT4q2qwMgxFiHCBp05raOHFIaDqRJfLaYiqs+ivkNyOmqvDQVUefGqAEMQ3/1DntaqMI4iZ1HLnNZ5lnck/+ZNqniy/sc7z/kZdvbu6qxO5nXDsENMKUlS3prs/HfhrInxYCcbPi7HFxgPVxrMLOUbt2GKJFZdwEQ0HIrcilbL19XSW6X2I7W4FYfcEvPFJq4c5ROHsD5z20XWGZYTcamEHY22g19u6KICN4eu7dAJ63D3IuXcNW3atKKiApcifuawnu1vBfbN0RoDuai/U1w8IjCeE+djfd3idideUZSj0Il/4nSLu4pyNKrHMMZ6/3jVJFaIMhKsDAbDmMYpBkDDFnSKaOZxne4vNRzR73radcg4hSvv6pEwnXQClk+XpNfMCkggcQSEOaU3yH7OPeLi3ZaBsk4p+9G9frZYp1cJh4tHJmakYVAHE7GVuUf6NuIpGHqm4inu5JmKb6Zi5gdMEJhEQatIr1NLYzwGzyEhYFUFHjDbvw05G2CmVNkmh7NtQhXFUuSss85q06YNbDi8DIQmhlpZ4Vo3wlOQD27K52Y7Q1CS/qoWZyNcSXAvsGunSW5Cs/DW1LnA3t7taF6hanZAA1aA1jxuhWGBBcjwDxvOsmrYmasSucKJ1nkRlIVyyCtXEQLj6e1dcSmKKiITFTuklY9o2VhpBNpg/WCL5cqRSymWkHAJFX7kmvbwVPilohwLVJT7Vvzi3/SHf/euwO6dgbJSCZ8D3B5X02aezod5u/Z0NWqsSOI1NTSXFK2FHeYQMipVeidJL7/8stWLbnhDo+9pjVFko6ITzh4Omy2aIOSFBnHI6nRHzs+DEtzN8A/cxPw8h4HxcC/Ci73YVJ7/bJKV4bcLrZeFwV2XS5RjggRSQID2bgogs4qkEzAdef1f3rE2Fe/ndvXM9iwsN7kpw6i94IILZs+ebfiOqQ3bOB9DwsOg+UnysBksCatNjJRgYruwdx1WgdEjJyPHqBqDwTCOsTkrggk6wmdRW/vCygq36po6vIdXBXNDEJYiHrd4TO5dVrH5AUmy/hid/Kcj3poO2s/Op2JVtoW9q5od0KAZu3rDYun4ECGMujnchBOt8yKKZsgrV5HQgPxYJ+8rqnD64vhMIWJlq9aPrEysdKZojvyru1Rg5lbN/LDy84+qvpsVKLObp+hu3RZWr6drjzN6HXdE9+6LsUKL4kKAFbucbLEHcnOiFXYz3plD78ZKAfsfnVAKYuq1JPLsEpBXNoO7iP50I7idT2WIRRgjVw0XFaBqcMONAga6sqFs+1HyULHudxq2hAjeFvAVS6wHEuR5dLbnksIMoTUy4covyDrv0sh85pBAUgnQ3k0qXipPEQHTkddVWZ3+yjigVdVmq0b0a917YcvxVrdyDBdt3bpV2HxQog3b4C7vfAwJg2S+ilAbcttIlTvl78V4PuELLwa9MJ9MDMKpw4SysFUV+EaJQ/ot6sixIgxjt/kp0vY58l60Ioall+Ix9JVK1eG9qqoqc0NQEcODtlmfzKpjpR3W9m6G3RNUUVPDv3hrsh3elTZktDGvQpgd4rDBsBCfm/WnWAibJuIoougRVQgNGOoTq1/prXBFPgjfOLynHFJeumL9TCEG/FRrUnYkjWq1q5fKmLb77z25q3+Ho1lrGPqt3PSHNPMDGHSf5Re+3CxrenH1gvUvBxy6+sAMDW5WC+sqR+P4C4V4Zw4rGO1HJwvH+z4p30zEZjjdu36UEO8DG069jbErikMG9wqFjBIYTxwyvVRwaaFGnPRgGAuPJP2rWbb9yG3W+cNduXYvlqJCJkgggQTsPt4lsBqqIoGkEoBBFtKvPjWV3a8KTrGpt1+OW37M4yaOTbmVY1Vdi3C4EFGGbWRhZQxJTjnY9E/905fI4SesglAoLVFUooqfRsoPEiwVpF82aMlNoSrx9HK4ZhAklQ0jMdGKmE7QgaEf0gBTO9K2Cx2L+A+Sqmm+YkXwiQsR6wBghb6iCBW6jOTbu3hryrO9IxZ7LB7S6thkqLmRhoX43Kw/xbrOmSTjKKJoEVUoGvQvSNbw5aIoaAhksG5q6HTDmulwrUkj9VkwavULVFkF8dIXEengpXKQ1/1Rq9zzfp3v0NgVpZVEZvG+qxplfnZg7qK2eXdufazF4mssr1VUpwu7gLe7SOclg/JYd6EQarVSLtiBNptqH4bfvmwKhA4JeeEuYjjdeJ1WjF3njuNQrS45IpeNMTDeyEaZ3bJsf0Vud/ZwHZnonaQECSSGgO11mZgqqIUEkk7AyiD7Kv9km7p7li1p7FM/CAq58Kc+RnkxxUoc1MaBMP6BJ3rULdanvl4hogDAXsTsEMVwwV+klTlMLrfU5BjZRRJr+GN+N9wlYW0o3zTxF2nkiPnd2tNruQSLLbJIsFLM10FUCMTdiHz219DQ15ZnijQEdf3tVLFGt2dMuhs3MWYleh9vTXm2XhMlbgt7V5gdaJKpYSE+Nzt/W4ijiAJEVKFoEJHSbOFrLHUrCsvfwfG2pmzdHpQvKrEp8/0jLzYIhFuTcqnIWU1Cj5JYfnc3T8lXrXP75HgMR+LYhd18w36ZC12f3DC/W9ayO+SYdgoT/EV62V1yYBd1ZDemhXVjagy8oZRwIXKpKO6wgZDmeN8nNXcRw+muiRe40iZ4gVtt+kslGBivldd1VwuL34iqJHPQ+e6D2ql7/J8EUkeA9m7qWLOm5BGwMsi+zT/B57J8giLkRL+iOeat0t3KRRwBSIYN28DLDaNEwrwwKIrjqW8YJjQo1O8G/NLPY+TRX2z4UozhN1ixViPHsOCFpaI8vfRFMCUcJpok7dxpNyGsJoZ+KBaAqSGodgrn4tDyVeqeyf+eDuoaTyYHE5M1+KwzvepAW6TGape3wpUZmS9fAOowtnwUqMUIq5DObRdKOj/FcRRR6hBVQAMMcWU1Blv4opmhhHhBwr7+vQ6XmQg2iyn/0NnuSgkR1A6/R/bJMbMmpYJDwuYzGWsK7q967LC/Xp1+QG5TjzV904K2mblu152Npe8rXx64aIgc8QuBFfA3PJRDrAvr2lYY7SBwIS4jIq7hF4cvPPiLNHKQL7a4Pxwp7iKRp1v4cEf1JxFtUBJCXmgwCCi7ukslyyV91q1tjr/aVFDJdOXl546fYCPAQySQPAK0d5PHlppTSsDUINvrKfwpp6dNO87b877lUfVWjnkn+uhrYcM2sAYwVoQRI9sxJNlKgK0QddMPE0I46gMSZhYmpjjZbJ5eOmtYLB8bqTJuQ79Ll+AartBoagiqNR1XuqDAX6zuRfzvdrvbd4rITXDGmSeHx04LV19sNbgr/FUUeYFaX1x8bjacYr2MIR1HEUWDqAIaaj68B53697pYwjTIzSlaFfWdcP/VD/63VW6ThBq7Cgn8bZvhfrllzmstcwrdYca0qd+OKJWQBFYjCfNZh6MU3KVsHajkevUvGDbtMP1wFHm6hQ+38Oq20ak/JOSFBv1RkdbdPd7u3r71Prt3ZhTKGXeHu8UBojQTJJBKArR3U0mbdSWRgJVBZu/C27f42+bVO8ybpbuVGwxBTGLTnPOUaSg2oTth54n5y+Y1BXMxPLZ2inYcX5+dPCCVySJaMYuU/dNLNdHsg27EYejje26G8LtVazFt4qC91p9NJclzUDtXdo5pwZRlygGoIze92aEcFaj1wnFEuYujCGrUDzYnIjBeqBP69zqM5spe4OprjL6bahrW5NFHH21SFs3DFj4SPLFFdovkGLtqc6Sz8rwzDsxtV5iPhuGXa+W3I+RrnoATVGh9NOiK1W1a/4IR2RTQ0zkfy6+Rwl1EjMWK31qivMAjmyFygnWNaZx5YrHFjVSV9BxyOD13VRj8vxYIuELLatZC1TWqEoswKuXraftr1HkWtiYQuehV96adv95xu3UJ6c4D7prcbJS5AEZtYchKEh6TcGw1yJiGTjDISM1Plvp8YMw03Z83RAr6wMkHDbP7TeVhaYllg2B/iGeeqTAy8T1X2fAt1bDhCYpPvZKEBQqKimwnjUmS/Rq6esUwLGAiI3ZaaHVkfMCN/NAfLNDEt3vJyuMR5FlfXJ/OuvCKvPuf1OckJe2r3nWIpZcwIqu16LZOC1INaBjZhSFo2CLxKgKYd6i4FuBNxuFqWZ8eHHLXdl4EllBkk9AAa/iG5od21UtCgqc4nGccbHixwVg+fKDhTA//IpRwcqkMzfdO3T9FbzLuNu0LX/kIS5g56E1NRbQl/OI+d7K7yOV2a4EpbYR+fIlSflmY2KoYuOJ0R+Y47Jm4AOCiDUcpm61qb7+vO755QDTPa5er8M2Z3qPUicU2CnmIBJJDgOO7yeFKrbVEIHLkdekPY3+vsntgX7D7v5aNVcfqtPhtOlGMKMMIxlgRDDsYxEpIBfxF+rTTTgsJwoSFYRp1g4wwdvEAg/dw1E3nYSwHzbLf8PRSNjELSi+vmqFa2A790fA0TFhEWEUfw7PD9nBURGHVdKq1hIkGd67dMdXG2IVIZr+zI0slPOeTmZ+X+tWZQxHaXVKgwFdsGJsMSemDtQrUBg1YwE7ZnH+wVuYmopTzIqbGLjRYww+1yvCfkIexe+QzoZDUBpnwXRi78CnC5aEYuzgY9VKBx+fDLfPD1SRxz79h3b5h/f0b1yexjqBquD+FFt+FzQpj1OGmOlCFxKN+OFLkcMaFS1XkaG5CvMBt29+/fOGrLaMZu5KU9beLaezaguTBpBOgvZt0xKwgxQQin7JvFVXZtKFb+fLDy9XVsgxy6lNfM9oMAsFFylAjDF+MjOJrA/4i/eWXX2oODzF9nYzvAYmBQ9Nlg0Rr9XOYRKZIqCaaYrKLbKuEjaEf+bFY06nWYlDbrHrnqJ3TDJn63dKA5O19sj4nSWl4rey1ezOSCj9rHznnSR6E06/VJVAbWokBeEgqW0yXRFxFYH3irUN8B5PN9Jg2IY8XpDYXS60GRy2tRGnBmK5e0v5S+e7Om5uZeonoVcCbpe3BWedfln3Njbm33Jt764Tsq8dl9DnV1Vj9XhEubL/n37al6KphiGdhL1bDo5r7E864eg+JrhOS6hWCxVJs5JX3Se0OIyxjUUacvoR4gQu1EYkhez9+9Y9ReG+x3+Czm/t/D9jL8CgJJJsA/RmSTZj6a40ARlnw4IFP6u4Vyxa1ybO5J09pNvKOA+42aSgeG44/9EcWj3SuiP51EvO1ManF+YapckowLTwpbabE2YvZum04b4uppPZhF7PRMVknfINT7H/XX3Ji8f/Cs8P2PvMWXLLyz7Cs5OygqVN2rzkk03IU4OSNJcsqdRYx1n3DqC0MWRWg3C6bM4j1NDDFUGwOP1iLwHgo6KyIiI1nD180xCQheoQ+IuiACFfhoAGidhO14Vn7hp5c/cui8LywPdhJeQ9Oyjjl9LBcdce/aUP1skVVsz+r/PLjQNE+NTv6/9kjxybV/Ko5dli0Dz74oHL7wsclvG/jvRHrQ+vdRdBPS5cq8VvDa/D8C2QiOHGYD+DQ+MZ9D2PGMKOxYblD4Q0s72vbJbvffmLTeLek+0VoB3WpzKzCNz/z9jhKl8UkCdQCAdq7tQCdVaaYAB4/E3b8fqL1Nzesq9rj0O93exobG6Y+9fH4ifTfNQqb7TtxYQwrJx5UYbnWO2oL5TV3sSSZ6Rb16aVawxgxwli1qQ7TTPFGYfNI1giYGYL3bHlw7Ha7GvEsfaL3wPtfecO0AYnNhKvxu438x2R7rNRetLnsi8osk8B46nuRXNDKsEAggAVXWmmOkt9cDYwXRU4+rD+J9vDtlKmXhLygGNZYUDa9q6ihMAjovJn1bTAIil3fiqV7B50gdiMT7qbNC975EoO7kYeMOZUVlXO+qPzo3covPpL80cwvFHa7ZV/SXscZ9SRo34nPunlV6oUE6zaqJ73QIH6GiOqCQIZyvv63FofjuPACt7irwMa9ZeuTt2x7Ak4+ohlWibxHp8CZweoo80kgZQQsRzJS1gJWRALJJoBBEXuXhjx/yTU7XjBphrq0EzSYHHWQFelcEVkIxrS2iIHqMRwpZp4j5EvXmwsgVyyYhadX5FANHrHqoKMWtsNSV+gABpbwFjFw4EBMQseHbMXfA3+RRg7ycRQykNZ0ohbUpdsG7/3E3tiF7IfF1cdfcImuUBKTaP9Wn93z+5Ce98lzd/BegaF0EQUaLdIPm2FUrDYC46EVbdu2FW7TCiYb+HYcdZeEZuzGssiAIUqLaV2wUE3zRWbuvf8Wxi5MOtjuuKhgSsJJA3+RRg7yZfnMrMzTB+U//UqjD7/1Hm38hiAUagm/v+S26ySf3UqxUWoM6rKSUX4Osoj+wtCqt06p8poGa1lxBA7TikuVFvxc/1uLw3FceIGLsqIySWpRvX36uotv3TbRibGbfcUYGrs6eEzWJgGO79YmfdadAgKwum677bZtf6xf2TYPS9Bb1YiVenscOr/IrZs9g6e++lEPk9LELBwrDfb5eDSafp1s3LjxZ599FprdAhVWs/tttNssvIBSUZdxUMdynI9ha6OGNq0KHlLG+WCahDqom6uO4HYfrr0Qbxo2OmB7jso58P1fLLyrbUrGdQhW1NjMqpv3MwsqEVT45n7nX9/abGogLpWg30v0arHcQc9JskcsNrxNYcFUrCGFdxXMNIKnLGYXweESK5EpxrTuCpSj5SHTUCRYn8fjOf3008eMGWN6iZrCj9JO9ZKQPNmSL+jqqjtxDstGvZyKRp1XZW3yenv0Kvzv16jL8pO92g5UhHlycBRWMyQM9Jbcfn2gvEzkmCbyHnsua8iFkYec1Ni3b9/Zs2drP9tILUqOWCfBSsCQr15IMY3v6nWYn269I43jQXrZmTjCReqk4nnPbRxruYajvimw9vucWvDidMlj+cEkXJx7JJBcArR3k8uX2muXgN4ye6pF9iUFGTbtuX//Wye2uF4TUJ/6UZ/cWpEYU/rmhYrG+4CUrSXDskF4duo+MZs+vfTWMIYG9UaDVVdidUqGN+dFF110wQVBJ0IoDS61dua+L6duvD7HH8UiweBu3lPTnLTKqrUx5cNW6Lj21+etl8dalNPjtI4zTHQKrxKTY2ZZZpaEmZwkhzKx8s/WWcM272Ow3gzwzSsSufoXJCXTykNDFNEnnLVKCgR2H9U2sHePvqg+nffI5KxzLzH5geiFdGmDB0X1wvlFV50f2Bf2PUEnLicxEgy/UkOm8xoNBc138epyXCyuOOqFFNM9x/AurbVEv6whAtPE4oQt+7H0m6+pwmKF/uLxWyfiO1h0h91gMU/HQwvf/sLVKMJJTK+UaRJIIQH6M6QQNqtKLQFYZtqS796CSYXD/JLl+C6adu2WidqqWHjqqx/1tMhtCW1/WPMw7KdsVrP7raoW8lktQt4CMDjw1ISdhMFptQsmAd4gBoNeXcEX5oITsxLWQKwhoyCPkTDoD/VgxQNXLRn06h9XRTV2d/oCK846z0mrrNjEmg+vlVX66WgR5TtX/G7+DVf1ewmVgIEIB0q4YuPtxTRyLD431/nAeLLFo2ywztXv7BFIIjIgCfngpi1TECHl+32ljbEL8YyT+4f9QKIhxS8d8qIe+OYWvPox/BxETmSi+qf/YYUyfb6jGvVrz0VrlYTw3Q5PtNIO9UJy6ECFlxm8pBncirQe6ZcBqVlgvGF7pv+46pTrdjzv1Njt0r3wjU9p7Grngqk6QIDju3XgJLAJSSAQNk6jfsJ7YcN1WEDHprZnAp3u6jJdPyxqGDeyKRvTIWPz/FXShuA4kH6iiRONYvzPRhg+vt0elvAXtgjMXJjIeKzC5FLmX8OHYsgQzfPPWk9NRgoxePzmm29+9MEH9zXLuqaRpcOAqByhzCa27/ngl9+InBQkME527qCBGw8usPn+2uuQuesz24Q1Bkg/6yThDCqberGFySg7kIw64m4ohiKKp0Tk+D0kHQ8HwpLTXlRgpcEkhSe39SUhvyCVrA8FyIh3DqXNIGXF9DdKbg1buUzfbwSGuK3z8drLqmOkhl9r+bMTS/91t16zIZ1z/XhEuFUyjT9JrIYbaeUnzjHA0BJ5F+c6FgeqsAabqFOz9Kd722xp1b+kfSvUY8b/ccqysrIWLFgQOuAt6NbunEcyVh1bqc5ZNJYw2fceeWzB1PdchY1MjjGLBGqPAO3d2mPPmpNGwMoy61r+65zfzjIfogs2BmZW/798S8pCgb4cGoKx9sOkeTVfNijWRqjyBhNBzTb539w10ERQl6XzCVn08YcLz+3fYddW3WHL5MxOR1z82beWh5N2AH2cumdNhwx1uD2ionEHPvJqk4vCstMuMF7I9aXGoblsnFDLpzxe+tg9YRh1O5t79u763uehDP1HeZ1MWFLngxHmluPz7T3nBN+q5WHCuh1v9yMLp89BhslPUicWSupX2IixVXIE5qgREHU/lqirwUR/gfnlNvnN1sFmFRivsdt1e5Osyxtl2Lz+RaqHz27+lDddObmRh5hDArVLwPK2XrvNYu0kUBMCDzzwQKg4RoZ0scqWZR/2eaEa+cysAtzZn2zq8ga9HmAIOhn1NFMTJc+keZiKhMUTsGHMFUOADjd14QWsTo+BGZgXKIe/SKPx48ePR8JGE44apvPbCGPsMzQ7B8NFGPpyuEHSKw+Xnrhh5a4zjnZo7G7r2qtWjF30Cb4rv9q6NJxUMi+s67C00igwnnwRwjJTZilFBusK67n1jjosarPIQKBaHQ43U/Plsl9D2eG/XzPZYJ4u1qD248IRjweRqC1LSZJv9Qp4EkNAK2VTo4hiaCOjr0zXqugREGNxoMLIrjZaj8ZgYV0s2o3FrRXy+Iv0qd9FDYyn3AEqKythXmOFBzHfcfK/Hv3h2hGLDi4cGaOxm9l/YMHz79DY1V8FTNcdArR36865YEsSQ8DeMnusxd/tq+mW5b6z3f7ODUF7bZFHLZsnlv6B0y0eflE33QPyP//5D55Y+gBveHo9/PDDyDQNdwxrGPk46tw7VvPFxKdw1aCJ2kZIHt5u8Betcyc0zXJXVkSXh4nS8dBD3rDzOXGiJG4ZGciRdsuyYn566PsAvj7rHKDlZXdjfA2QG1lLgfHOPPNMDZEnVzZzcVqxBASWWhPDkPCgUDb0NKZNlVdewMyL+vApxXLbvDX4ESAupHgrw09MqM4adL7k8YpdQwJrOPi3/Gn5k9RLwwUIJwtbXK2Sy2J42HQLv5Dw27T/VWIoWvP0wDDzEU9Y/h6xDMjZa6WD1KmiwdrF+7DpHcC/fSs8QPac2KXjF9MLEUra+eZ254y9Lf+Z1+x9pp3royQJJJyA5Y0g4TVRIQmkhoC9ZYYp9l8VnNKvaI5NY67xVjTrERxttRGK95Bl82BnbP82tBQuJpqUbZLtJ1PLEg9InRuo/QMSYzZi2CbeJsvlEKYuVDxyBV8LvU2rd/19++RrAh97szDC62hztzywYOq7rlzV0nJUKMFClz41Ze8ZR1kpRfTjwze/uWznSr0DtCwc42uALK8svIApTfqlfA0VqxOY5HXKIjf1gzUib0UetMpRLgnNO+Wg82WbKXLLbRey8FBLRGC8SHEtx0mrbO3d0Lq48SLFT0xc8wg77Gnb3rf2N6154Snfut8tf5J6Sawcp2zxtkpaOFravcjebRoOVHhT1VcbmXY0FK0v1muKvK5ccOoqBnTxlqs/KNKYulc29anK/74eR7Bld/P98/79fEbvU4Q2JkigDhLg+G4dPClsUo0IRLXMbj/g7gqX3ZSpDL8Pixn5d2yrUTssCts1D9+RMU9I2fB8wuQVTEfDnCRlwAx/IxZecPKAtGhIbNmIoBYqICJcWCuApXvXlocWrepz/Y5nvZLdSJ5eh+fQroXvzXK3bqvPTH3a06Gze/9WNvWetOoG2VRVZ/uFJB2/Bhjlsf6u1YYzjmmFytZSNyIr5FVr2OF0flEOI5otWrQI7eJK+2h/CVG4MBlLVSgfEha2PlOosEmo8jatCtjGeggF/YgXqfYTCzbS3a6jTWP9m//U5G1qFKfJRsa0GiGPGY24bOYOlCcgYs1s/EVadyHhxTWqA5WjoejIZgTdipBtGPxWBBHornjclXv6H1nxxgtxGLswcwtnzKOxG0mdOXWNAO3dunZG2J6aEohqmf2e1eGxFv+wr8b/16bi0RfGdPfHowh+dRg2Mw8BpdYXpXmxLBvk5AGpVhvP//oeab6Yy+8Js4rCFQtL9x/bJ9vHkggvJ2Wc2A+rdWJ815BfK7sZvU+2qffM3NBnMYyW1d/AeLNmzdL66K+Uh3JhW8+/UDZ8lS/vWDtW2ZCvvHFpBaxTOhtdi+4WKV5tF9ss9Ibk4M0qTLEqr/3EgofdjfcLEzPs+H2avKrBICLvlq4PZdrIhCTC/3Mg79yT3tFQdHj98h4+E2FYOrhpGjBZYMG8oiv/hqjOlR+/J9mOuCtljX8zs3Ju/GfBtA/czdR3J6ME90mgDhGgP0MdOhlsSkIIaJaZqTNAsI5Jza/9296PupTbLbJTveSnkluvzX/iRckVnL9m3Th41OEjoyHYEpqBHGxwtsPzTISAit48jPI2P0me4KL4C5rVq1dodrymeaY9CimF9YN/8PiEw7Hw9ZSkjhVrLt/1+vBdb8Zk5io6s4aNyLtvoo2fZU37E2N5b59TK95/06pQ7xzP+BGXSi0PRGC8qip13pX1xWauR8iLaWEGOZ1/tow6clNnK+JiEJ/vI6X0OY5WsMJVt+BK2bXm8HukvPZSybrQHEpTnwe9diXtsFW2MbcOUGaMCkSRtZjmqPLaTywoFigpNhVXMl35BZq8qsFEXpwmGxmTYkFbU83HCyrGkmFeo0b40cILBUPgeCtwePqgxtFQtFpd2P8YZg76z8gaAoHK2Z9hiYzqRT+GycSyk3HqGbl3PiICPsdSlLIkUDsEaO/WDnfWmjwCeJCEHmAYarJ4OFW5vP848NGZa4baL59e+cl/S5s0zf3no5Lb8kuIExsCVi9iXCHsApzznDRPtiPxD9+F9fFmMa/IJy+Ulp2dbeWElxCqTnok2+JBqyirxyOD9n46fNcbfUrmx1O7y5Vz010515jZc/GoS0wZ+/FdvP303LzuwpdfC6vM+mILExM7YsRUTAvTH9L5Z8sjc7r3ipCUzhp2GA8l+gpWuN7wJqP4aShvNaJJ8HnIaa1f6kQcCUs4bpX7gNZhBcN3umV65Ix4keInptdnH9jClV/o6CeJ06SYvDVoVVTfXH2zTdOOhqJNSwaHmfEe0fOvtXvPPs73m+USvKal9ZlYHTnvzkcy+po52OjlmCaBOkaA9m4dOyFsTo0JYNQE9qWsxnaezcLcnlObjrh650v2FZa/+px/25a8x6e6srIjJWOyITDQu3XrVofNk+vCkIxw/sOuGlygc+fOkS1JVI7zHnXKcA8vevPCXz5q4lLHOGNsBIyevAcnwZMhxnJJF3e3OMB7eI/q5eYze1B9x5WLM1xSFVayQmA8ZRq77cVm0mJ1UpekBMbDixkMKWTqjU4Ugz+3sjqYUAExnTXcrl07++n8Sjm8w4StYGWYConaMSMN/zCQrFMu6pQTiZtDCWXeLt3ClIfvYI0UOSNepGGz9/z+6uWLw9WH7bkKCh39JJM6ey+sRXY7joaizRTkeDIvbZR5feOM1l5X3MauKycn+5qbcq76BxdhMGPMvLpOwHLUqq43nO0jAQsC2iwZdd6MhaB0X8vxq7I6WR0V+ZWff1R02aDAnl0iR0kYbQjTVTCxLibysUZmcIPNoX0Bj9Y8Q3XCa1broFGipvtOetS144Xje1377cGt57fJu65xZpzGrsuVfenVjWb+WAeNXQVi5tCLbWi2z3BPbJ7twmk96MKQWLxnU3YYsJjAJMc/63CtzWxFVL1+/XqcNZum4lAMK1jB8IXfAla5UrfTTjtNu94SN4fSA3vX2k2o0O1qi5Af8SLVGowVdlf+Eijap/bG5H/3Qe00eZsakzl7z6RZFlna0DVee5xtjX17b9725JKVxz3cLKu1N/4nfuaZQxp9vjBnzK00dp2Bp1SdI8D4anXulLBBNSSAWVYIKC8rwUqZsDUtXBqUWtpVbvhizTmYZRW1Uk/7jvlPv+o55HBFEjYEXBRCpWINtqQUc9A8rVV4vMUSa1Qr6Dhl0yN4fRxTsnDAvpn417Zyo2OV5oKeDodgWNfb6zjzw3Uj179z+57eh0i2ywh8m9/nH5mDNiwYIzc53rMZf3f3O1La/bNSPCyoWIRGbekxGOgO3XDDY33BpNbWfI3Qr8+Ai6rDr/Z7+x3h+0Nd9EOvIpi+fEvZjIqcqL9frZzFD6TsqYfwTxMLT8H9tNFXix3dMWocARHr3Tr30w1vprannUoHQZ4LfUU3bH965M5X4nCp16p0uTJOPTPn2pu8PY/RMpkigXpIIP63vXrYWTa5QRDAQwUzeOSuOohVtj6zzWVtp9ovT6ZQwzqdewefVDbxfikYNyHmVTB1wZbggOuweUrV8l+H04C0AjGnInuUFajsXzT7iT/Hr1jR65O151634/maGrveDIwPNZoxt44bu2Dnbto84+T+9hARe2Lunvtuatm6qcfl5GLTtKlnUx8Yzy18xDGsqwTb0wqEp5QoaCd/Jb4baOcuXBB7MOZC7j1xBUpAWWiACQuTOvSziqhCycDRmKK0eA7rYaFJzh6anxEf0rDZe5UVFa9PtanFe8wJOOrojlGzCIhhrbJpULRDjoai4WUjBS7e/c6C1SdhAez4jV2PN3PwBY0+nV/w3Ns0dqOdGR6vBwRo79aDk8QmxkpAm8GDL7CYQ2O7/ZB71DjPKbYi6sHqqrJnHt07qM+3kx6viQ1RXl4e0uigebKk42lAakNj/l9YRTkZBX3aDxq3/Zk31l+x+tcj3lp/+WW73kSQhZg1Ggq43ZmDzmv02Q85N9xZX76HZv3NzqVB6R+Midvz9i5tmw/3hm6bX416scmldGdTBMbD4J/fHwxnBasUQ3eIc3bcW/JMNZi2yoQ2/EUaOfooaLbrqiot1NafQlnbbx2KfOgvJCEf3BQN8BJOYLg+KPYcZufCe3aetwXeImr2A6mY/gbG6ZVemP71Hivbu9gc3THEKhk1a5VSY3x/tSXeMKHQwqWhZ9mSz9cMmbTp5rh/tq7snOzLrm48e0n+v5/3dOoSX1NZigTqGgH6M9S1M8L2JIZA2BdYfMY1TNARleCZEZygc3uTrJv2swtCIUoggXlK7xZVPb2ncnmbMXLkeucb4kcEVwXq0qXLihXqFGkHzVNqcP6x2HmLIOn/c+OzY64umvf10dmew7MyvFIscUSj1RSQXFmDzs25/jbEcYgmW8eOV1ft6dsDKzE7b9amav8Xno5fHnTTt436l7sjJjiqF5uiUH82tcu149j4rii9Nn2DY/oCri8o5kdibDIZ64FU/zh338Vnh9UYvvPArorHd1fKeXH9QDDNdO/Zxwb27A7XqtvzeBr/bzUG8pUs7RTY1IiQHDA0lS2uVoXK1uA/7YSiAeHeKTBw79z66KW73gqFvI69FlejxnCszx5xjatJs9hLswQJ1GkCtHfr9Olh42pCwPlSA6gFi0y9c0yXvjtjMG5Q6uus7k+3Gj8n/0Sn7VTXWIANgVnh2pR5jOphOA2rMeBbNobWYBhFTNVHKLWo4ZecNqOqEosPVP/8Q/Dfj/5tm50WjEUOVvMvLdud9PJ79c/SVbtZNXd20chz41iKv1zyfJfV7cvGA34sPGG1u3nFvt8MCy8YzqZmxDjwy1RbF/xfd0WZWqWIfhKa1D9gfQzju9CNixAT6SQJc6SKioqClSX0j8+356TD/Vv/slJa7Mk44vfdu/14uwy6R8f4Aym6eljV7JlWypGfedbQ/Ekv6wUc3THWTJYC1aFSKf7ZBms19bOHh/2VO1+5fetjjXx2k/P0nTWksSZJ9pVjsi660pUXtpqbQYy7JFB/CdDerb/nji2PTiBszMZWXBkeK5v8WNnj92E9dltZ48Fl2Ye91uSCzwv6b8hsbTwm9jHfZctn0q4fpH3ysK7L5erWrRvWatBGeYWkWcJq9M5MNiIvEPBv+dO3ZrXv91W+Nat8K5fJK20FvZAjRBOTURYIzMkobDx2/IAxf0+MxtrTAgfQkrtvrEn9sPvXV/lXVop/vlNGjHz6uef0OY5ewQAAOxZJREFUOhNrlcI7BU4IIrRBqCLZXjwzbIU7fQtM0wh7G9wC6i/CoBmmMF7b4FQaU9AEUZX9ZDKILWzV4fTv7FYTE6oMP5DS+8eXT5ssjpomCt+dFemW6vyOYarTkInwe/iN15CSQSd2wxrZbkTzQ/7+3JY74E0eKekkx9OuQ/bV47KGXiRlOP3A5UQtZUigrhGgvVvXzgjbk2ACGA7BbJ6Qu62Zbgy1iuBnOF754dvFt42RqoIfUs3kbfJWZB8ys7D/zILTfs49wi+pzvGIzmobLA3T1zSP3gjthuZFHI/I8FX71q/1rV0N09avGLhrVgdKSyLkkpKx1p25rFP3lldce+Z55yelgtpQWvroXeXPPZHImj0erAwAz0hPx0PdLVu5mjY/afDQ7b4A/hWdE32pEGNLdFZp1Ks9MjCeUZvYDx/fjao55gsVjjRb/8IQr/3w+crBl147a57z3y9eVksfvrP8hUmiH6YJ7xFHF773lekhJz3t27cvwsfYtMpUMzLjoGSqSgxFn5DjeX7/3BYeU6komd6uR2SPviHzjME28XSiqOBhEqg/BGjv1p9zxZbWgEBM41JV339TfN0l9st22rdlp7fJ0uyuy7O7LN/2869/zlld5a+MNmQMj16MBsUQa9RX7d++1b/lL/+fG+CA6/tzo/+vDf4N6+U1nqrjDABh3ymboxjQnVHuGvXpbG+Po2zE6uuhQKDs3xPKpvw7Be3HUiE7vM12eJtu9zZT/inpHZ6myN/mbbbT2xTRAbWW6KzSSy65xOGqYbLzjCGMhaZRTek8JTCC61CzYZxV1WX5f/E1F1XO+sTyMA4gAt/Y2+a07fLhZzPFiLXViKl/86aSW66pmv+tncLgsYKp72WccrqNmJM7hkFGGc210SkOxUpJFNQnrh09uuDdabc2UYJz6I9ET2ccf3L26BszTjg1uiglSCBdCNDeTZczyX4klABCEBVffxl8ABKiFYG4fq+WNma03pnTYUfOwTszD9jhyt1ZsW/H7l/L/vw44JMHX2EP9+vX76lJGJeCL7EkVZT59+0NKP+KlMQe7Pr37gnsgJm72b9jq6TM6E9IE+NSAsNrbuZhMzb9+H5xdbuu3Uz9R+NSXBcLXdW189+LNx+IkKy1ve3xNCpy55e6c8vcOSW+qtI9v5T6pWqvd09FFV48SgNSqZRZ2uS40kZHlOZ1KstoWuL3l5X+Vbrzp9JNH5RWFUOgzB8IIHLbsa/ZdUWdW4kQbohqEZJMtMdq9U/f77vwDLtmBI+5W7TMHjkW39yt5lFhqLji9RfKX33WyWtq5tl/y39qWtRKYxIQA65yqURTimwJvtgUj7m06jvzIepI+VCOy5XZfyAsXW+PXpYyPEACaUqA9m6anlh2q+YEKivKnn60DB+yUz5cWvO2J1UDLK1ZBad8UnjmFwX99q34l7LiREKGrJLa7Boqh9PkG88/d1/TrMsKM2qoqtaLVwekHb7AVk+TrYU9t3lbbM1osdXbYl1m29+yO27KaIUlNeTJamp8E621yVmRoHjsiMrP3tdqsUm5XJ7Oh2Ucf5Ln8CNcOblYNitQUuRbsax62aKq77+1Dw4itGJBBgT2c+3XVOTUPGFwqI26GoxSY9w/Gdj0RVf+rXrRjzG1PPO0ATm33Ft/J4/G1FkKk0AkAdq7kUyYQwIaAczuKrn9+uqloUBW2oGGl4KTxucFp8HM/brgxApXlgxAZxUlJHxUXYaKj9dK3L4j8wrGdep3VtHXmBRflxscX9swZvxbVoclpcULd6z8udyHaXY+RVGMQQTtQ77p24bJlHv79wqUleozk5fOn/wGxjgTqB/+vnGHWnROSTQYgc2LRgyWp5w63jwHd8r956N1Nna3435QkARqRID2bo3wsXCDIODzlb88GZHVUvZIrlNUMez3RWE/mLnzc4/2ucLnxYRHna1TzU5GY7RVw9qNaHvYTVfvfPHSXW/n+4uTUVcd0QkHicUV/p+zDv2p7U3f5ffe7WkcpWFxXRIVrz9fcvdNUTQn4nD2NTfm3nxPIjRpOvRXhWFBXE3IkIqLEnT4d2wrGn6Ob/WvBn1Wu67cvJzrx2OhMclb7z9KWPWR+STgkADtXYegKNbQCWByWPm0/1S8+SKcaNObRUVAWuo+4Memg37M67Ugtxe+dJv3F3HCVjygHIpjmMpcZ93OjRzJg7F79r4vztg369Tib+Ne+rRud1prHZYcwcIjXxWc/FX+KYtye2grkGgi8Q/5l/zf9RXvvqLXlPB09vDRuXf9K7Fqxai/7LN7xi9OVziO68MIYsUVXXSmb+1vDruQOXhY7vj7sLCuQ3mKkUB6E1CXTErvXrJ3JFBjAu7m++fecm/j71bk3vGQ+8CDaqyvbinAfKDMM875tFPPM/8sbb+u6MzfV9+1dcfHOb3NjV08rTFApRq7cENEsNm61Z/ktAbdRGdDutH9xeOKfb53Gv9tZJv/dO6y+JyD35nU/JpVWZ2SU3nta4X/xlGlP4/fOvGLNYNX/drzuY1jB+77LCsQvnJfRCBih+3Ou29ixnEnORSOQyzrwivwTT+OgvZFEhWu2b4W+aivWp5B68zYdTdrUfDyh/n/nkpjNzpYSjQYAhzfbTCnmh1NIAFfdeWnH8DJoXrxggRqTakqj8d7aFdvz2O9R8r/3K3bKLWneJp5SrucoMqiImqz5b/9dr53hLeqS6b7kEx3vrv2l3RIUNdN1Oz1FM4oPPvd/Yb8L++40IivbiGzmJbsgL9Q8T+uqJr9mUk1NcnCimajb8y56S4sbVYTNaZlNWeGRAfGM1RX+sBt5S/9x5BpuovXhryJL+D93PQoM0mgwRKgvdtgTz07ngACWO/z5atG5P/8/Qk53qzEP0wT0MKQCgQ4aNPe0+EQd4fO+Cv/63yYKyfHtIKwyeamEmpm3BPMVQX19f+YEP3nrjuxvJ327/dVKQv/kUq+mzNavtN46ItNh2+S8uMPRIyl0ybeLy91rEZ0q2EX3C0PzHt0ckbvU2qox6p4YgPjWdVSOeO94huutDqq5bvd8NbFP8aP0JgwRQIqAdq7Kgn+TwLxEoBb5+P339ds7cqz8rwn5XhrfYlWrNPkbt/J0zFo2nYMWrftOsQULNRJiCl9ULp4ydXjcvEjQnhnxAeBBbzuN/+2LYGd2zEJyb9zh5zYtSO+wH51h2O1y/tRo7P/s+ytRRXyug4iEHFMLaxeOB8x7fA3plKRwpmDL8i7+zFXYaPIQ4nKQWDwkKohu2PWqQuMZ1MWs9P2nds3+mRZb0b+xKmZZw21UcVDJNCQCdDebchnn31PJAERbOnPX5d1yXAdnuk5vMOFh1euObRidba/PJE1qbpc+QXu/Vu5D8C/g+BS7D6wjUf+29Z9wIEJGeARPYoh6pvatgbyf8IRySFFdmyTbd+d25d+8/W6hQuKN/6RWbyvccC3v9fTPMNdEKgfi6DNL/e9WO5+b9veuC/F6gXzyv7zWMwhFXDleTMyzxqcfcX13u5HJvs6TPb4bqCsbN+g3r71a6J0JDOr4OlXM/qeGUWMh0mgAROgvduATz67nhwCBpc+T8DXtnLDAdVbm1bvala9s6lvZ7PqXU2rdzbz7WxcvdcrVbvk2GoSfoqSr8xVugEDRllZWe07dXYVFGJoylXQyI2/hY3ldHDX1agxpqG4W7Zy5eUnpwfUWocJVFf59+yWykox4Id/oy65eMu6dbluKafzuNy8A/P8ZTn+slx/qfwvgERoN89fGsyXDyGdFahITQ/dbdpnX35d1vnDrZxnojYDMQ6rvvy4av431T/ND5SX2ct72nfMHHQ+pqZh/qW9ZKKOGn7sMah15uVc+tg95VMet1cLtvmT32JwYHtKPEoCujjshEECJJAIAscff/zSpUtlTVs+l5r1wZq1a7Pa41903YjguhHxhKXRoy+dMmVKdHlKNEAC3gzMvhf9zj6h7+fLn5V391VIbS4X+fYJLKO2/6937v/na/t7XENOPOG8U070r/vdt3a17491iY0m6N+wrnTCLeXPTsy9dQKWx7JvlelRxAPzdLgR6+bC0wMRxap+/sG/8Y9AealUViabv36fq2kLzLz0dOnuPaybVbRhU80JyTT82GPQiZtDcIMGq1KgV/7C01ZHQ/keb/5z72Qcf3IUMR4mgQZPgOO7Df4SSBcACf+yHDcYtEQJxJWCJTnjbiQLpgeBBF9s1VXwFq1esrB66cLdc+dkb96YwBUrsQwIVgTzdutpSr7u/H5Nm2eVmWD+4dUUXX1B1NUqsDxi9hVjwstxjwRIwIQA7V0TKMyqXwTinzmUtH5qXznbjUh2yKWkdYKK6weB5F1sx3Xv5v19xXHZnn77terl3usNVNeUiMuVdd6lOTfdrR+iroO/35i6mST+Vd/OKrryb/YtyRx4Xv4TL9rL8CgJkIBCIIFv70RKArVAACtDIXh9yH/Aon4chQwkLY4nPhtrF4SUrn9ZQhyyqBtkIBnctLJRS1GABCRJu2ASfbHdeOc/55X5/r278uy16ztljLq8zZRXm1z0V8YB8VMPBCrefXXvaT3Lpz6lrERRN3+/MXUwKfyrq0rvH2/fDCwpmPdQNG8HexU8SgINiQDHdxvS2U67vkZd+V/2oF0/TaouUro+ZMiQ999/PzUYwpZoxSjv4feaxxpFrLLldwtjt8GuaJuak5KutSTvYjPVfHTpwvP3fDB478eYfxk3Uk+7Do9L+RO+mhvSgHi87S6XWp4hNeoq/1Lwu9i7rBZ/vzH1y5SSiQbHP/byFyaVPqS+M5soktegaPTJ/7CQtulBZpIACUQSoL0byYQ59YNAwp8xCe92XTbHE95ZKqxdAsm72Kw0e715p+6Zef7O1waW/ZAlyavtxrG9W1w1fnvF3jbD6/sLoRWlOGx3LEiHIfBAcegt3ZRq9sixuf/3gOkhZpIACZgSoL1rioWZdZ0AfP7gohBqZZc7pENujtJiOAysCD0e3n777WHD4pkqHqUKs8NhRrmZgMjjyK5AwUR8BJJ3sdlrbu5xjWqUeUVhRlOPGnwhlg786SoY0+757/J72xWqpd9vTLPo7Cnpe2f/Yy+57bqK917TyxvS8H5uNGsRlt825HOXBEjAhkAq7N3NmzdPnz592bJlixcvLi0t7d69e7du3Xr37n3CCSfYtMz+kIhqE1/8HnvlPFr3CSRpjkgyOl7fp+Mkgwl1JolA8i62qJqP7t5tYv+Tuv4yHyvmxtq7gOSa0mzkfS1vq3BlWpZdPE5x+8ETZMmSJZZiCToQtb9oBjx3DW/O8ZXSNxlR5fZdeIZ9OOW8RyZnnXuJvhTTJEACUQkk1971+/3Tpk0bN25cUZHJp5mLL7544sSJLVpoa0lGba4QoL0rUDTARFLXAEoSz5gGipLUBqptIASSd7FF1xwIVH3zZfnzT1b98F2stFdmd77moCd/yT7cvCCcXz/vpvjif/zxxwMGDDAXS0RuDUdqo1OyamRlxd5BJ/jWrLI6jnxvj16F782WRBxjG1EeIgES0BFIrr177bXX2i+bj2CM8+bNw3CvrkmOkrR3HWFKUyHtadRxrNR1Qgy9RECH35WADqPtr8wYdFKUBEggggAWji194P98f6yNOGKXUenKeHj/myc1H+2XzNYOSsnvN4GeuHZdNTtW9sQDZU8/YnZEzXO5Ct/7ytvjKHWf/5MACTglYHZPcVo2itxHH32kNykOPvjgyKFcjPteeOGFcHKIoouHSUBH4Pvvvw/tYTZ3TJsqr2mIqTiFSYAEnBHI6HtWo5k/IqxaTFGvMwNVd2156KO1w9pUbjKpJ/m/X7xLf/DBB6GqsazKGb/Ib9TN+oQWV8HCEUgjB/k4Gtwgj1ImrY0xC5E+yqKFDs7628U0dmPkSnESCBFIlr27e/fuSy+9FJVgBPfRRx/dt2/fmjVrtga3sWPH6vH/+uuv99xzjz6HaRKwJ7B2rTpohKWLYtpUeU1DTMUpTAIk4JxARmb21eMws0p2No3l+/vxJT9+99vpF+9+R6tq5cPSV8dJ35+r5GBF7ZycnMMOOyyxzw543z777LOhSjEL9ognQmau1g41BcMXRyET3FAKZdVjcf3v95fcPtY+mDPeHHJuvicu7SxEAiQgJcuf4d1334UjPwZ0v/3220MOMa4RqBwV+CEGS1jsOknQn8EJpXSVEWdfGrI75j5+sJ9ShDMdY0bHAiQQL4HqpT+XTrilevGCmBR8Unjmjfvyd6x/U/KVWxXMzs7G8CqmglgJOM+vxVmw5dMmRw0wwdDBzk8lJUkgkkCyxndnzZqFymbOnBlp7CL//PPPHzEi9DEIu9u2bduyZUtk45hDAqYE8vPzQ/mYwhLTpsprGmIqTmESIIG4CHi7H1n47iwsLOAqKHSuYMC+md/73h2Wa7e4b3l5+RNPPIGxXudqTSUxySwUphGRLxAdxuEGSchLEspCg8NCBjH/nxvLHp9gyDTserv1zB6eAK8Jg1rukkDDIZAUexcjZ3BpwvILPXv2tEL54IMP6g+tXLlSv8s0CdgQgC946CgiMMW0qfKahpiKU5gESCBuAi4XHBsafTJ/sSfbuY4mHtfkFtnvtCpo3fFK6YSPpQHr5a86+Is0pqsGbU1oW7FiRatWrZyrjZScMWNGKBNh3uCu4HCDJOSDm6bBYVlVrOSucYHSEnXP7H+PN+/BpyWPx+wY80iABBwRSIq9i8/N999//3333WfTBNyb9NPX8vLybIR5iAT0BI4//vjQLsIFx7Sp8pqGmIpTmARIoGYE3K1av3vq3+7aWVERiEFRvxzpf65PR7l+c2cEgyyYzRvDQu81GeXV5rCqs+Kctk+V1zQ4LSnLVX74DlZwsy+Rc9U/PF1iXsXIXiePkkBDI5AUexcQr7rqqqhDaHqBAw88sKGhZ3/jJjBo0KBQ2fXTJNVFIbo2SEI+uGkaohejBAmQQCIJDBw06Jk9ladtKlleGYPaPH/JI3/d9cmacztX/K4VC583hlHeG264QTsaS0qbw6rOanVaWpXXNDgtKfm3bS65f7y9uKd9x+yxUWTsNfAoCZAACCRrvpoTuIWFhUocChi+v//+uzYJyUFhIcxZRw5opaFILc4sSUOa7BIJpJaA8vvNdEm3t+81xvW7W/I7rx8x2P7d4u9PNb+uyuXVSqnR1zB9raysTMt3nBLPlNTNgq2q3Hfx2dWLfrRrIxbcfeNT79F97GR4jARIwAGBZI3vRq36jz/+EEHXhg8frt1ropakAAlIEiJ5hjCsf1la9Vh0JJCBZHDTykYvRgkSIIHEE1B+g5UB6Z61CwdnDN2YEcP3vaxA5e1bH/vq9wFHlC3VWqbOG8P0tfgWKdPmsDr/ZKRUr8prGrRm2aVKJtwaxdiVpKwLLqexaweRx0jAMYFas3cXL14sGnnFFVeINBMk4IQAVrsbPXp0SHLFAxJGd9SnjrE48nEUMsENpQwh743y3CcBEkgyAf3v938rp51YfuRbjQbHVOfh5Su+WDN4wub78/3FckHdvLH4lsLV/OvUWa1O26PKaxoclKx495WKN1+0F3S3OCB3vN00GPviPEoCJKAnUGv27vPPP6+0Y8KECW3atNG3iWkScEIA0fuGDBkSksTY7efdJIQb3TEvZPjCzEUaOchXR3Yhr4/556QWypAACSSDgP73W7T+jTFLP7zcdeout7rUoIMqPQHfmB3PLVl5/PitE/fz7ZHUeWPr1q1zUNooos1hVWe1GiWs9lV5TYOVpJpfvWRhyd03qXuW/+fe+++Ylm+zVMQDJEACteW/+/XXX/ft2xf8W7duvWrVqtzc3FjPhUP/B3r3xgq23sljqXktJJJt6zGyS2PXlhAPkkCqCRh+v809rkeaZQ/O1znmOmtRiTvvxcbDnvl50nZfAE8Hvz8Gh2ClBqyeO3DgQDmNNc4QLhgDxk42vFfjjbq6CLIff/zxgAEDohbyb9+6b+gp/i1/2ktmnjk4/+lX7WV4lARIwDmBWpiv5vP5jjnmmJ9//hmt/PDDD8855xznzRWStHcFCibw+fKBBx4IrRVvhqN79+7wF6Qbgxkb5pFALROI/P2eled9rFl2S68r1pZhjbNX91U+tadyU1XM9i7qSsEs2MDunZij5vtthX3X3C1aFn40192shb0Yj5IACTgnUAv27muvvXbZZZehibfddttDDz3kvK16Sdq7ehpMgwCGZ7DeO5bAxKpAxcXFmDsCdzp8YcTSY04GXciQBEigFgmI36/y4lrodt3b8/LL9vzXJcWyTm+wA1UBKX/Y8OwR13gO7RpTj2B5X3DBBaEiXe6QDrk5SnHMglUnBrz99ttR36gDe/fsu3Sgb4Vump1pBd4MeU2GI481PchMEiCB+AjEYO/iCxGcbqurq61q8nq9WHbX7bbzCd64cePhhx+OlRlggmBw1xNvwBhh79Jjwep0MJ8ESIAE6h2BnJwcrLEgN/uEj0/IcT2x6bb2levj64Wn46GZA8/NHHiep10HhxrC/CvajZADC5s6NsCNYfndYmKAE18p/87txSPPrV6mTdS2alLevY9nXTLK6ijzSYAE4iMQg72LRQ2jOtqWlJTYyFRUVJx44okLFizAwNvChQsbN24cX6NRivZu3OhYkARIgATqLAHESEPYCLl5CBfcdUK2v/y2bY9ft+N5zE6Lu83ew3tknHFO5mkDPJ0Pi6pk6NChH3zwQUgMvrztLpdnwiGoBAxfmLlYjQET1BC5JuizCzHMgn3//fft1WJMt+jqC/2bN9mL4WjW+ZflPfRMVDEKkAAJxEogdfYuBmJHjRr14osvFhQUwNjt1KlTrG3Vy9Pe1dNgmgRIgATSgwBWz7333nvlvujmjfUo++WpTbd0Lf+1hn10t26b2X9ARr+zM47uLXksZ8WFjfLaVtmlS5eMjAx7H6rKGe+V3D4m4CAKhrf7kYVvfS5lZtnWyYMkQALxEIjB3sU3Jnxpsq/EZnz3rrvuuu8+eSlBzFTr2bOnvZ6oR2nvRkVEARIgARKojwQ0lwZ4FBzxhNIFb6D679sn37ztScSbqHmnXI0aZ5zcP+P4U7zH9PG0PThSYeQsOoMMArmF/C4MB4K7yhzZ8/ocX3LvTVWzZ5qJGPNcTZo1+vBb9wGtjQe4TwIkkAgCMdi7qG7Lli32/rstW7Y0bdXkyZOvu+46HJozZ87JJ59sKhNTJu3dmHBRmARIgATqC4EbbrjhiSdCZq4UPm+sU8Waezfff0bRVwnsCxZDQAyzjGN6e485AS6/8JYTysUsOv0IblVVVcjjQshFJFp4XKMaZf69WW6Gz3LGi76QKyenYNqH3l7H6TOZJgESSCCB2Ozd+CqeNm2aEkEN0+dDCxzGp0hXivauDgaTJEACJJBWBDQvXnQrYt5Yt/LlN26bNHDvTLcUz7pjNqRcjZvA1cF7dG9Pl25w9nU3bW4Qtvfuzd7z8/FbXx9W/MWQXClTM5sNOoy7rqzs/OfezuhzqvEA90mABBJHIOn27iuvvDJixAg0+I033rjooousWo71U7/55psvvvjCSsCQT3vXAIS7JEACJJBOBFq1arV58+ZQj8zmjXXe8s4Nxe+fmyd5ktZt+Bh4Ox/m6dzF3eogd/P9n3r9zRc/nLHLJy+R5jpomOuQm7I9Ga0r/2pTtbFt5cajSxceW/JTVqAituZkZBZMeRPOFbGVojQJkECMBJJr77766qvDhw9Hk6ZOnTpy5EjTtsHl9+mnn8ZavFi8EEsYmspEZtLejWTCHBIgARJIJwJho7wWHWub4f5748xLCjMzYl+p10JlCrMzMvOffiWz39kprJJVkUADJWA5QbXmPITPLlTB2+nmm8PW7kaUNTj7b926ddasWViOFzKKZVzzeqmBBEiABEggDQj8+uuv8OVFGHCbmWFbPZkbL7mm+W23lE99quKtaYGy0vrScQweFzzzGnwn6kuD2U4SqNcEkjW++/DDD//f//2fczRYpGzHjh2ZmZkOi3B81yEoipEACZBAfSeARcqwYMK6deuwiDuWtsT9Pysrq3379vgqiEOid4GS4sovP678+L2quV9L1VUivw4mEPut4Nm33QceVAfbxiaRQFoSSIq9qy2g6JjZuHHjJk6c6Fic8Saco6IkCZAACTQsAoE9uytnflD5yfSqH+dKvvgDVSSJWuZZQ/MenezKyU2SfqolARKIJJAUe/eYY45BELXIymxyfvjhB5SyETAc4viuAQh3SYAESIAEDARkw3fO51WzPq369stAaYnhaOp3Mekt986HMwecm/qqWSMJNHACSbF3U8CU9m4KILMKEiABEkgTApUVVfO/q5z1SdVXn/m3/pX6TmHhtJxLRuXefI+roDD1tbNGEiAB2ru8BkiABEiABBoMgUDA99sK+DlU//i/6gXz/Nu3Jrvn1QFpRkn1k3sqlpbXOc+KZPed+kmg7hCgvVt3zgVbQgIkQAIkkFICvvVrYPVW/zC3CrbvnxsTW/cuz36vNP7bCz8/+Vd1ID8/X1mJKLFVUBsJkIBDArR3HYKiGAmQAAmQQDoT8P+1qXrB/6pXLPWt/tW3eoV/y59x9DYguZZnd5mTf+KcghPn5R1fufNHae5A6OnevfuSJUviUMgiJEACCSGQxPV3E9I+KiEBEiABEiCBFBBwt2qdOXgY/il1BYr2yYbvmlX+LX/Nmf7ezlUrWnhczbMb5XhzYNRiUTT89Uvu3Z7GGzNbb8hsvTGj9brMdj/l9tzhbaq1dsvnSvr444/XMpkiARJIOQHauylHzgpJgARIgATqPAFMLPP2Og7/0FJ/h+6XDZSHaSWvRzrjeymjkaPmV+2V1k9TJAcNGuSoCIVIgASSQ8CdHLXUSgIkQAIkQAJpQmDAgAFwSJA7U10kLb/baa8gCfmgMwM0OC1FORIggSQQoL2bBKhUSQIkQAIkkF4E7rjjjlCH1r8srXoseucgA8ngppWNXowSJEACSSFAezcpWKmUBEiABEggnQggdvHo0aNDPVrxgLR4nAR3BdMN+TgKmeCGUihrKshMEiCBlBHg+gwpQ82KSIAESIAE6jeBoUOHfvDBB6E+eAukdpdLLc+QGnWVPXph5u5dJmGCGnx2g24MEBsyZMj7779fv/vM1pNAWhCgvZsWp5GdIAESIAESSAmBa6655tlnn3VSFUZ2p0yZ4kSSMiRAAskmQH+GZBOmfhIgARIggfQhABP27bffDk1fs+gWjkKGxq4FHmaTQC0Q4PhuLUBnlSRAAiRAAvWdwCeffDJjxozvv/9+7dq1xcXFiKB28MEHY51dLD3G1Rjq+8ll+9OPAO3d9Dun7BEJkAAJkAAJkAAJkIBGgP4MGgumSIAESIAESIAESIAE0o8A7d30O6fsEQmQAAmQAAmQAAmQgEaA9q7GgikSIAESIAESIAESIIH0I0B7N/3OKXtEAiRAAiRAAiRAAiSgEaC9q7FgigRIgARIgARIgARIIP0I0N5Nv3PKHpEACZAACZAACZAACWgEaO9qLJgiARIgARIgARIgARJIPwK0d9PvnLJHJEACJEACJEACJEACGgHauxoLpkiABEiABEiABEiABNKPAO3d9Dun7BEJkAAJkAAJkAAJkIBGgPauxoIpEiABEiABEiABEiCB9CNAezf9zil7RAIkQAIkQAIkQAIkoBGgvauxYIoESIAESIAESIAESCD9CNDeTb9zyh6RAAmQAAmQAAmQAAloBGjvaiyYIgESIAESIAESIAESSD8CtHfT75yyRyRAAiRAAiRAAiRAAhoB2rsaC6ZIgARIgARIgARIgATSjwDt3fQ7p+wRCZAACZAACZAACZCARoD2rsaCKRIgARIgARIgARIggfQjQHs3/c4pe0QCJEACJEACJEACJKARoL2rsWCKBEiABEiABEiABEgg/QjQ3k2/c8oekQAJkAAJkAAJkAAJaARo72osmCIBEiABEiABEiABEkg/ArR30++cskckQAIkQAIkQAIkQAIaAdq7GgumSIAESIAESIAESIAE0o8A7d30O6fsEQmQAAmQAAmQAAmQgEaA9q7GgikSIAESIAESIAESIIH0I0B7N/3OKXtEAiRAAiRAAiRAAiSgEaC9q7FgigRIgARIgARIgARIIP0I0N5Nv3PKHpEACZAACZAACZAACWgEaO9qLJgiARIgARIgARIgARJIPwK0d9PvnLJHJEACJEACJEACJEACGgHauxoLpkiABEiABEiABEiABNKPAO3d9Dun7BEJkAAJkAAJkAAJkIBGgPauxoIpEiABEiABEiABEiCB9CNAezf9zil7RAIkQAIkQAIkQAIkoBGgvauxYIoESIAESIAESIAESCD9CNDeTb9zyh6RAAmQAAmQAAmQAAloBGjvaiyYIgESIAESIAESIAESSD8CtHfT75yyRyRAAiRAAiRAAiRAAhoB2rsaC6ZIgARIgARIgARIgATSjwDt3fQ7p+wRCZAACZAACZAACZCARoD2rsaCKRIgARIgARIgARIggfQjQHs3/c4pe0QCJEACJEACJEACJKARoL2rsWCKBEiABEiABEiABEgg/QjQ3k2/c8oekQAJkAAJkAAJkAAJaARo72osmCIBEiABEiABEiABEkg/ArR30++cskckQAIkQAIkQAIkQAIaAdq7GgumSIAESIAESIAESIAE0o8A7d30O6fsEQmQAAmQAAmQAAmQgEaA9q7GgikSIAESIAESIAESIIH0I0B7N/3OKXtEAiRAAiRAAiRAAiSgEaC9q7FgigRIgARIgARIgARIIP0I0N5Nv3PKHpEACZAACZAACZAACWgEaO9qLJgiARIgARIgARIgARJIPwK0d9PvnLJHJEACJEACJEACJEACGgHauxoLpkiABEiABEiABEiABNKPAO3d9Dun7BEJkAAJkAAJkAAJkIBGgPauxoIpEiABEiABEiABEiCB9CNAezf9zil7RAIkQAIkQAIkQAIkoBGgvauxYIoESIAESIAESIAESCD9CNDeTb9zyh6RAAmQAAmQAAmQAAloBGjvaiyYIgESIAESIAESIAESSD8CtHfT75yyRyRAAiRAAiRAAiRAAhoB2rsaC6ZIgARIgARIgARIgATSjwDt3fQ7p+wRCZAACZAACZAACZCARoD2rsaCKRIgARIgARIgARIggfQjQHs3/c4pe0QCJEACJEACJEACJKARoL2rsWCKBEiABEiABEiABEgg/QjQ3k2/c8oekQAJkAAJkAAJkAAJaARo72osmCIBEiABEiABEiABEkg/ArR30++cskckQAIkQAIkQAIkQAIaAdq7GgumSIAESIAESIAESIAE0o8A7d30O6fsEQmQAAmQAAmQAAmQgEbAqyWTliopKZk2bdpPP/20fPnyioqKHsGtf//+3bt3T1qdVEwCJEACJEACJEACJEACMgFXIBBIKol33333+uuv37ZtW2QtTz31FA65XK7IQ1FzRKlktz9qSyhAAiRAAiRAAiRAAiRQlwkk196FsTts2DCb/sPenTRpko2A1SHau1ZkmE8CJEACJEACJEACJKAnkER798cffzz22GNRWUFBwYgRI9q0abNx48b3339/06ZN+hbMmzevd+/e+hwnadq7TihRhgRIgARIgARIgARIIFn2LtwMYMXOnz//6quvfuyxx2DyKqyLi4tvueWWKVOmCPQjR46cOnWq2HWYoL3rEBTFSIAESIAESIAESKCBE0jW+gwfffQRjN3x48c/++yzwtgF6/z8/KeffrpPnz6C+6JFi0SaCRIgARIgARIgARIgARJILIFk2bulpaUXX3zx/fffH9lcj8dzzz33iHyM+Io0EyRAAiRAAiRAAiRAAiSQWALJ8mewb+WGDRvatm2ryNCfwZ5V7R6l30hq+JMzOaeGQGpq4fVMzqkhkJpaeD2nB+dkje/a09m+fbsQGDt2rEgzQQIkQAIkQAIkQAIkQAKJJVA79u7cuXOVbiDqBKJPJLZL1EYCJEACJEACJEACJEACgkDt2LuffPIJWnDwwQe/8soroilMkAAJkAAJkAAJkAAJkEDCCdSCvfvcc899+eWXLVq0mD17dsuWLRPeJSokARIgARIgARIgARIgAUEgpfZudXX1vffeO3r0aFTfuHHjkpIS0Q4mSIAESIAESIAESIAESCAZBFK0PgMW2X3rrbemTZu2bds2fTdg/t511136HIdpzpd0CKqGYuRcQ4AOi5OzQ1A1FCPnGgJ0WJycHYKqoRg51xCgw+Lk7BBUDcWSzdlbw/Y5KT59+vRzzz3XVPLuu+9Gfnwmr6lCZpIACZAACZAACZAACZCAnkAqxncRe2Lx4sUY4v3hhx8+//xzwxAvWrNgwYKjjjpK36yo6WS/B0RtQAMRIOfUnGhyJufUEEhNLbyeyTk1BFJTC6/n9OCcCntXT6q8vPxf//qXYUB36NChGAPWi0VN8/qLiighAuScEIxRlZBzVEQJESDnhGCMqoScoyJKiAA5JwRjVCXkHBVRQgSSzTkGe9fv9z///POYc2bVMa/Xe9VVV7nd0efArVq16uijjy4qKhKqqqqqUFzsRk0ILlElKUACJEACJEACJEACJFAvCAQCgaS0E3odbnBLiNoCLLngUNubb76p17Z27VqHBRUxfVmmSYAESIAESIAESIAE0oBATNagc+HoY7FJYnfhhRe2bt1aKN+6datIM0ECJEACJEACJEACJEACiSJQmy4E/fr1e/nll5WetGrVKqYuwaKPSZ7CJEACJEACJEACJEACDZNADPZudnb25s2b7f13c3NznXM87rjjhL170EEHOS9ISRIgARIgARIgARIgARJwSCAGexcaExv+Fwa00so+ffpw/pnDE0YxEiABEiABEiABEiCBmAjUmv8uWrl06VKlreedd15MjaYwCZAACZAACZAACZAACTgkEMN6ZA41OhTbsGFD27ZtIdy5c+dffvklMzPTYUGKkQAJkAAJkAAJkAAJkIBzArH5MzjXi7FbLNbr8/n69u07ZMgQw9q6WNps1KhRirbJkyfT2HUOlpIkQAIkQAIkQAIkQAIxEUjK+C7M3Hbt2m3atElpCkZw77jjjgsuuCArKwvT3X766acRI0asXr0aRydNmnT99dfH1GIKkwAJkAAJkAAJkAAJkIBzAqmwd0VrDj74YMSVUHYLCgpeeumlc889VxxlggRIgARIgARIgARIgAQSTiAp9i5aOWPGjHPOOce0uYcddtill16KYV2YvKYCMWUiotu0adMwZrx8+fKKiooewa1///7du3ePSQ+Fsdjc9OnTly1btnjxYjicAGC3bt169+59wgknEE6tEEDY7UcffXTu3Lnz58/fb7/9aqUN6VTpJ5988uGHH+Lyxk2jU6dO8LMaNmxYTEsophONpPaFl27y8PJGnTy2es00LfQ0UpyeOnXqQw89hEpvvPHGMWPGJKx256HYYpUsKiqaM2fOO++8A6eFJ5544tVXX/300083btwYqx4beShv0aKFKYunnnrK7/fblOUhQQD+Jy+88ILV68fFF1+M6HdCmIkUEMAMTmAXF/Zff/2VgkrTuIo//vgDix4KniKBEI8//PBDGnc89V3jpZs85rxRJ4+tQTNNCwOQVO6uWLFC3KJvv/32BFYtJVBXilXhihRQTBMYQk5xk+ppdddcc40pQJEJUxgTEOtp7+pXs3/++efzzz9fkFcStHdrchLXr18vQpfjy9Jvv/22ZMmSu+++W0D+5ptvaqKfZRUCvHSTfSXwRp1swop+mhap4WxaC77SH3nkkeLmTHtXpoRRGYUITDHYtfjsO3bsWPFUE7DmzZtnypSZggC+8ApcSMDH2nTIHF4o+L4jSjGRDAJWzzPau3HTxsdfcVvAkLn+mw8+OokrHzZx3FWwIAjw0k32ZcAbdbIJK/ppWqSGs1Ut//znP8VtGQnauwE8tBCLGCyuvvrqffv2CXDwoDDcdkeOHCmOMhFJYNeuXYobA/7inUHAhAMD3h/0lx3St9xyS6QG5iSQwLvvvgu3ny1btrzyyit6+LR344asvyFgzW+9HnwdxtIxCudrr71Wf4jpWAnw0o2VWEzyvFHHhCtuYZoWcaNLSEEMUOoffEjT3g188MEHADF+/PhIxFjvTO+oh4HxSBnmCALKhxsM6K5cuVJkioThsw7ExCEmkkoAt13lPUT58dPejY+2iOAIjJj3EKnkmWeeUQjjL4d4I/nEkcNLNw5oUYvwRh0VUUIEaFokBGN8Svbu3Su+xYnbcmLt3dqMJyy6FGsCqwfg0+T9998fWdDj8dxzzz0iv7i4WKSZiCQwa9YsZM6cOfOQQw6JPApHUqyULPK3bduGoUexy0TyCLhcrvbt2ydPfwPRrP80dtppp0X2esCAASLz4YcfFmkm4ibASzdudDYFeaO2gZPAQzQtEggzVlU33HADgjZgoAcxyGIt61C+Xtq7F1100euvv26I2SY6LL5RIufEE08U+UwYCOAlDK+zeHPo2bOn4ZDYffDBB0UaCQwD63eZTh4B/fhu8mpJY80YLdC7PCoeUIb+IqS54DxlyhQM8RoEuBsHAYE0jrIsEkmAN+pIJknKoWmRJLBR1b7//vsvvvgixLBUFG7LUeXjE6iX9q59V7dv3y4EIp1QxSEmMBKDMfL77rvPBkWrVq3009fy8vJshHkogQQyMjISqK0BqsJiiKLXmG1ptYDxKaecIsTghCrSTMRNgJdu3OhMC/JGbYol9Zk0LZLEHA57ypfkyy+/PHJ5ogRWmob2LtbnVwAh6gSiTyQQVvqpuuqqq7Agg32/9AIHHnigvTCPJoqA252Gv81EwXGiB146QsxmwOCoo44SYiL6o8hhIg4CvHTjgGZfhDdqez6pOUrTIhmc8fli1KhRWGwAzrtPPvlkMqoQOtPwmYooSugerDTDJHfRZyZiIoDAdYo8kB5wwAExlaVw3ATgiR53WRYEgS+++EJwaNasmUgbEk2bNhU569atE2km4ibASzdudDUpyBt1Teg5KUvTwgmlWGXgrfvZZ5+h1Ntvv11YWBhr8Zjk083efe6557788kt8gp89e3bLli1jYkHhSAIITIUXLyV/+PDh+LIWKcMcEqiDBPSDtTb2bqNGjUTjEYpCpJkggXpEgDfqZJ8smhbJIIxQakq44Hvvvbd3797JqEKvM33sXaxEBmSjR49G9xo3bozgCPp+Mh0fgcWLF4uCV1xxhUgzQQJ1mUBZWZm+eU2aNNHv6tP6yVUwkXEb0R9lmgTqBQHeqJN3mmhaJIltZWUlAl5COSYTY92xJNWiV5sO9u6iRYuwFi9cS8VKZKtXrz788MMnTJig7yrTcRB4/vnnlVKA2aZNmzg0sAgJpJ4A1ufXV2pj7+bn5+sl//zzT/0u0yRQLwjwRp2M00TTIhlUhU7MlUcQcuwiypLVcltCOCEJb0K01KKS6dOnn3vuuaYNuPvuu5F/1113mR5lZlQCX3/9teKxBEfym266Kao8BUigjhAQTjhKe2zsXURZ07cZkQVtJrfpJZkmgTpCgDfqZJwImhbJoCp0IpSaEkLhpZde6tixo8hPaqLej++eeeaZAPf0009fdtll+pWzFGoweX/66aekEkxX5bADbr75ZqV3CEOVm5ubrj1lv9KPgPPRAqwwr+8+r3M9DabrPgHeqJN0jmhaJAks1O7bt+/CCy9EAoOVWIMseRUZNNd7exfPJ7g5w+UZqzHAZz/Sh8EQMcHQf+5aEXjzzTeVbw233XbbOeecYyXGfBKogwTgwa9vlc2KAQZHf5uRYL1CpkmgjhDgjTpJJ4KmRZLAQu0//vEPhFLDAOWzzz6bvFoiNdcVfwZEXYcHks1kEQzYYA1C+5Uds7OzEUF02LBhRx99tPigibgdUOt8vCeSUf3KSQjJjRs3Xnfddeg4Aq6axm2uX0xS39qEnIXUNzttatSvMoZO7dmzx6przme2WWlgPgnUFgHeqFNDnqZFAjnDUWTatGlQiCi5hht1AmsxVeXCYr+mB1KciadO1C+JGImJKqM0+6233kJgQNEFTLtu37692E3vRM1JVlRUIA7zggULsODuwoULDUNl6U0vUb2r+Vk4/fTTsbKe0h6En+HKx7Gemg4dOoglyR555JFbb73VVANWOB83bpw4VEfuh6I99THBSzc1Z4036tRw1tfSkE0LPYe40/Afw0KxynDkWWedZapnzZo1WHJAOYQx4F69einpxx57DJEyTYs4zKwr47sOm+tQDK4ht9xyCwbMFXnMQWk49q5DRFZieN5jZBfGLtZpQoQqGrtWoJhfxwm0a9dO2LuG5Rr0Ld+2bZvY7d69u0gzQQJ1mQBv1LVydmha1BA7RoLEt3clzIS9QtyfhRgmFNXQ3q0r/rsJD2TQr18/wbFVq1YinfaJGpLEDL8XX3wRlL755ptOnTqlPa4kdbCGZyFJrWpQavV3RrzxWvX9l19+EYfOPvtskWaCBOoyAd6oa+vsNFjToraAJ7DeujK+C/+YzZs32/vvOnRmUOhgBeOXX35ZSR900EEJRFbHVdWEJCL7YUk8dHDOnDk9e/as4z2ty82ryVmoy/2qR22DRxOWbVEaPGvWLKuWY4lNcah///4izQQJ1FkCvFHX4qlpsKZFQpjDihs5cqRhFUiDZsS5xKJbSiacKk866SQlXfMIAHXF3kV/Ehv+FwaHwqhPnz4NbbAtPpJwIVfmqM2YMePkk09W6PFv3ATiOwtxV8eCBgLHH3887pWKSwNcm9atWxfp1IQva8LrCcVTENDS0EjukkCsBHijjpVYYuUbsmlRc5I5OTlTp0611wMHBvGpDQ4kDzzwgL2886N1xZ/BeYsdSi5dulSRPO+88xwWachiWM1NCRf8xhtvDBw40AoFrjxMRrE6yvwEErB/A05gRemqCm+51157rejd3LlzRVoklixZItJjx44VTzKRyUQcBHjpxgHNYRHeqB2CSp4YTYvksU225vS0dzds2DBx4kSw69y5szJmmWyO9Vo/ovmNGDECXcCLl35dC32nsDgGJrnfeeed++23nz6f6SQRwORrodnGz0fIMBFJ4OKLLxaZmHwp0iKBBXFE+o477hBpJmpCgJduTejZlOWN2gZOag7RtEgN5yTVUof8GZz3EC9YWKwXowh9+/YdMmSIYW1dLHgxatQoRRv8nDIzM51rboCSQCReCVasWCFiqikoALm8vBzTfeABqUyrHD58eAOklPouYx6rqNQQA0zkM2FPABNVEW7m9ttvhxg+XGCR82OOOUYUgSfDlClTlF24re+///7iEBM1IcBLtyb0rMryRm1FJoH5NC0SCLMuqsKyJvVrw1hX69atBUqM4GJeGmwy9KKqqur7779HjnJ00qRJ9atrqW/tQw89JEg6SWCRMgzepL6dDa1GQ3yE1157raERSFR/cU/A/BLl2saKDeLq3bt3r8gfOnSoyE9UvQ1WDy/dZJx63qiTQdWgk6aFAUht7X766afCGsFoRQKbISVQV2pUGS5KwQVzU0QaZtl7772XmvbU31qwoo0g5jCBlfnrb3/rfst37tyJGBMvvfTSkUceaTgjDz/88Mcff4xVuOt+L+paC0EVARcVnli9HD45jz/+OBJKzuDBg2ns1vyU8dKtOUMrDbxRW5FJbD5Ni8TyjFsb7d0wdB999JHBGhC7GMLBF8x9+/aFFeCOGQFhBAh6URM//PCDmSbmJYaACKhmdSJuvPHGxNTUwLTAFScyvho+E8EhEg+5BgYjKd3lpZsUrEGlvFEnj61BM00LA5Ba2f3qq6/EE3DChAkJbENdiScsuucwUVxcjFC3iL0B11L4mCIKM7Zu3brpXR0cqqIYCZBAQyCA2wVuGlihDGvidO3atUePHllZWQ2h4+wjCZCAQwI0LRyCqo9i9dXerY+s2WYSIAESIAESIAESIIHUE0jP9chSz5E1kgAJkAAJkAAJkAAJ1E0CtHfr5nlhq0iABEiABEiABEiABBJDgPZuYjhSCwmQAAmQAAmQAAmQQN0kQHu3bp4XtooESIAESIAESIAESCAxBGjvJoYjtZAACZAACZAACZAACdRNArR36+Z5YatIgARIgARIgARIgAQSQ4D2bmI4UgsJkAAJkAAJkAAJkEDdJEB7t26eF7aKBEiABEiABEiABEggMQRo7yaG4/9v1JTREBgNgdEQGA2B0RAYDYHREBgNgcEZAgB2QuxLtmOo8QAAAABJRU5ErkJggg==;" vertex="1" parent="1">
          <mxGeometry x="-150" y="-60" width="933" height="793" as="geometry" />
        </mxCell>
        <mxCell id="bD2k2-0QSDSNVL_4Vgss-2" value="" style="ellipse;whiteSpace=wrap;html=1;aspect=fixed;labelBackgroundColor=default;fontFamily=Times New Roman;fontSize=42;fillColor=#0050ef;strokeColor=#000000;fontColor=#ffffff;strokeWidth=3;" vertex="1" parent="1">
          <mxGeometry x="-45" y="-30" width="20" height="20" as="geometry" />
        </mxCell>
        <mxCell id="bD2k2-0QSDSNVL_4Vgss-3" value="" style="ellipse;whiteSpace=wrap;html=1;aspect=fixed;labelBackgroundColor=default;fontFamily=Times New Roman;fontSize=42;fillColor=#008a00;strokeColor=#005700;fontColor=#ffffff;strokeWidth=3;" vertex="1" parent="1">
          <mxGeometry x="-45" y="20" width="20" height="20" as="geometry" />
        </mxCell>
        <mxCell id="bD2k2-0QSDSNVL_4Vgss-4" value="" style="ellipse;whiteSpace=wrap;html=1;strokeColor=#ed220d;strokeWidth=5;" vertex="1" parent="1">
          <mxGeometry x="-59" y="70" width="60" height="30" as="geometry" />
        </mxCell>
        <mxCell id="bD2k2-0QSDSNVL_4Vgss-5" value="训练数据" style="text;html=1;strokeColor=none;fillColor=none;align=center;verticalAlign=middle;whiteSpace=wrap;rounded=0;fontSize=32;fontFamily=宋体;" vertex="1" parent="1">
          <mxGeometry x="21" y="-35" width="140" height="30" as="geometry" />
        </mxCell>
        <mxCell id="bD2k2-0QSDSNVL_4Vgss-6" value="支持向量" style="text;html=1;strokeColor=none;fillColor=none;align=center;verticalAlign=middle;whiteSpace=wrap;rounded=0;fontSize=32;fontFamily=宋体;" vertex="1" parent="1">
          <mxGeometry x="21" y="15" width="140" height="30" as="geometry" />
        </mxCell>
        <mxCell id="bD2k2-0QSDSNVL_4Vgss-7" value="支持向量数据描述" style="text;html=1;strokeColor=none;fillColor=none;align=center;verticalAlign=middle;whiteSpace=wrap;rounded=0;fontSize=32;fontFamily=宋体;" vertex="1" parent="1">
          <mxGeometry x="21" y="65" width="270" height="30" as="geometry" />
        </mxCell>
        <mxCell id="bD2k2-0QSDSNVL_4Vgss-8" value="" style="ellipse;whiteSpace=wrap;html=1;aspect=fixed;labelBackgroundColor=default;fontFamily=Times New Roman;fontSize=42;fillColor=#008a00;strokeColor=#005700;fontColor=#ffffff;strokeWidth=3;" vertex="1" parent="1">
          <mxGeometry x="432" y="196" width="21" height="21" as="geometry" />
        </mxCell>
        <mxCell id="bD2k2-0QSDSNVL_4Vgss-9" value="" style="ellipse;whiteSpace=wrap;html=1;aspect=fixed;labelBackgroundColor=default;fontFamily=Times New Roman;fontSize=42;fillColor=#008a00;strokeColor=#005700;fontColor=#ffffff;strokeWidth=3;" vertex="1" parent="1">
          <mxGeometry x="496" y="109" width="21" height="21" as="geometry" />
        </mxCell>
        <mxCell id="bD2k2-0QSDSNVL_4Vgss-10" value="" style="ellipse;whiteSpace=wrap;html=1;aspect=fixed;labelBackgroundColor=default;fontFamily=Times New Roman;fontSize=42;fillColor=#008a00;strokeColor=#005700;fontColor=#ffffff;strokeWidth=3;" vertex="1" parent="1">
          <mxGeometry x="538" y="114" width="21" height="21" as="geometry" />
        </mxCell>
        <mxCell id="bD2k2-0QSDSNVL_4Vgss-11" value="" style="ellipse;whiteSpace=wrap;html=1;aspect=fixed;labelBackgroundColor=default;fontFamily=Times New Roman;fontSize=42;fillColor=#008a00;strokeColor=#005700;fontColor=#ffffff;strokeWidth=3;" vertex="1" parent="1">
          <mxGeometry x="600" y="93" width="21" height="21" as="geometry" />
        </mxCell>
        <mxCell id="bD2k2-0QSDSNVL_4Vgss-12" value="" style="ellipse;whiteSpace=wrap;html=1;aspect=fixed;labelBackgroundColor=default;fontFamily=Times New Roman;fontSize=42;fillColor=#008a00;strokeColor=#005700;fontColor=#ffffff;strokeWidth=3;" vertex="1" parent="1">
          <mxGeometry x="632" y="159" width="21" height="21" as="geometry" />
        </mxCell>
        <mxCell id="bD2k2-0QSDSNVL_4Vgss-13" value="" style="ellipse;whiteSpace=wrap;html=1;aspect=fixed;labelBackgroundColor=default;fontFamily=Times New Roman;fontSize=42;fillColor=#008a00;strokeColor=#005700;fontColor=#ffffff;strokeWidth=3;" vertex="1" parent="1">
          <mxGeometry x="642" y="169" width="21" height="21" as="geometry" />
        </mxCell>
        <mxCell id="bD2k2-0QSDSNVL_4Vgss-14" value="" style="ellipse;whiteSpace=wrap;html=1;aspect=fixed;labelBackgroundColor=default;fontFamily=Times New Roman;fontSize=42;fillColor=#008a00;strokeColor=#005700;fontColor=#ffffff;strokeWidth=3;" vertex="1" parent="1">
          <mxGeometry x="621" y="148" width="21" height="21" as="geometry" />
        </mxCell>
        <mxCell id="bD2k2-0QSDSNVL_4Vgss-16" value="" style="ellipse;whiteSpace=wrap;html=1;aspect=fixed;labelBackgroundColor=default;fontFamily=Times New Roman;fontSize=42;fillColor=#008a00;strokeColor=#005700;fontColor=#ffffff;strokeWidth=3;" vertex="1" parent="1">
          <mxGeometry x="565" y="448" width="21" height="21" as="geometry" />
        </mxCell>
        <mxCell id="bD2k2-0QSDSNVL_4Vgss-17" value="" style="ellipse;whiteSpace=wrap;html=1;aspect=fixed;labelBackgroundColor=default;fontFamily=Times New Roman;fontSize=42;fillColor=#008a00;strokeColor=#005700;fontColor=#ffffff;strokeWidth=3;" vertex="1" parent="1">
          <mxGeometry x="462" y="568" width="21" height="21" as="geometry" />
        </mxCell>
        <mxCell id="bD2k2-0QSDSNVL_4Vgss-18" value="" style="ellipse;whiteSpace=wrap;html=1;aspect=fixed;labelBackgroundColor=default;fontFamily=Times New Roman;fontSize=42;fillColor=#008a00;strokeColor=#005700;fontColor=#ffffff;strokeWidth=3;" vertex="1" parent="1">
          <mxGeometry x="402" y="543" width="21" height="21" as="geometry" />
        </mxCell>
        <mxCell id="bD2k2-0QSDSNVL_4Vgss-19" value="" style="ellipse;whiteSpace=wrap;html=1;aspect=fixed;labelBackgroundColor=default;fontFamily=Times New Roman;fontSize=42;fillColor=#008a00;strokeColor=#005700;fontColor=#ffffff;strokeWidth=3;" vertex="1" parent="1">
          <mxGeometry x="412" y="553" width="21" height="21" as="geometry" />
        </mxCell>
        <mxCell id="bD2k2-0QSDSNVL_4Vgss-20" value="" style="ellipse;whiteSpace=wrap;html=1;aspect=fixed;labelBackgroundColor=default;fontFamily=Times New Roman;fontSize=42;fillColor=#008a00;strokeColor=#005700;fontColor=#ffffff;strokeWidth=3;" vertex="1" parent="1">
          <mxGeometry x="372" y="529" width="21" height="21" as="geometry" />
        </mxCell>
        <mxCell id="bD2k2-0QSDSNVL_4Vgss-21" value="" style="ellipse;whiteSpace=wrap;html=1;aspect=fixed;labelBackgroundColor=default;fontFamily=Times New Roman;fontSize=42;fillColor=#008a00;strokeColor=#005700;fontColor=#ffffff;strokeWidth=3;" vertex="1" parent="1">
          <mxGeometry x="342" y="528" width="21" height="21" as="geometry" />
        </mxCell>
        <mxCell id="bD2k2-0QSDSNVL_4Vgss-22" value="" style="ellipse;whiteSpace=wrap;html=1;aspect=fixed;labelBackgroundColor=default;fontFamily=Times New Roman;fontSize=42;fillColor=#008a00;strokeColor=#005700;fontColor=#ffffff;strokeWidth=3;" vertex="1" parent="1">
          <mxGeometry x="291" y="518" width="21" height="21" as="geometry" />
        </mxCell>
        <mxCell id="bD2k2-0QSDSNVL_4Vgss-23" value="" style="ellipse;whiteSpace=wrap;html=1;aspect=fixed;labelBackgroundColor=default;fontFamily=Times New Roman;fontSize=42;fillColor=#008a00;strokeColor=#005700;fontColor=#ffffff;strokeWidth=3;" vertex="1" parent="1">
          <mxGeometry x="289" y="462" width="21" height="21" as="geometry" />
        </mxCell>
        <mxCell id="bD2k2-0QSDSNVL_4Vgss-24" value="" style="ellipse;whiteSpace=wrap;html=1;aspect=fixed;labelBackgroundColor=default;fontFamily=Times New Roman;fontSize=42;fillColor=#008a00;strokeColor=#005700;fontColor=#ffffff;strokeWidth=3;" vertex="1" parent="1">
          <mxGeometry x="299" y="441" width="21" height="21" as="geometry" />
        </mxCell>
        <mxCell id="bD2k2-0QSDSNVL_4Vgss-26" value="" style="ellipse;whiteSpace=wrap;html=1;aspect=fixed;labelBackgroundColor=default;fontFamily=Times New Roman;fontSize=42;fillColor=#008a00;strokeColor=#005700;fontColor=#ffffff;strokeWidth=3;" vertex="1" parent="1">
          <mxGeometry x="367" y="376" width="21" height="21" as="geometry" />
        </mxCell>
        <mxCell id="bD2k2-0QSDSNVL_4Vgss-27" value="" style="ellipse;whiteSpace=wrap;html=1;aspect=fixed;labelBackgroundColor=default;fontFamily=Times New Roman;fontSize=42;fillColor=#008a00;strokeColor=#005700;fontColor=#ffffff;strokeWidth=3;" vertex="1" parent="1">
          <mxGeometry x="402" y="363" width="21" height="21" as="geometry" />
        </mxCell>
        <mxCell id="bD2k2-0QSDSNVL_4Vgss-28" value="" style="ellipse;whiteSpace=wrap;html=1;aspect=fixed;labelBackgroundColor=default;fontFamily=Times New Roman;fontSize=42;fillColor=#008a00;strokeColor=#005700;fontColor=#ffffff;strokeWidth=3;" vertex="1" parent="1">
          <mxGeometry x="471" y="251" width="21" height="21" as="geometry" />
        </mxCell>
        <mxCell id="bD2k2-0QSDSNVL_4Vgss-29" value="" style="ellipse;whiteSpace=wrap;html=1;aspect=fixed;labelBackgroundColor=default;fontFamily=Times New Roman;fontSize=42;fillColor=#008a00;strokeColor=#005700;fontColor=#ffffff;strokeWidth=3;" vertex="1" parent="1">
          <mxGeometry x="483" y="246" width="21" height="21" as="geometry" />
        </mxCell>
        <mxCell id="bD2k2-0QSDSNVL_4Vgss-30" value="" style="ellipse;whiteSpace=wrap;html=1;aspect=fixed;labelBackgroundColor=default;fontFamily=Times New Roman;fontSize=42;fillColor=#008a00;strokeColor=#005700;fontColor=#ffffff;strokeWidth=3;" vertex="1" parent="1">
          <mxGeometry x="547" y="225" width="21" height="21" as="geometry" />
        </mxCell>
        <mxCell id="bD2k2-0QSDSNVL_4Vgss-31" value="" style="ellipse;whiteSpace=wrap;html=1;aspect=fixed;labelBackgroundColor=default;fontFamily=Times New Roman;fontSize=42;fillColor=#008a00;strokeColor=#005700;fontColor=#ffffff;strokeWidth=3;" vertex="1" parent="1">
          <mxGeometry x="168" y="388" width="21" height="21" as="geometry" />
        </mxCell>
        <mxCell id="bD2k2-0QSDSNVL_4Vgss-32" value="" style="ellipse;whiteSpace=wrap;html=1;aspect=fixed;labelBackgroundColor=default;fontFamily=Times New Roman;fontSize=42;fillColor=#008a00;strokeColor=#005700;fontColor=#ffffff;strokeWidth=3;" vertex="1" parent="1">
          <mxGeometry x="202" y="443" width="21" height="21" as="geometry" />
        </mxCell>
        <mxCell id="bD2k2-0QSDSNVL_4Vgss-33" value="" style="ellipse;whiteSpace=wrap;html=1;aspect=fixed;labelBackgroundColor=default;fontFamily=Times New Roman;fontSize=42;fillColor=#008a00;strokeColor=#005700;fontColor=#ffffff;strokeWidth=3;" vertex="1" parent="1">
          <mxGeometry x="225" y="466" width="21" height="21" as="geometry" />
        </mxCell>
        <mxCell id="bD2k2-0QSDSNVL_4Vgss-34" value="" style="ellipse;whiteSpace=wrap;html=1;aspect=fixed;labelBackgroundColor=default;fontFamily=Times New Roman;fontSize=42;fillColor=#008a00;strokeColor=#005700;fontColor=#ffffff;strokeWidth=3;" vertex="1" parent="1">
          <mxGeometry x="195" y="518" width="21" height="21" as="geometry" />
        </mxCell>
        <mxCell id="bD2k2-0QSDSNVL_4Vgss-35" value="" style="ellipse;whiteSpace=wrap;html=1;aspect=fixed;labelBackgroundColor=default;fontFamily=Times New Roman;fontSize=42;fillColor=#008a00;strokeColor=#005700;fontColor=#ffffff;strokeWidth=3;" vertex="1" parent="1">
          <mxGeometry x="118" y="339" width="21" height="21" as="geometry" />
        </mxCell>
        <mxCell id="bD2k2-0QSDSNVL_4Vgss-36" value="" style="ellipse;whiteSpace=wrap;html=1;aspect=fixed;labelBackgroundColor=default;fontFamily=Times New Roman;fontSize=42;fillColor=#008a00;strokeColor=#005700;fontColor=#ffffff;strokeWidth=3;" vertex="1" parent="1">
          <mxGeometry x="31" y="323" width="21" height="21" as="geometry" />
        </mxCell>
        <mxCell id="bD2k2-0QSDSNVL_4Vgss-37" value="" style="ellipse;whiteSpace=wrap;html=1;aspect=fixed;labelBackgroundColor=default;fontFamily=Times New Roman;fontSize=42;fillColor=#008a00;strokeColor=#005700;fontColor=#ffffff;strokeWidth=3;" vertex="1" parent="1">
          <mxGeometry x="58" y="307" width="21" height="21" as="geometry" />
        </mxCell>
        <mxCell id="bD2k2-0QSDSNVL_4Vgss-38" value="" style="ellipse;whiteSpace=wrap;html=1;aspect=fixed;labelBackgroundColor=default;fontFamily=Times New Roman;fontSize=42;fillColor=#008a00;strokeColor=#005700;fontColor=#ffffff;strokeWidth=3;" vertex="1" parent="1">
          <mxGeometry x="80.5" y="438" width="21" height="21" as="geometry" />
        </mxCell>
        <mxCell id="bD2k2-0QSDSNVL_4Vgss-39" value="" style="ellipse;whiteSpace=wrap;html=1;aspect=fixed;labelBackgroundColor=default;fontFamily=Times New Roman;fontSize=42;fillColor=#008a00;strokeColor=#005700;fontColor=#ffffff;strokeWidth=3;" vertex="1" parent="1">
          <mxGeometry x="87.5" y="483" width="21" height="21" as="geometry" />
        </mxCell>
        <mxCell id="bD2k2-0QSDSNVL_4Vgss-40" value="" style="ellipse;whiteSpace=wrap;html=1;aspect=fixed;labelBackgroundColor=default;fontFamily=Times New Roman;fontSize=42;fillColor=#008a00;strokeColor=#005700;fontColor=#ffffff;strokeWidth=3;" vertex="1" parent="1">
          <mxGeometry x="135" y="528" width="21" height="21" as="geometry" />
        </mxCell>
      </root>
    </mxGraphModel>
  </diagram>
</mxfile>
